STARTFONT 2.1
COMMENT
COMMENT Converted from OpenType font "FreeSerifBold.ttf" by "otf2bdf 3.0".
COMMENT
FONT -FreeType-FreeSerif-Bold-R-Normal--50-120-300-300-P-277-ISO10646-1
SIZE 12 300 300
FONTBOUNDINGBOX 130 69 -39 -23
STARTPROPERTIES 19
FOUNDRY "FreeType"
FAMILY_NAME "FreeSerif"
WEIGHT_NAME "Bold"
SLANT "R"
SETWIDTH_NAME "Normal"
ADD_STYLE_NAME ""
PIXEL_SIZE 50
POINT_SIZE 120
RESOLUTION_X 300
RESOLUTION_Y 300
SPACING "P"
AVERAGE_WIDTH 277
CHARSET_REGISTRY "ISO10646"
CHARSET_ENCODING "1"
FONT_ASCENT 45
FONT_DESCENT 10
COPYRIGHT "Copyright 2002, 2003, 2005, 2008, 2009, 2010, 2012 GNU Freefont contributors."
_OTF_FONTFILE "FreeSerifBold.ttf"
_OTF_PSNAME "FreeSerifBold"
ENDPROPERTIES
CHARS 4052
STARTCHAR 0020
ENCODING 32
SWIDTH 260 0
DWIDTH 13 0
BBX 0 0 0 0
BITMAP
ENDCHAR
STARTCHAR 0021
ENCODING 33
SWIDTH 340 0
DWIDTH 17 0
BBX 9 35 4 0
BITMAP
3E00
7F00
FF00
FF80
FF80
FF80
FF80
FF00
7F00
7F00
7F00
3E00
3E00
3E00
3E00
1C00
1C00
1C00
1C00
1C00
0C00
0C00
0C00
0000
0000
0000
0000
1C00
7F00
FF00
FF80
FF80
FF80
7F00
3E00
ENDCHAR
STARTCHAR 0022
ENCODING 34
SWIDTH 560 0
DWIDTH 28 0
BBX 19 14 4 21
BITMAP
7803C0
F807C0
FC07E0
FC07E0
FC07E0
FC07E0
F807C0
7803C0
7803C0
7803C0
7803C0
780380
300180
300180
ENDCHAR
STARTCHAR 0023
ENCODING 35
SWIDTH 500 0
DWIDTH 25 0
BBX 25 35 0 0
BITMAP
00F03C00
00F03C00
00F03C00
00F03800
00F07800
00F07800
00E07800
01E07800
01E07800
01E07800
3FFFFF80
3FFFFF80
3FFFFF80
3FFFFF80
03C0F000
03C0F000
03C0F000
03C0E000
03C1E000
03C1E000
FFFFFE00
FFFFFE00
FFFFFE00
FFFFFE00
0781C000
0783C000
0783C000
0703C000
0F03C000
0F03C000
0F03C000
0F038000
0F078000
0F078000
0E078000
ENDCHAR
STARTCHAR 0024
ENCODING 36
SWIDTH 500 0
DWIDTH 25 0
BBX 23 42 1 -4
BITMAP
003800
003800
003800
003800
007E00
07FFC0
1F39F8
3C38F8
783878
783838
F83818
F83818
F83808
FC3808
FF3800
FFF800
7FF800
7FFC00
3FFF00
1FFFC0
0FFFE0
03FFF0
01FFF8
007FFC
003FFC
003FFE
003BFE
0038FE
4038FE
40387E
60387E
60387C
70387C
78387C
7C38F8
7E39F0
1FFFC0
03FE00
003800
003800
003800
003800
ENDCHAR
STARTCHAR 0025
ENCODING 37
SWIDTH 1000 0
DWIDTH 50 0
BBX 38 35 6 0
BITMAP
0000000C00
01FE001C00
03FF80F800
07E3FFF800
0FC0FE7000
1FC0C06000
3F80C0E000
7F0081C000
7F0081C000
7E01838000
FE01838000
FE01870000
FC03070000
FC030E0000
FC060C0000
FC0E1C0000
7C0C380000
7E38380FE0
3FF0701FF0
1FE0707F18
0000E0FE08
0000E0FC0C
0001C1FC0C
000183F80C
000383F008
000707F008
000707F018
000E07E018
000E07E030
001C07E030
001C07E060
003807E0E0
003003F1C0
007001FF80
00E000FF00
ENDCHAR
STARTCHAR 0026
ENCODING 38
SWIDTH 840 0
DWIDTH 42 0
BBX 36 36 3 -1
BITMAP
0007F00000
001FFC0000
007C3F0000
00F81F0000
00F81F8000
01F80F8000
01F80F8000
01FC0F8000
01FC0F8000
01FE0F0000
01FE1E0000
00FF3C0000
00FFF00000
007FC00000
007FC07FF0
007FE00FC0
00FFE00780
03DFF00700
070FF80600
1F0FFC0E00
3E07FC0C00
3E07FE1800
7E03FF1800
7E01FF3000
FE01FFE000
FF00FFE000
FF007FC000
FF807FE000
FF803FF000
FFC01FF810
7FE01FFC30
7FF07FFFE0
3FFFE7FFC0
1FFFC3FFC0
0FFF01FF00
03F8007E00
ENDCHAR
STARTCHAR 0027
ENCODING 39
SWIDTH 280 0
DWIDTH 14 0
BBX 6 14 4 21
BITMAP
78
F8
FC
FC
FC
FC
F8
78
78
78
78
70
30
30
ENDCHAR
STARTCHAR 0028
ENCODING 40
SWIDTH 340 0
DWIDTH 17 0
BBX 13 42 2 -7
BITMAP
0018
0070
00E0
01C0
0380
0700
0F00
0E00
1E00
1E00
3E00
3C00
7C00
7C00
7C00
7C00
FC00
FC00
FC00
FC00
FC00
FC00
FC00
FC00
FC00
FC00
7C00
7C00
7C00
7C00
3E00
3E00
1E00
1E00
0F00
0700
0300
0380
01C0
0060
0030
0018
ENDCHAR
STARTCHAR 0029
ENCODING 41
SWIDTH 340 0
DWIDTH 17 0
BBX 13 42 2 -7
BITMAP
C000
6000
3000
1C00
0E00
0600
0700
0380
03C0
03C0
03E0
03E0
03F0
01F0
01F0
01F0
01F8
01F8
01F8
01F8
01F8
01F8
01F8
01F8
01F8
01F0
01F0
01F0
01F0
01E0
03E0
03E0
03C0
0380
0780
0700
0E00
0E00
1C00
3000
6000
C000
ENDCHAR
STARTCHAR 002A
ENCODING 42
SWIDTH 500 0
DWIDTH 25 0
BBX 19 21 3 14
BITMAP
00F000
01F000
01F000
01F000
70F1C0
FCF3E0
FEE7E0
FE6FE0
3F7FC0
0FFF00
00E000
1FFF00
7F7FC0
FEEFE0
FCE7E0
F8F3E0
71F1C0
01F000
01F000
01F000
00E000
ENDCHAR
STARTCHAR 002B
ENCODING 43
SWIDTH 680 0
DWIDTH 34 0
BBX 27 27 4 -1
BITMAP
001F0000
001F0000
001F0000
001F0000
001F0000
001F0000
001F0000
001F0000
001F0000
001F0000
001F0000
FFFFFFE0
FFFFFFE0
FFFFFFE0
FFFFFFE0
FFFFFFE0
001F0000
001F0000
001F0000
001F0000
001F0000
001F0000
001F0000
001F0000
001F0000
001F0000
001F0000
ENDCHAR
STARTCHAR 002C
ENCODING 44
SWIDTH 240 0
DWIDTH 12 0
BBX 8 17 3 -9
BITMAP
3C
7E
FF
FF
FF
FF
7F
7F
07
07
06
0E
1C
38
70
C0
80
ENDCHAR
STARTCHAR 002D
ENCODING 45
SWIDTH 340 0
DWIDTH 17 0
BBX 12 6 2 9
BITMAP
FFF0
FFF0
FFF0
FFF0
FFF0
FFF0
ENDCHAR
STARTCHAR 002E
ENCODING 46
SWIDTH 260 0
DWIDTH 13 0
BBX 9 8 2 0
BITMAP
3C00
7F00
FF00
FF80
FF80
FF80
7F00
7E00
ENDCHAR
STARTCHAR 002F
ENCODING 47
SWIDTH 280 0
DWIDTH 14 0
BBX 16 35 -1 0
BITMAP
000F
001F
001E
001E
003E
003C
003C
007C
0078
0078
00F8
00F0
00F0
01F0
01E0
01E0
03E0
03C0
03C0
07C0
0780
0780
0F80
0F00
0F00
1F00
1F00
1E00
3E00
3E00
3C00
7C00
7C00
7800
F800
ENDCHAR
STARTCHAR 0030
ENCODING 48
SWIDTH 500 0
DWIDTH 25 0
BBX 23 35 1 0
BITMAP
007C00
01EF00
07C7C0
0F83E0
0F83E0
1F01F0
3F01F8
3F01F8
3F01F8
7F01FC
7F01FC
7F01FC
FF01FE
FF01FE
FF01FE
FF01FE
FF01FE
FF01FE
FF01FE
FF01FE
FF01FE
FF01FE
FF01FE
7F01FE
7F01FC
7F01FC
7F01FC
3F01F8
3F01F8
1F01F0
1F83F0
0F83E0
0783C0
03C780
01FF00
ENDCHAR
STARTCHAR 0031
ENCODING 49
SWIDTH 500 0
DWIDTH 25 0
BBX 18 35 3 0
BITMAP
001800
007800
01F800
07F800
3FF800
FFF800
83F800
03F800
03F800
03F800
03F800
03F800
03F800
03F800
03F800
03F800
03F800
03F800
03F800
03F800
03F800
03F800
03F800
03F800
03F800
03F800
03F800
03F800
03F800
03F800
03F800
03FC00
07FC00
1FFF00
FFFFC0
ENDCHAR
STARTCHAR 0032
ENCODING 50
SWIDTH 500 0
DWIDTH 25 0
BBX 23 35 1 0
BITMAP
007E00
03FF80
07FFC0
0FFFE0
1FFFF0
1FFFF0
381FF8
700FF8
6007F8
4007F8
0003F8
0003F8
0003F8
0003F0
0003F0
0007E0
0007E0
0007C0
000F80
000F00
001E00
003C00
003800
007000
00E002
01C006
038006
07000C
07FFFC
0FFFFC
1FFFFC
3FFFFC
7FFFF8
FFFFF8
FFFFF8
ENDCHAR
STARTCHAR 0033
ENCODING 51
SWIDTH 500 0
DWIDTH 25 0
BBX 23 35 1 0
BITMAP
003F80
01FFE0
03FFF0
07FFF8
0C0FF8
1807F8
3003F8
2003F8
0003F8
0003F8
0003F0
0003E0
0007C0
000F80
001FE0
007FF0
00FFF8
003FFC
000FFC
0007FE
0001FE
0001FE
0000FE
0000FE
00007E
00007C
00007C
00007C
000078
380078
FE00F0
FF00E0
FFC180
7FFF00
3FFC00
ENDCHAR
STARTCHAR 0034
ENCODING 52
SWIDTH 500 0
DWIDTH 25 0
BBX 22 35 1 0
BITMAP
0001E0
0003E0
0007E0
0007E0
000FE0
001FE0
003FE0
003FE0
006FE0
00CFE0
01CFE0
018FE0
030FE0
060FE0
060FE0
0C0FE0
180FE0
180FE0
300FE0
600FE0
600FE0
C00FE0
FFFFFC
FFFFFC
FFFFFC
FFFFFC
FFFFFC
FFFFFC
000FE0
000FE0
000FE0
000FE0
000FE0
000FE0
000FE0
ENDCHAR
STARTCHAR 0035
ENCODING 53
SWIDTH 500 0
DWIDTH 25 0
BBX 23 34 1 0
BITMAP
03FFFE
03FFFC
03FFFC
07FFFC
07FFF8
07FFF8
040000
0C0000
0C0000
0C0000
180000
1FF800
1FFF00
1FFF80
3FFFE0
3FFFF0
3FFFF0
3FFFF8
003FF8
0007FC
0003FC
0000FC
00007C
00007C
00003C
00003C
000038
380038
7E0070
FF8060
FFE0E0
7FFF80
7FFF00
1FFC00
ENDCHAR
STARTCHAR 0036
ENCODING 54
SWIDTH 500 0
DWIDTH 25 0
BBX 22 35 1 0
BITMAP
00001C
0001F8
000FC0
001F00
007E00
00FC00
03F800
07F000
0FE000
0FE000
1FC000
3FC000
3FC000
7F8000
7FFF80
7FFFE0
FF8FF0
FF07F8
FF03F8
FF03FC
FF01FC
FF01FC
FF01FC
FF01FC
FF01FC
FF01FC
7F01FC
7F01FC
7F01FC
3F81F8
3F81F8
1F81F0
0F83E0
07C3C0
01FF00
ENDCHAR
STARTCHAR 0037
ENCODING 55
SWIDTH 500 0
DWIDTH 25 0
BBX 23 34 1 0
BITMAP
3FFFFE
3FFFFC
3FFFFC
7FFFFC
7FFFF8
7FFFF8
7FFFF8
6000F0
C000F0
C001F0
8001E0
0001E0
0003E0
0003C0
0003C0
0007C0
000780
000F80
000F00
000F00
001F00
001E00
001E00
003E00
003C00
007C00
007C00
007800
00F800
00F800
00F000
01F000
01F000
01E000
ENDCHAR
STARTCHAR 0038
ENCODING 56
SWIDTH 500 0
DWIDTH 25 0
BBX 23 35 1 0
BITMAP
00FF00
07EFC0
0F03F0
1F01F8
3E01F8
3E00FC
7E00FC
7E00FC
7F00FC
7F00FC
7F80F8
7FC1F0
3FF1E0
3FFF80
1FFE00
0FFF80
07FFC0
03FFE0
01FFF0
077FF8
1F3FFC
3E0FFC
7E07FE
7C03FE
FC01FE
FC01FE
FC00FE
FC00FE
FC00FE
FC00FC
7C01FC
7E01F8
3F03F0
1F87E0
07FF80
ENDCHAR
STARTCHAR 0039
ENCODING 57
SWIDTH 500 0
DWIDTH 25 0
BBX 23 35 1 0
BITMAP
01FC00
07CF80
0F07C0
1F03E0
3F03F0
3F03F8
7E01F8
7E01FC
FE01FC
FE01FC
FE01FE
FE01FE
FF01FE
FF01FE
FF01FE
FF01FE
7F01FE
7F01FE
3F81FE
1FC3FE
0FFFFC
07FBFC
0003FC
0007F8
0007F0
000FF0
000FE0
001FC0
003F80
003F00
007E00
01F800
07E000
1F8000
FC0000
ENDCHAR
STARTCHAR 003A
ENCODING 58
SWIDTH 340 0
DWIDTH 17 0
BBX 9 23 4 1
BITMAP
3E00
7F00
FF00
FF80
FF80
FF00
7F00
3C00
0000
0000
0000
0000
0000
0000
0000
3C00
7F00
FF00
FF80
FF80
FF80
7F00
7E00
ENDCHAR
STARTCHAR 003B
ENCODING 59
SWIDTH 340 0
DWIDTH 17 0
BBX 9 32 4 -8
BITMAP
3E00
7F00
FF00
FF80
FF80
FF00
7F00
3C00
0000
0000
0000
0000
0000
0000
0000
0800
7E00
FF00
FF80
FF80
FF80
FF80
7F80
0780
0380
0300
0700
0600
0C00
1800
7000
4000
ENDCHAR
STARTCHAR 003C
ENCODING 60
SWIDTH 680 0
DWIDTH 34 0
BBX 28 28 3 -1
BITMAP
00000010
00000070
000003F0
00000FF0
00003FF0
0000FFE0
0003FF80
000FFC00
003FF000
00FFC000
07FF0000
1FFC0000
7FF00000
FFC00000
FF800000
7FE00000
1FF80000
07FE0000
01FFC000
007FF000
001FFC00
0007FF00
0001FFC0
00003FF0
00000FF0
000003F0
000000F0
00000030
ENDCHAR
STARTCHAR 003D
ENCODING 61
SWIDTH 680 0
DWIDTH 34 0
BBX 28 18 3 4
BITMAP
FFFFFFF0
FFFFFFF0
FFFFFFF0
FFFFFFF0
FFFFFFF0
00000000
00000000
00000000
00000000
00000000
00000000
00000000
00000000
FFFFFFF0
FFFFFFF0
FFFFFFF0
FFFFFFF0
FFFFFFF0
ENDCHAR
STARTCHAR 003E
ENCODING 62
SWIDTH 680 0
DWIDTH 34 0
BBX 28 28 3 -1
BITMAP
C0000000
F0000000
FC000000
FF000000
FFC00000
3FF80000
0FFE0000
03FF8000
00FFE000
003FF800
0007FE00
0001FF80
00007FE0
00001FF0
00003FF0
0000FFE0
0003FF80
000FFE00
003FF000
00FFC000
03FF0000
1FFC0000
7FF00000
FFC00000
FF000000
FC000000
E0000000
80000000
ENDCHAR
STARTCHAR 003F
ENCODING 63
SWIDTH 500 0
DWIDTH 25 0
BBX 19 35 3 0
BITMAP
03F800
1FFE00
383F80
781FC0
781FC0
F80FE0
FC0FE0
FC0FE0
FC0FE0
780FE0
780FE0
000FE0
001FC0
001F80
003F00
003E00
007800
007000
00E000
00C000
00C000
00C000
00C000
000000
000000
000000
000000
01E000
07F000
0FF000
0FF800
0FF800
0FF800
07F000
03E000
ENDCHAR
STARTCHAR 0040
ENCODING 64
SWIDTH 920 0
DWIDTH 46 0
BBX 37 36 5 -1
BITMAP
0001FF0000
001FFFE000
007FC7F800
00F8007C00
01F0001F00
07C0000780
0F800003C0
0F000001C0
1F000600E0
3E003F78E0
3E00797870
7C00F0F870
7C01E0F830
7C03E0F030
F807C0F038
F807C1F038
F80F81E038
F80F81E030
F81F03E030
F81F03C070
F81F03C070
F81F07C060
F81F0FC0E0
7C1F1F81C0
7C1FF78180
3C0FE7C700
3E0783FE00
1F0001F800
1F00000000
0F80000000
07E0000000
03F0000400
00FE003E00
007FFFFC00
001FFFE000
0003FF0000
ENDCHAR
STARTCHAR 0041
ENCODING 65
SWIDTH 720 0
DWIDTH 36 0
BBX 34 35 1 0
BITMAP
0000C00000
0001C00000
0001C00000
0001E00000
0003E00000
0003F00000
0007F00000
0007F80000
0007F80000
000FF80000
000FFC0000
001BFC0000
001BFE0000
0019FE0000
0031FE0000
0030FF0000
0060FF0000
0060FF8000
00607F8000
00C07FC000
00C03FC000
01C03FC000
01801FE000
01FFFFE000
03FFFFF000
03000FF000
07000FF000
060007F800
060007F800
0E0007FC00
0C0003FC00
1C0003FE00
3C0003FE00
7F000FFF80
FFC03FFFC0
ENDCHAR
STARTCHAR 0042
ENCODING 66
SWIDTH 660 0
DWIDTH 33 0
BBX 31 34 1 0
BITMAP
FFFFF800
FFFFFF00
1FF81FC0
0FF00FE0
0FF00FF0
0FF007F8
0FF007F8
0FF007F8
0FF007F8
0FF007F8
0FF007F8
0FF007F0
0FF00FF0
0FF00FC0
0FF03F80
0FFFFC00
0FFFFF00
0FF07FC0
0FF01FF0
0FF00FF8
0FF007FC
0FF007FC
0FF003FC
0FF003FE
0FF003FE
0FF003FE
0FF003FE
0FF003FC
0FF007FC
0FF007F8
0FF00FF0
1FF81FE0
7FFFFF80
FFFFF800
ENDCHAR
STARTCHAR 0043
ENCODING 67
SWIDTH 700 0
DWIDTH 35 0
BBX 31 36 2 -1
BITMAP
0007F804
003FFF0C
00FC07FC
01F801FC
03F000FC
07E0007C
0FE0003C
1FC0003C
3FC0001C
3FC0000C
7FC0000C
7F800004
7F800000
FF800000
FF800000
FF800000
FF800000
FF800000
FF800000
FF800000
FF800000
FF800000
FF800000
7F800000
7F800000
7FC00000
3FC00000
3FC00000
1FE00006
0FE0000C
0FF0003C
07F80078
01FC01E0
00FF8FC0
003FFF00
0007FC00
ENDCHAR
STARTCHAR 0044
ENCODING 68
SWIDTH 740 0
DWIDTH 37 0
BBX 34 34 1 0
BITMAP
FFFFF00000
7FFFFF0000
1FF01FC000
0FF00FF000
0FF007F800
0FF003FC00
0FF001FE00
0FF001FE00
0FF000FF00
0FF000FF00
0FF000FF80
0FF000FF80
0FF0007F80
0FF0007F80
0FF0007FC0
0FF0007FC0
0FF0007FC0
0FF0007FC0
0FF0007FC0
0FF0007FC0
0FF0007F80
0FF0007F80
0FF0007F80
0FF000FF80
0FF000FF00
0FF000FF00
0FF000FE00
0FF001FC00
0FF001F800
0FF003F000
0FF007E000
1FF81FC000
3FFFFF0000
FFFFF00000
ENDCHAR
STARTCHAR 0045
ENCODING 69
SWIDTH 680 0
DWIDTH 34 0
BBX 31 34 1 0
BITMAP
FFFFFFF8
3FFFFFF8
1FF001F8
0FF00078
0FF00038
0FF00018
0FF00018
0FF00018
0FF00408
0FF00408
0FF00C00
0FF00C00
0FF00C00
0FF01C00
0FF07C00
0FFFFC00
0FFFFC00
0FF0FC00
0FF03C00
0FF01C00
0FF00C00
0FF00C00
0FF00400
0FF00402
0FF00006
0FF00006
0FF0000E
0FF0001C
0FF0001C
0FF0003C
0FF000FC
1FF803FC
7FFFFFFC
FFFFFFF8
ENDCHAR
STARTCHAR 0046
ENCODING 70
SWIDTH 620 0
DWIDTH 31 0
BBX 28 34 1 0
BITMAP
FFFFFFF0
3FFFFFF0
1FF003F0
0FF000F0
0FF00070
0FF00030
0FF00030
0FF00030
0FF00810
0FF00810
0FF01800
0FF01800
0FF01800
0FF03800
0FF07800
0FFFF800
0FFFF800
0FF0F800
0FF03800
0FF01800
0FF01800
0FF01800
0FF00800
0FF00800
0FF00000
0FF00000
0FF00000
0FF00000
0FF00000
0FF00000
0FF00000
1FF80000
7FFE0000
FFFF8000
ENDCHAR
STARTCHAR 0047
ENCODING 71
SWIDTH 780 0
DWIDTH 39 0
BBX 36 36 2 -1
BITMAP
0007F80200
003FFF8600
00FE03FE00
01F800FE00
03F0007E00
07E0003E00
0FE0001E00
1FC0000E00
1FC0000E00
3FC0000600
3FC0000600
7F80000200
7F80000000
7F80000000
FF80000000
FF80000000
FF80000000
FF80000000
FF80000000
FF80000000
FF80000000
FF801FFFF0
FF8003FFC0
7F8000FF80
7F8000FF00
7FC000FF00
3FC000FF00
3FC000FF00
1FE000FF00
0FE000FF00
0FF000FF00
07F000FF00
01F800FF00
00FE01FE00
003FFFF000
0007FF0000
ENDCHAR
STARTCHAR 0048
ENCODING 72
SWIDTH 780 0
DWIDTH 39 0
BBX 36 34 1 0
BITMAP
FFFF0FFFF0
7FFE07FFE0
1FF801FF80
0FF000FF00
0FF000FF00
0FF000FF00
0FF000FF00
0FF000FF00
0FF000FF00
0FF000FF00
0FF000FF00
0FF000FF00
0FF000FF00
0FF000FF00
0FF000FF00
0FF000FF00
0FFFFFFF00
0FFFFFFF00
0FF000FF00
0FF000FF00
0FF000FF00
0FF000FF00
0FF000FF00
0FF000FF00
0FF000FF00
0FF000FF00
0FF000FF00
0FF000FF00
0FF000FF00
0FF000FF00
0FF000FF00
1FF801FF80
7FFE07FFE0
FFFF0FFFF0
ENDCHAR
STARTCHAR 0049
ENCODING 73
SWIDTH 380 0
DWIDTH 19 0
BBX 16 34 2 0
BITMAP
FFFF
7FFC
1FF8
0FF0
0FF0
0FF0
0FF0
0FF0
0FF0
0FF0
0FF0
0FF0
0FF0
0FF0
0FF0
0FF0
0FF0
0FF0
0FF0
0FF0
0FF0
0FF0
0FF0
0FF0
0FF0
0FF0
0FF0
0FF0
0FF0
0FF0
0FF0
1FF8
7FFC
FFFF
ENDCHAR
STARTCHAR 004A
ENCODING 74
SWIDTH 500 0
DWIDTH 25 0
BBX 24 39 0 -5
BITMAP
01FFFF
007FFE
001FF8
000FF0
000FF0
000FF0
000FF0
000FF0
000FF0
000FF0
000FF0
000FF0
000FF0
000FF0
000FF0
000FF0
000FF0
000FF0
000FF0
000FF0
000FF0
000FF0
000FF0
000FF0
000FF0
000FF0
000FF0
000FF0
000FF0
100FF0
7C0FF0
FE0FF0
FE0FE0
FE0FE0
FC0FE0
7C0FC0
3C1F80
1FFF00
07F800
ENDCHAR
STARTCHAR 004B
ENCODING 75
SWIDTH 780 0
DWIDTH 39 0
BBX 37 34 1 0
BITMAP
FFFF0FFFE0
3FFE03FF80
1FF8007C00
0FF0007800
0FF000E000
0FF001C000
0FF0038000
0FF0070000
0FF00E0000
0FF01C0000
0FF0380000
0FF0700000
0FF0E00000
0FF1F00000
0FF3F00000
0FF7F80000
0FFFFC0000
0FFFFE0000
0FFBFF0000
0FF1FF0000
0FF1FF8000
0FF0FFC000
0FF07FE000
0FF03FF000
0FF01FF000
0FF01FF800
0FF00FFC00
0FF007FE00
0FF003FF00
0FF001FF00
0FF001FF80
1FF800FFC0
7FFE03FFE0
FFFF0FFFF8
ENDCHAR
STARTCHAR 004C
ENCODING 76
SWIDTH 660 0
DWIDTH 33 0
BBX 30 34 1 0
BITMAP
FFFF8000
3FFE0000
1FF80000
0FF00000
0FF00000
0FF00000
0FF00000
0FF00000
0FF00000
0FF00000
0FF00000
0FF00000
0FF00000
0FF00000
0FF00000
0FF00000
0FF00000
0FF00000
0FF00000
0FF00000
0FF00000
0FF00000
0FF00000
0FF00004
0FF0000C
0FF0000C
0FF0001C
0FF0001C
0FF0003C
0FF00078
0FF001F8
1FF807F8
7FFFFFF8
FFFFFFF8
ENDCHAR
STARTCHAR 004D
ENCODING 77
SWIDTH 940 0
DWIDTH 47 0
BBX 44 34 2 0
BITMAP
FFF00001FFF0
7FF80001FFE0
1FF80001FF80
0FF80003FF00
0FFC0003FF00
0DFC0006FF00
0DFE0006FF00
0DFE000CFF00
0CFF000CFF00
0CFF000CFF00
0C7F0018FF00
0C7F8018FF00
0C3F8030FF00
0C3FC030FF00
0C3FC030FF00
0C1FC060FF00
0C1FE060FF00
0C0FE0C0FF00
0C0FF0C0FF00
0C0FF0C0FF00
0C07F180FF00
0C07F980FF00
0C03FB00FF00
0C03FF00FF00
0C03FF00FF00
0C01FE00FF00
0C01FE00FF00
0C00FC00FF00
0C00FC00FF00
0C007C00FF00
0C007800FF00
1E007801FF80
7F803007FFE0
FFE0300FFFF0
ENDCHAR
STARTCHAR 004E
ENCODING 78
SWIDTH 720 0
DWIDTH 36 0
BBX 33 34 1 0
BITMAP
FFE000FF80
7FF0007F00
3FF0001E00
1FF8000C00
0FFC000C00
0FFE000C00
0FFF000C00
0FFF000C00
0DFF800C00
0CFFC00C00
0C7FE00C00
0C3FF00C00
0C3FF80C00
0C1FF80C00
0C0FFC0C00
0C07FE0C00
0C03FF0C00
0C01FF8C00
0C01FF8C00
0C00FFCC00
0C007FEC00
0C003FFC00
0C001FFC00
0C000FFC00
0C0007FC00
0C0007FC00
0C0003FC00
0C0001FC00
0C0000FC00
0C00007C00
0C00003C00
1E00003C00
7F80001C00
FFC0000C00
ENDCHAR
STARTCHAR 004F
ENCODING 79
SWIDTH 780 0
DWIDTH 39 0
BBX 35 36 2 -1
BITMAP
0007FC0000
003FFF8000
00FC07E000
01F803F000
03F001F800
07E001FC00
0FE000FE00
1FC000FF00
3FC0007F80
3FC0007F80
7FC0007F80
7F80007FC0
7F80003FC0
FF80003FC0
FF80003FE0
FF80003FE0
FF80003FE0
FF80003FE0
FF80003FE0
FF80003FE0
FF80003FE0
FF80003FE0
FF80003FC0
7F80003FC0
7F80003FC0
7F80007FC0
3FC0007F80
3FC0007F80
1FC0007F00
0FE000FE00
07E000FC00
03F001F800
01F803F000
00FC07E000
003FFF8000
0007FC0000
ENDCHAR
STARTCHAR 0050
ENCODING 80
SWIDTH 640 0
DWIDTH 32 0
BBX 30 34 1 0
BITMAP
FFFFF800
7FFFFF80
1FF03FC0
0FF00FF0
0FF00FF0
0FF007F8
0FF007F8
0FF007FC
0FF007FC
0FF007FC
0FF007FC
0FF007F8
0FF007F8
0FF00FF8
0FF00FF0
0FF01FE0
0FF07F80
0FFFFE00
0FFF8000
0FF00000
0FF00000
0FF00000
0FF00000
0FF00000
0FF00000
0FF00000
0FF00000
0FF00000
0FF00000
0FF00000
0FF00000
1FF80000
7FFE0000
FFFF0000
ENDCHAR
STARTCHAR 0051
ENCODING 81
SWIDTH 780 0
DWIDTH 39 0
BBX 35 44 2 -9
BITMAP
0007FC0000
003FFF8000
00FC07E000
01F803F000
03F001F800
07E001FC00
0FE000FE00
1FC000FF00
3FC0007F80
3FC0007F80
7FC0007F80
7F80007FC0
7F80003FC0
FF80003FC0
FF80003FE0
FF80003FE0
FF80003FE0
FF80003FE0
FF80003FE0
FF80003FE0
FF80003FE0
FF80003FE0
FF80003FC0
7F80003FC0
7F80003FC0
7F80007FC0
3FC0007F80
3FC0007F80
1FC0007F00
0FE000FE00
07E000FC00
07F001FC00
01F803F000
00FC07E000
003FFF8000
000FFC0000
000FFE0000
0007FE0000
0003FF0000
0001FF8000
0000FFE000
00007FFCC0
00001FFFC0
000007FC00
ENDCHAR
STARTCHAR 0052
ENCODING 82
SWIDTH 720 0
DWIDTH 36 0
BBX 35 34 1 0
BITMAP
FFFFFC0000
7FFFFF8000
1FF81FE000
0FF00FF000
0FF007F800
0FF007FC00
0FF003FC00
0FF003FE00
0FF003FE00
0FF003FE00
0FF003FE00
0FF003FC00
0FF003FC00
0FF007FC00
0FF007F800
0FF00FF000
0FF07FC000
0FFFFF0000
0FFFFE0000
0FF3FF0000
0FF1FF8000
0FF0FF8000
0FF0FFC000
0FF07FE000
0FF03FF000
0FF03FF000
0FF01FF800
0FF00FFC00
0FF007FC00
0FF007FE00
0FF003FF00
1FF801FF80
7FFE00FFC0
FFFF00FFE0
ENDCHAR
STARTCHAR 0053
ENCODING 83
SWIDTH 560 0
DWIDTH 28 0
BBX 23 36 3 -1
BITMAP
01FC08
07FF98
1F03F8
3E00F8
7C0078
7C0038
7C0038
FC0018
FC0018
FE0008
FF0008
FF8000
FFE000
7FF800
7FFC00
3FFF00
1FFFC0
0FFFE0
07FFF0
03FFF8
00FFFC
003FFC
000FFC
0003FE
8001FE
C000FE
C0007E
C0007E
E0007C
E0007C
F0007C
F800F8
FC00F0
FE03E0
EFFFC0
C1FE00
ENDCHAR
STARTCHAR 0054
ENCODING 84
SWIDTH 640 0
DWIDTH 32 0
BBX 30 34 1 0
BITMAP
FFFFFFFC
FFFFFFFC
FC1FE0FC
F01FE03C
E01FE01C
E01FE00C
C01FE00C
C01FE00C
C01FE004
801FE004
001FE000
001FE000
001FE000
001FE000
001FE000
001FE000
001FE000
001FE000
001FE000
001FE000
001FE000
001FE000
001FE000
001FE000
001FE000
001FE000
001FE000
001FE000
001FE000
001FE000
001FE000
003FF000
00FFFC00
01FFFE00
ENDCHAR
STARTCHAR 0055
ENCODING 85
SWIDTH 720 0
DWIDTH 36 0
BBX 33 35 1 -1
BITMAP
FFFF00FF80
7FFC007F00
1FF8001E00
0FF0000C00
0FF0000C00
0FF0000C00
0FF0000C00
0FF0000C00
0FF0000C00
0FF0000C00
0FF0000C00
0FF0000C00
0FF0000C00
0FF0000C00
0FF0000C00
0FF0000C00
0FF0000C00
0FF0000C00
0FF0000C00
0FF0000C00
0FF0000C00
0FF0000C00
0FF0000C00
0FF0000C00
0FF0000C00
0FF0000C00
0FF0001C00
07F8001800
07F8001800
07F8003800
03FC007000
01FE00E000
00FFC7C000
003FFF8000
0007FC0000
ENDCHAR
STARTCHAR 0056
ENCODING 86
SWIDTH 700 0
DWIDTH 35 0
BBX 34 35 1 -1
BITMAP
FFFF01FFC0
7FFC007F80
3FF0001E00
1FF0001C00
0FF0001C00
0FF8001800
0FF8001800
07F8003000
07FC003000
03FC007000
03FE006000
01FE006000
01FF00C000
01FF00C000
00FF01C000
00FF818000
007F818000
007FC38000
003FC30000
003FC30000
003FE60000
001FE60000
001FFE0000
000FFC0000
000FFC0000
0007F80000
0007F80000
0007F80000
0003F00000
0003F00000
0001E00000
0001E00000
0000E00000
0000C00000
0000C00000
ENDCHAR
STARTCHAR 0057
ENCODING 87
SWIDTH 980 0
DWIDTH 49 0
BBX 48 35 1 -1
BITMAP
FFFC3FFFC3FF
7FF80FFF00FE
3FE007FC0038
1FE003FC0038
1FE003FC0030
1FF001FE0030
0FF001FE0070
0FF001FE0060
07F801FF0060
07F801FF00E0
07F803FF00C0
03FC037F00C0
03FC037F81C0
03FC067F8180
01FE063F8180
01FE0E3FC380
01FE0C3FC300
00FF0C1FC300
00FF181FE700
00FF180FE600
007F980FE600
007FB00FFE00
007FB007FC00
003FE007FC00
003FE007FC00
003FE003F800
001FC003F800
001FC003F800
001FC001F000
000F8001F000
000F8001F000
00070000E000
00070000E000
00070000E000
000200004000
ENDCHAR
STARTCHAR 0058
ENCODING 88
SWIDTH 720 0
DWIDTH 36 0
BBX 34 34 1 0
BITMAP
FFFF87FFC0
7FFE01FF00
1FF8007C00
0FFC007000
0FFC00E000
07FE00E000
03FE01C000
03FF038000
01FF830000
00FF870000
00FFCE0000
007FCC0000
003FF80000
003FF80000
001FF00000
000FF80000
000FFC0000
0007FC0000
0003FE0000
0007FF0000
0007FF0000
000CFF8000
0018FFC000
00387FC000
00703FE000
00603FE000
00E01FF000
01C01FF800
03800FF800
038007FC00
070007FE00
0F8007FF00
7FE01FFF80
FFF87FFFC0
ENDCHAR
STARTCHAR 0059
ENCODING 89
SWIDTH 700 0
DWIDTH 35 0
BBX 34 34 1 0
BITMAP
FFFF81FFC0
7FFC007F80
1FF8001E00
1FF8001C00
0FF8001C00
07FC001800
07FC003800
03FE003000
03FE006000
01FF00E000
01FF00C000
00FF81C000
00FF818000
007FC30000
003FC70000
003FE60000
001FEE0000
001FFC0000
000FF80000
000FF80000
0007F80000
0007F80000
0007F80000
0007F80000
0007F80000
0007F80000
0007F80000
0007F80000
0007F80000
0007F80000
0007F80000
000FFC0000
003FFF0000
007FFF8000
ENDCHAR
STARTCHAR 005A
ENCODING 90
SWIDTH 640 0
DWIDTH 32 0
BBX 30 34 1 0
BITMAP
1FFFFFF8
3FFFFFF0
3F801FF0
3E003FE0
3C007FE0
38007FC0
3000FF80
3000FF80
3001FF00
2003FF00
0003FE00
0007FC00
0007FC00
000FF800
001FF800
001FF000
003FE000
003FE000
007FC000
00FFC000
00FF8000
01FF0000
03FF0004
03FE000C
07FE000C
07FC000C
0FF8001C
1FF8001C
1FF0003C
3FF00078
3FE000F8
7FC003F8
FFFFFFF8
FFFFFFF8
ENDCHAR
STARTCHAR 005B
ENCODING 91
SWIDTH 340 0
DWIDTH 17 0
BBX 11 42 3 -7
BITMAP
FFE0
FFE0
FC00
F800
F800
F800
F800
F800
F800
F800
F800
F800
F800
F800
F800
F800
F800
F800
F800
F800
F800
F800
F800
F800
F800
F800
F800
F800
F800
F800
F800
F800
F800
F800
F800
F800
F800
F800
F800
F800
FFE0
FFE0
ENDCHAR
STARTCHAR 005C
ENCODING 92
SWIDTH 280 0
DWIDTH 14 0
BBX 16 35 -1 0
BITMAP
F800
7800
7800
7C00
7C00
3C00
3E00
3E00
1E00
1F00
1F00
0F00
0F80
0F80
0780
07C0
07C0
03C0
03E0
03E0
01E0
01F0
01F0
00F0
00F8
00F8
0078
007C
007C
003C
003E
003E
001E
001F
001F
ENDCHAR
STARTCHAR 005D
ENCODING 93
SWIDTH 340 0
DWIDTH 17 0
BBX 11 42 2 -7
BITMAP
FFE0
FFE0
07E0
03E0
03E0
03E0
03E0
03E0
03E0
03E0
03E0
03E0
03E0
03E0
03E0
03E0
03E0
03E0
03E0
03E0
03E0
03E0
03E0
03E0
03E0
03E0
03E0
03E0
03E0
03E0
03E0
03E0
03E0
03E0
03E0
03E0
03E0
03E0
03E0
03E0
FFE0
FFE0
ENDCHAR
STARTCHAR 005E
ENCODING 94
SWIDTH 580 0
DWIDTH 29 0
BBX 21 18 4 16
BITMAP
00F800
00F800
01FC00
01FC00
03FE00
03DE00
07DF00
078F00
0F8F80
0F0780
1F07C0
1E03C0
3E03E0
3C01E0
7C01F0
7800F0
F800F8
F00078
ENDCHAR
STARTCHAR 005F
ENCODING 95
SWIDTH 500 0
DWIDTH 25 0
BBX 25 4 0 -8
BITMAP
FFFFFF80
FFFFFF80
FFFFFF80
FFFFFF80
ENDCHAR
STARTCHAR 0060
ENCODING 96
SWIDTH 340 0
DWIDTH 17 0
BBX 11 9 0 26
BITMAP
7000
F800
FC00
7E00
3F00
1F80
07C0
01E0
00E0
ENDCHAR
STARTCHAR 0061
ENCODING 97
SWIDTH 500 0
DWIDTH 25 0
BBX 24 23 1 1
BITMAP
07FF80
1F0FC0
3C07F0
3C03F0
7E03F8
7E03F8
7E03F8
7E03F8
3C03F8
000FF8
007FF8
03E3F8
0FC3F8
3F83F8
7F03F8
7F03F8
FE03F8
FE03F8
FF07F8
FF8FF8
FFFBFF
7FF1FE
3FC1FC
ENDCHAR
STARTCHAR 0062
ENCODING 98
SWIDTH 540 0
DWIDTH 27 0
BBX 24 34 2 0
BITMAP
FF8000
7F8000
3F8000
3F8000
3F8000
3F8000
3F8000
3F8000
3F8000
3F8000
3F8000
3F9FE0
3FBFF8
3FE3FC
3FC1FC
3F80FE
3F80FE
3F80FF
3F807F
3F807F
3F807F
3F807F
3F807F
3F807F
3F807F
3F807F
3F807F
3F807E
3F80FE
3F80FC
3F80FC
3FC1F8
38E3F0
307FC0
ENDCHAR
STARTCHAR 0063
ENCODING 99
SWIDTH 440 0
DWIDTH 22 0
BBX 21 23 1 1
BITMAP
01FF80
07C7C0
0F83E0
1F03F0
3F03F0
3E03F0
7E03F0
7E01E0
FE0000
FE0000
FE0000
FE0000
FE0000
FE0000
FF0000
FF0000
7F8000
7F8000
3FC018
3FF070
1FFFE0
07FF80
03FF00
ENDCHAR
STARTCHAR 0064
ENCODING 100
SWIDTH 560 0
DWIDTH 28 0
BBX 26 34 1 0
BITMAP
0007FE00
0001FE00
0000FE00
0000FE00
0000FE00
0000FE00
0000FE00
0000FE00
0000FE00
0000FE00
0000FE00
03F8FE00
0FFEFE00
1FE7FE00
3F81FE00
3F80FE00
7F00FE00
7F00FE00
7F00FE00
FF00FE00
FE00FE00
FE00FE00
FE00FE00
FE00FE00
FE00FE00
FF00FE00
FF00FE00
7F00FE00
7F00FE00
7F01FE00
3F83FE00
1FC7FF80
0FFEFFC0
07F8F800
ENDCHAR
STARTCHAR 0065
ENCODING 101
SWIDTH 440 0
DWIDTH 22 0
BBX 20 23 1 1
BITMAP
03FE00
0F8F00
1F0780
3E07C0
3E07C0
7E07E0
7E07E0
FE07E0
FE07E0
FFFFE0
FFFFF0
FE0000
FE0000
FE0000
FE0000
FF0000
7F0000
7F8030
3F8060
3FE1C0
1FFF80
0FFF00
03FE00
ENDCHAR
STARTCHAR 0066
ENCODING 102
SWIDTH 400 0
DWIDTH 20 0
BBX 18 35 2 0
BITMAP
01FC00
07FF00
0FC780
1F87C0
1F8FC0
1F8FC0
3F8F80
3F8300
3F8000
3F8000
3F8000
3F8000
FFF800
FFF800
3F8000
3F8000
3F8000
3F8000
3F8000
3F8000
3F8000
3F8000
3F8000
3F8000
3F8000
3F8000
3F8000
3F8000
3F8000
3F8000
3F8000
3F8000
3F8000
7FE000
FFF800
ENDCHAR
STARTCHAR 0067
ENCODING 103
SWIDTH 500 0
DWIDTH 25 0
BBX 22 33 2 -9
BITMAP
07FC00
1F9FFC
3F0FFC
7E07FC
7E07E0
FE07E0
FE07F0
FE07F0
FE07F0
FE07F0
7E07F0
7E07E0
3F0FC0
0F9F80
03FE00
060000
1C0000
3C0000
7C0000
7E0000
FFFF80
FFFFF0
FFFFF8
7FFFF8
1FFFFC
0FFFFC
78007C
F8003C
F0003C
F80038
F80070
7E03E0
1FFF80
ENDCHAR
STARTCHAR 0068
ENCODING 104
SWIDTH 560 0
DWIDTH 28 0
BBX 24 34 2 0
BITMAP
FF8000
7F8000
3F8000
3F8000
3F8000
3F8000
3F8000
3F8000
3F8000
3F8000
3F8000
3F8FE0
3F9FF0
3FBFF8
3FE3F8
3FC1FC
3F81FC
3F81FC
3F81FC
3F81FC
3F81FC
3F81FC
3F81FC
3F81FC
3F81FC
3F81FC
3F81FC
3F81FC
3F81FC
3F81FC
3F81FC
3F81FC
7FC3FE
FFE7FF
ENDCHAR
STARTCHAR 0069
ENCODING 105
SWIDTH 300 0
DWIDTH 15 0
BBX 11 35 2 0
BITMAP
1E00
3F00
7F80
7F80
7F80
7F80
3F00
0E00
0000
0000
0000
0000
FF80
7F80
3F80
3F80
3F80
3F80
3F80
3F80
3F80
3F80
3F80
3F80
3F80
3F80
3F80
3F80
3F80
3F80
3F80
3F80
3F80
7FC0
FFE0
ENDCHAR
STARTCHAR 006A
ENCODING 106
SWIDTH 400 0
DWIDTH 20 0
BBX 16 45 0 -10
BITMAP
003C
007E
00FF
00FF
00FF
00FF
007E
001C
0000
0000
0000
0000
03FF
00FF
007F
007F
007F
007F
007F
007F
007F
007F
007F
007F
007F
007F
007F
007F
007F
007F
007F
007F
007F
007F
007F
007F
007F
307F
787F
FC7E
FC7E
F87C
78FC
3FF8
0FC0
ENDCHAR
STARTCHAR 006B
ENCODING 107
SWIDTH 560 0
DWIDTH 28 0
BBX 26 34 2 0
BITMAP
FF800000
7F800000
3F800000
3F800000
3F800000
3F800000
3F800000
3F800000
3F800000
3F800000
3F800000
3F87FF00
3F81FE00
3F80F000
3F80E000
3F81C000
3F838000
3F870000
3F8E0000
3F9E0000
3FBF0000
3FFF8000
3FFFC000
3FDFC000
3F9FE000
3F8FF000
3F87F000
3F87F800
3F83FC00
3F81FE00
3F81FE00
3F80FF00
7FC0FF80
FFE3FFC0
ENDCHAR
STARTCHAR 006C
ENCODING 108
SWIDTH 280 0
DWIDTH 14 0
BBX 11 34 2 0
BITMAP
FF80
7F80
3F80
3F80
3F80
3F80
3F80
3F80
3F80
3F80
3F80
3F80
3F80
3F80
3F80
3F80
3F80
3F80
3F80
3F80
3F80
3F80
3F80
3F80
3F80
3F80
3F80
3F80
3F80
3F80
3F80
3F80
7FC0
FFE0
ENDCHAR
STARTCHAR 006D
ENCODING 109
SWIDTH 840 0
DWIDTH 42 0
BBX 38 23 2 1
BITMAP
FF8FE07F80
7F9FF0FFC0
3FBFF9FFE0
3FE3FF0FE0
3FC1FE07F0
3F81FC07F0
3F81FC07F0
3F81FC07F0
3F81FC07F0
3F81FC07F0
3F81FC07F0
3F81FC07F0
3F81FC07F0
3F81FC07F0
3F81FC07F0
3F81FC07F0
3F81FC07F0
3F81FC07F0
3F81FC07F0
3F81FC07F0
3F81FC07F0
7FC3FE0FF8
FFE7FF1FFC
ENDCHAR
STARTCHAR 006E
ENCODING 110
SWIDTH 560 0
DWIDTH 28 0
BBX 24 23 2 1
BITMAP
FF8FE0
7F9FF0
3FBFF8
3FE3F8
3FC1FC
3F81FC
3F81FC
3F81FC
3F81FC
3F81FC
3F81FC
3F81FC
3F81FC
3F81FC
3F81FC
3F81FC
3F81FC
3F81FC
3F81FC
3F81FC
3F81FC
7FC3FE
FFE7FF
ENDCHAR
STARTCHAR 006F
ENCODING 111
SWIDTH 500 0
DWIDTH 25 0
BBX 22 23 1 1
BITMAP
01FF00
07C7C0
0F83E0
1F03F0
3F03F0
7F01F8
7F01F8
7F01FC
FE01FC
FE01FC
FE01FC
FE01FC
FE01FC
FE01FC
FE01FC
7E01FC
7F01FC
7F01F8
3F03F0
1F03F0
0F83E0
07C7C0
03FF00
ENDCHAR
STARTCHAR 0070
ENCODING 112
SWIDTH 540 0
DWIDTH 27 0
BBX 25 33 1 -9
BITMAP
FFCFF000
7FDFFC00
1FF9FE00
1FE0FE00
1FE07F00
1FC07F00
1FC03F80
1FC03F80
1FC03F80
1FC03F80
1FC03F80
1FC03F80
1FC03F80
1FC03F80
1FC03F80
1FC03F80
1FC03F80
1FC07F00
1FC07F00
1FE0FE00
1FF1FC00
1FDFF800
1FCFF000
1FC00000
1FC00000
1FC00000
1FC00000
1FC00000
1FC00000
1FC00000
1FC00000
1FE00000
7FF80000
ENDCHAR
STARTCHAR 0071
ENCODING 113
SWIDTH 540 0
DWIDTH 27 0
BBX 25 33 1 -9
BITMAP
01FF0600
07E38E00
0F81FE00
1F80FE00
3F00FE00
7F00FE00
7F00FE00
7F00FE00
FF00FE00
FE00FE00
FE00FE00
FE00FE00
FE00FE00
FE00FE00
FF00FE00
FF00FE00
7F00FE00
7F00FE00
7F80FE00
3F81FE00
1FE3FE00
0FFEFE00
07F8FE00
0000FE00
0000FE00
0000FE00
0000FE00
0000FE00
0000FE00
0000FE00
0000FE00
0001FE00
0007FF80
ENDCHAR
STARTCHAR 0072
ENCODING 114
SWIDTH 420 0
DWIDTH 21 0
BBX 20 23 2 1
BITMAP
FF8FC0
7F9FE0
3FBFF0
3FFFF0
3FC7E0
3FC1C0
3F8000
3F8000
3F8000
3F8000
3F8000
3F8000
3F8000
3F8000
3F8000
3F8000
3F8000
3F8000
3F8000
3F8000
3F8000
7FC000
FFF000
ENDCHAR
STARTCHAR 0073
ENCODING 115
SWIDTH 400 0
DWIDTH 20 0
BBX 17 23 2 1
BITMAP
0FFB00
3E3F00
780F00
780700
F80300
F80300
FC0100
FF0000
FFC000
7FF000
7FFC00
3FFE00
1FFF00
07FF00
01FF80
807F80
C01F80
C00F80
C00F00
E00F00
F01E00
FC3E00
CFF800
ENDCHAR
STARTCHAR 0074
ENCODING 116
SWIDTH 340 0
DWIDTH 17 0
BBX 15 31 2 0
BITMAP
0180
0180
0380
0780
0F80
1F80
1F80
3F80
FFF8
FFF8
3F80
3F80
3F80
3F80
3F80
3F80
3F80
3F80
3F80
3F80
3F80
3F80
3F80
3F80
3F80
3F80
3F86
3FCC
3FF8
1FF8
0FE0
ENDCHAR
STARTCHAR 0075
ENCODING 117
SWIDTH 560 0
DWIDTH 28 0
BBX 25 23 2 0
BITMAP
FF8FFC00
7F83FC00
3F81FC00
3F81FC00
3F81FC00
3F81FC00
3F81FC00
3F81FC00
3F81FC00
3F81FC00
3F81FC00
3F81FC00
3F81FC00
3F81FC00
3F81FC00
3F81FC00
3F81FC00
3F81FC00
3F81FC00
3FC7FC00
1FFFFE00
0FFDFF80
07F1F800
ENDCHAR
STARTCHAR 0076
ENCODING 118
SWIDTH 480 0
DWIDTH 24 0
BBX 24 23 0 0
BITMAP
FFF8FF
3FE03C
3FC018
1FE018
1FE038
0FE030
0FF030
07F060
07F860
03F840
03F8C0
01FCC0
01FD80
01FD80
00FF00
00FF00
007F00
007E00
007E00
003C00
003C00
001C00
001800
ENDCHAR
STARTCHAR 0077
ENCODING 119
SWIDTH 700 0
DWIDTH 35 0
BBX 35 23 0 0
BITMAP
FFF3FFCFE0
7FE1FF07C0
3FC0FE0380
1FC07E0300
1FC07F0300
1FC07F0200
0FE07F0600
0FE0FF8600
07F0FF8C00
07F0DF8C00
07F19F8800
03F99FD800
03FB0FD800
01FF0FF000
01FF0FF000
01FE07F000
00FE07E000
00FC07E000
007C03C000
007C03C000
007803C000
0038018000
0030018000
ENDCHAR
STARTCHAR 0078
ENCODING 120
SWIDTH 500 0
DWIDTH 25 0
BBX 24 23 1 0
BITMAP
FFF1FE
7FE07C
3FC070
1FE060
1FE0E0
0FF1C0
07F980
07FB00
03FE00
01FE00
01FE00
00FF00
007F80
00FF80
00FFC0
019FE0
031FE0
070FF0
0607F8
0C07F8
1C03FC
7E07FE
FF1FFF
ENDCHAR
STARTCHAR 0079
ENCODING 121
SWIDTH 480 0
DWIDTH 24 0
BBX 23 33 0 -10
BITMAP
FFF1FE
7FC078
3F8030
3FC030
1FC070
1FC060
0FE060
0FE0C0
07E0C0
07F0C0
07F180
03F980
03F980
01FB00
01FF00
01FE00
00FE00
00FE00
007C00
007C00
007C00
003800
003800
001000
001000
003000
002000
782000
FC6000
FCC000
FDC000
FF8000
7F0000
ENDCHAR
STARTCHAR 007A
ENCODING 122
SWIDTH 440 0
DWIDTH 22 0
BBX 20 23 1 0
BITMAP
7FFFF0
7FFFF0
781FE0
701FE0
603FC0
603FC0
407F80
00FF00
00FF00
01FE00
01FE00
03FC00
03F800
07F800
0FF000
0FF010
1FE030
1FE030
3FC070
7F80F0
7F81F0
FFFFE0
FFFFE0
ENDCHAR
STARTCHAR 007B
ENCODING 123
SWIDTH 400 0
DWIDTH 20 0
BBX 14 44 2 -8
BITMAP
01FC
03F0
07C0
0FC0
0F80
0F80
0F80
0F80
0F80
0F80
0F80
0F80
0F80
0F80
0F80
0F80
0F80
0F80
0F80
1F00
3E00
F000
7C00
1F00
1F80
0F80
0F80
0F80
0F80
0F80
0F80
0F80
0F80
0F80
0F80
0F80
0F80
0F80
0F80
0FC0
07C0
07E0
03F8
007C
ENDCHAR
STARTCHAR 007C
ENCODING 124
SWIDTH 220 0
DWIDTH 11 0
BBX 4 35 3 0
BITMAP
F0
F0
F0
F0
F0
F0
F0
F0
F0
F0
F0
F0
F0
F0
F0
F0
F0
F0
F0
F0
F0
F0
F0
F0
F0
F0
F0
F0
F0
F0
F0
F0
F0
F0
F0
ENDCHAR
STARTCHAR 007D
ENCODING 125
SWIDTH 400 0
DWIDTH 20 0
BBX 15 44 3 -8
BITMAP
FE00
1F00
0F80
0FC0
07C0
07C0
07C0
07C0
07C0
07C0
07C0
07C0
07C0
07C0
07C0
07C0
07C0
07C0
07E0
03E0
01F0
003E
00F8
03F0
03E0
07C0
07C0
07C0
07C0
07C0
07C0
07C0
07C0
07C0
07C0
07C0
07C0
07C0
07C0
07C0
0FC0
1F80
3F00
F800
ENDCHAR
STARTCHAR 007E
ENCODING 126
SWIDTH 520 0
DWIDTH 26 0
BBX 22 7 2 9
BITMAP
3F8000
7FF018
FFFC3C
FFFFFC
F0FFFC
601FF8
0007E0
ENDCHAR
STARTCHAR 00A0
ENCODING 160
SWIDTH 260 0
DWIDTH 13 0
BBX 0 0 0 0
BITMAP
ENDCHAR
STARTCHAR 00A1
ENCODING 161
SWIDTH 340 0
DWIDTH 17 0
BBX 9 35 4 -10
BITMAP
3E00
7F00
FF80
FF80
FF80
7F80
7F00
3C00
0000
0000
0000
0000
1800
1800
1800
1800
1C00
1C00
1C00
1C00
3C00
3E00
3E00
3E00
7F00
7F00
7F00
7F80
FF80
FF80
FF80
FF80
7F80
7F00
3E00
ENDCHAR
STARTCHAR 00A2
ENCODING 162
SWIDTH 500 0
DWIDTH 25 0
BBX 20 36 3 -7
BITMAP
0000E0
0000C0
0000C0
000180
000180
000180
01FF00
07CFC0
0F87E0
1F07E0
3F07E0
7E07E0
7E0FE0
7E0FC0
FE1C00
FE1800
FE1800
FE3000
FE3000
FE3000
FF6000
FF6000
7FE000
7FC000
3FC030
3FE060
1FFFC0
0FFF80
03FE00
030000
030000
060000
060000
060000
0C0000
0C0000
ENDCHAR
STARTCHAR 00A3
ENCODING 163
SWIDTH 500 0
DWIDTH 25 0
BBX 23 34 1 1
BITMAP
007FE0
01E3F0
03C1F8
03C1FC
07C1FC
07C1FC
0FC1FC
0FC0F8
0FC000
0FE000
0FE000
0FE000
0FE000
0FE000
07F000
7FFF80
7FFF80
7FFF80
07F000
03F000
03F000
03F000
03F000
01F000
01F000
01E006
3FE006
7FF00E
E3FFFC
C1FFFC
C1FFFC
C3BFF8
E71FF8
7E0FE0
ENDCHAR
STARTCHAR 00A4
ENCODING 164
SWIDTH 500 0
DWIDTH 25 0
BBX 27 28 -1 3
BITMAP
00000080
300001C0
780003E0
FC0407E0
7E7FEFC0
3FFFFF80
1FFFFF00
0FFFFE00
07C07E00
0F803E00
0F001F00
1F001F00
1F000F00
1E000F00
1E000F00
1F000F00
1F000F00
1F001F00
0F801F00
0FC03E00
07F0FE00
0FFFFF00
1FFFFF80
3EFFEFC0
7C3F87E0
F80003E0
700001C0
20000080
ENDCHAR
STARTCHAR 00A5
ENCODING 165
SWIDTH 500 0
DWIDTH 25 0
BBX 30 34 -3 0
BITMAP
FFFE0FFC
7FF803F8
1FE001E0
0FE000E0
07E001C0
07F001C0
03F00180
03F80380
01F80300
01FC0700
00FC0600
00FE0E00
007E0C00
007F1C00
007F1800
003FB800
003FF000
03FFFF80
03FFFF80
000FE000
000FE000
000FE000
000FE000
03FFFF80
03FFFF80
000FE000
000FE000
000FE000
000FE000
000FE000
000FE000
001FF000
007FFC00
01FFFE00
ENDCHAR
STARTCHAR 00A6
ENCODING 166
SWIDTH 220 0
DWIDTH 11 0
BBX 4 36 3 -1
BITMAP
F0
F0
F0
F0
F0
F0
F0
F0
F0
F0
F0
F0
F0
F0
00
00
00
00
00
00
00
00
F0
F0
F0
F0
F0
F0
F0
F0
F0
F0
F0
F0
F0
F0
ENDCHAR
STARTCHAR 00A7
ENCODING 167
SWIDTH 500 0
DWIDTH 25 0
BBX 19 42 3 -7
BITMAP
01F800
070E00
1E0700
1C0F80
3C1F80
3C1F80
3C1F80
3E0F00
3F0000
1FC000
0FE000
07F000
03FC00
01FE00
1FFE00
38FF00
707F80
F01FC0
F00FC0
F007C0
F003E0
F803E0
FC01E0
7E01E0
7F81E0
3FC1C0
1FE380
0FFF00
07F800
03FC00
01FE00
007F00
003F80
001F80
1E0F80
3E0780
3F0780
3E0780
3E0700
1C0F00
0E1E00
03F800
ENDCHAR
STARTCHAR 00A8
ENCODING 168
SWIDTH 340 0
DWIDTH 17 0
BBX 16 6 0 27
BITMAP
781E
FC3F
FC3F
FC3F
F83E
781E
ENDCHAR
STARTCHAR 00A9
ENCODING 169
SWIDTH 740 0
DWIDTH 37 0
BBX 36 36 1 -1
BITMAP
0007FC0000
003FFF8000
007FFFE000
01F803F000
03E000FC00
07C0007E00
0F80001E00
1F00000F00
1E01FE0780
3C0F878780
381E0383C0
783E0183C0
787C0081E0
707C0001E0
F0F80000E0
F0F80000E0
F0F80000E0
F0F80000F0
F0F80000F0
F0F80000F0
F0F80000E0
F0F80000E0
F07C0001E0
707C00C1E0
783E00C1E0
781E0183C0
3C0F8783C0
3C01FE0780
1E00000F00
0F00001F00
0780003E00
03E000FC00
01F803F800
00FFFFE000
003FFF8000
0007FC0000
ENDCHAR
STARTCHAR 00AA
ENCODING 170
SWIDTH 300 0
DWIDTH 15 0
BBX 15 22 0 13
BITMAP
0FE0
38F8
7878
787C
787C
007C
01FC
0F7C
3C7C
787C
F87C
F87C
FCFC
7F7E
3E3C
0000
0000
0000
7FFC
7FFC
7FFC
7FFC
ENDCHAR
STARTCHAR 00AB
ENCODING 171
SWIDTH 500 0
DWIDTH 25 0
BBX 23 19 1 2
BITMAP
001804
00380C
00701C
00F078
03E0F8
07C1F0
0F83E0
1F8FC0
7F1FC0
FE3F80
7F1F80
3F0FC0
0F87E0
07C1F0
03E0F0
01E078
00703C
00380C
001806
ENDCHAR
STARTCHAR 00AC
ENCODING 172
SWIDTH 680 0
DWIDTH 34 0
BBX 28 15 3 3
BITMAP
FFFFFFF0
FFFFFFF0
FFFFFFF0
FFFFFFF0
FFFFFFF0
000001F0
000001F0
000001F0
000001F0
000001F0
000001F0
000001F0
000001F0
000001F0
000001F0
ENDCHAR
STARTCHAR 00AD
ENCODING 173
SWIDTH 340 0
DWIDTH 17 0
BBX 12 6 2 9
BITMAP
FFF0
FFF0
FFF0
FFF0
FFF0
FFF0
ENDCHAR
STARTCHAR 00AE
ENCODING 174
SWIDTH 740 0
DWIDTH 37 0
BBX 36 36 1 -1
BITMAP
0007FC0000
003FFF8000
007FFFE000
01FC03F000
03E000FC00
07C0007E00
0F80001E00
1F00000F00
1E3FFC0780
3C0F1E0780
3C0F0F03C0
780F0F03C0
780F0F01E0
700F0F01E0
F00F0F00E0
F00F0F00E0
F00F1E00E0
F00F1C00F0
F00FF000F0
F00F3800F0
F00F3C00E0
F00F1E00E0
F00F1E01E0
700F0F01E0
780F0781E0
780F07C3C0
3C3FC3E3C0
3C00000780
1E00000F00
0F00001F00
0780003E00
03E000FC00
01F803F800
00FFFFE000
003FFF8000
0007FC0000
ENDCHAR
STARTCHAR 00AF
ENCODING 175
SWIDTH 340 0
DWIDTH 17 0
BBX 17 4 0 28
BITMAP
FFFF80
FFFF80
FFFF80
FFFF80
ENDCHAR
STARTCHAR 00B0
ENCODING 176
SWIDTH 400 0
DWIDTH 20 0
BBX 14 15 3 20
BITMAP
0FC0
1FE0
3030
6018
6018
C00C
C00C
C00C
C00C
C00C
601C
6018
3030
1FE0
0FC0
ENDCHAR
STARTCHAR 00B1
ENCODING 177
SWIDTH 680 0
DWIDTH 34 0
BBX 27 29 4 -2
BITMAP
001F0000
001F0000
001F0000
001F0000
001F0000
001F0000
001F0000
001F0000
001F0000
FFFFFFE0
FFFFFFE0
FFFFFFE0
FFFFFFE0
FFFFFFE0
001F0000
001F0000
001F0000
001F0000
001F0000
001F0000
001F0000
001F0000
001F0000
00000000
FFFFFFE0
FFFFFFE0
FFFFFFE0
FFFFFFE0
FFFFFFE0
ENDCHAR
STARTCHAR 00B2
ENCODING 178
SWIDTH 300 0
DWIDTH 15 0
BBX 15 20 0 20
BITMAP
0FE0
1FF0
3FF8
61F8
40F8
C078
0078
0078
0078
00F0
00E0
01C0
0380
0300
0602
0C04
187C
3FFC
7FFC
FFF8
ENDCHAR
STARTCHAR 00B3
ENCODING 179
SWIDTH 300 0
DWIDTH 15 0
BBX 15 21 0 19
BITMAP
07F0
1FF8
30FC
607C
007C
0078
0078
00E0
01F0
07F8
01FC
007E
003E
003E
001E
001C
201C
F818
FC30
FFE0
3F80
ENDCHAR
STARTCHAR 00B4
ENCODING 180
SWIDTH 340 0
DWIDTH 17 0
BBX 12 9 4 26
BITMAP
00E0
01F0
03F0
07E0
0FC0
1F00
3E00
7800
F000
ENDCHAR
STARTCHAR 00B5
ENCODING 181
SWIDTH 560 0
DWIDTH 28 0
BBX 26 33 1 -10
BITMAP
3F80FE00
3F80FE00
3F80FE00
3F80FE00
3F80FE00
3F80FE00
3F80FE00
3F80FE00
3F80FE00
3F80FE00
3F80FE00
3F80FE00
3F80FE00
3F80FE00
3F80FE00
3F80FE00
3F80FE00
3F80FE00
3FC1FE00
3FFFFF00
3FFFFFC0
3FFEFFC0
3BFC7F00
78000000
78000000
78000000
78000000
FC000000
FC000000
FC000000
FC000000
FC000000
78000000
ENDCHAR
STARTCHAR 00B6
ENCODING 182
SWIDTH 540 0
DWIDTH 27 0
BBX 25 43 0 -9
BITMAP
03FFFF80
0FBE7E00
3E3E7C00
3C3E7C00
783E7C00
783E7C00
F83E7C00
F83E7C00
F83E7C00
F83E7C00
F83E7C00
F83E7C00
F83E7C00
F83E7C00
783E7C00
7C3E7C00
3C3E7C00
3E3E7C00
1F3E7C00
07FE7C00
003E7C00
003E7C00
003E7C00
003E7C00
003E7C00
003E7C00
003E7C00
003E7C00
003E7C00
003E7C00
003E7C00
003E7C00
003E7C00
003E7C00
003E7C00
003E7C00
003E7C00
003E7C00
003E7C00
003E7C00
003E7C00
00FE7E00
03FE7F80
ENDCHAR
STARTCHAR 00B7
ENCODING 183
SWIDTH 240 0
DWIDTH 12 0
BBX 6 6 3 9
BITMAP
78
FC
FC
FC
F8
78
ENDCHAR
STARTCHAR 00B8
ENCODING 184
SWIDTH 340 0
DWIDTH 17 0
BBX 11 11 4 -11
BITMAP
0C00
1800
1800
3F80
3FC0
07E0
03E0
03E0
87C0
FF80
7E00
ENDCHAR
STARTCHAR 00B9
ENCODING 185
SWIDTH 260 0
DWIDTH 13 0
BBX 12 20 1 20
BITMAP
0180
0780
3F80
7F80
0F80
0F80
0F80
0F80
0F80
0F80
0F80
0F80
0F80
0F80
0F80
0F80
0F80
0F80
1F80
FFF0
ENDCHAR
STARTCHAR 00BA
ENCODING 186
SWIDTH 320 0
DWIDTH 16 0
BBX 15 22 1 13
BITMAP
07C0
1C70
3878
783C
783C
F83E
F83E
F83E
F83E
F83E
783C
783C
3878
1C70
07C0
0000
0000
0000
7FFC
7FFC
7FFC
7FFC
ENDCHAR
STARTCHAR 00BB
ENCODING 187
SWIDTH 500 0
DWIDTH 25 0
BBX 23 19 1 2
BITMAP
C02000
E03800
701C00
781E00
3E0F00
1F07C0
0F87E0
0FC3F0
07F1F8
03F8FE
03F1FC
07E1F8
0FC3F0
1F87C0
1E0F80
3C0F00
781E00
701800
C03000
ENDCHAR
STARTCHAR 00BC
ENCODING 188
SWIDTH 760 0
DWIDTH 38 0
BBX 36 36 1 -1
BITMAP
0180000700
0780000E00
1F80000E00
7F80001C00
0F80001800
0F80003800
0F80007000
0F80007000
0F8000E000
0F8001C000
0F8001C000
0F80038000
0F80030000
0F80070000
0F800E01C0
0F800E03C0
0F801C07C0
0F80380FC0
0F80381FC0
1F807017C0
FFF07027C0
0000E067C0
0001C0C7C0
0001C187C0
00038107C0
00030207C0
00070607C0
000E07FFF0
000E07FFF0
001C07FFF0
00380007C0
00380007C0
00700007C0
00700007C0
00E00007C0
01C0000000
ENDCHAR
STARTCHAR 00BD
ENCODING 189
SWIDTH 780 0
DWIDTH 39 0
BBX 38 35 0 0
BITMAP
0180000E00
0780001C00
1F80001C00
7F80003800
0F80007000
0F80007000
0F8000E000
0F8000C000
0F8001C000
0F80038000
0F80038000
0F80070000
0F80060000
0F800E0000
0F801C1FC0
0F801C3FE0
0F80387FF0
0F8030C3F0
0F807081F0
1F80E000F0
FFF0E000F0
0001C000F0
00038000F0
00038000E0
00070001E0
00070001C0
000E000380
001C000700
001C000E00
0038001C04
0030001808
0070003FF8
00E0007FF8
00E000FFF8
01C001FFF0
ENDCHAR
STARTCHAR 00BE
ENCODING 190
SWIDTH 740 0
DWIDTH 37 0
BBX 36 36 1 -1
BITMAP
03E0000700
0FF8000700
19F8000E00
20FC000C00
407C001C00
007C003800
0078003000
0070007000
00F000E000
03F800E000
07FC01C000
00FC018000
007E038000
003E070000
001E0701C0
001E0E03C0
001C1C07C0
701C1C0FC0
F818381FC0
FC303017C0
7FC07037C0
1E00E067C0
0000E0C7C0
0001C187C0
00038107C0
00038207C0
00070607C0
000707FFF0
000E07FFF0
001C07FFF0
001C0007C0
00380007C0
00700007C0
00700007C0
00E00007C0
00E0000000
ENDCHAR
STARTCHAR 00BF
ENCODING 191
SWIDTH 500 0
DWIDTH 25 0
BBX 19 35 3 -10
BITMAP
00F800
01FC00
03FE00
03FE00
03FE00
01FE00
01FC00
00F000
000000
000000
000000
000000
006000
006000
006000
006000
00E000
01C000
03C000
0F8000
1F8000
3F0000
7F0000
FE0000
FE03C0
FE03C0
FE07E0
FE07E0
FE07E0
FE03E0
FF03C0
7F03C0
3F8380
0FFF00
03F800
ENDCHAR
STARTCHAR 00C0
ENCODING 192
SWIDTH 720 0
DWIDTH 36 0
BBX 34 45 1 0
BITMAP
0040000000
00F0000000
01F8000000
00FC000000
00FE000000
003F000000
000F800000
0007C00000
0001C00000
0000E00000
0000C00000
0001C00000
0001C00000
0001E00000
0003E00000
0003F00000
0007F00000
0007F80000
0007F80000
000FF80000
000FFC0000
001BFC0000
001BFE0000
0019FE0000
0031FE0000
0030FF0000
0060FF0000
0060FF8000
00607F8000
00C07FC000
00C03FC000
01C03FC000
01801FE000
01FFFFE000
03FFFFF000
03000FF000
07000FF000
060007F800
060007F800
0E0007FC00
0C0003FC00
1C0003FE00
3C0003FE00
7F000FFF80
FFC03FFFC0
ENDCHAR
STARTCHAR 00C1
ENCODING 193
SWIDTH 720 0
DWIDTH 36 0
BBX 34 45 1 0
BITMAP
0000040000
00001E0000
00003F0000
00007F0000
0000FE0000
0001F80000
0001F00000
0003C00000
0007000000
000E000000
0000C00000
0001C00000
0001C00000
0001E00000
0003E00000
0003F00000
0007F00000
0007F80000
0007F80000
000FF80000
000FFC0000
001BFC0000
001BFE0000
0019FE0000
0031FE0000
0030FF0000
0060FF0000
0060FF8000
00607F8000
00C07FC000
00C03FC000
01C03FC000
01801FE000
01FFFFE000
03FFFFF000
03000FF000
07000FF000
060007F800
060007F800
0E0007FC00
0C0003FC00
1C0003FE00
3C0003FE00
7F000FFF80
FFC03FFFC0
ENDCHAR
STARTCHAR 00C2
ENCODING 194
SWIDTH 720 0
DWIDTH 36 0
BBX 34 45 1 0
BITMAP
0003C00000
0007E00000
000FF00000
000FF80000
001FF80000
003E7C0000
003C1E0000
00780E0000
00E0070000
0000000000
0000C00000
0001C00000
0001C00000
0001E00000
0003E00000
0003F00000
0007F00000
0007F80000
0007F80000
000FF80000
000FFC0000
001BFC0000
001BFE0000
0019FE0000
0031FE0000
0030FF0000
0060FF0000
0060FF8000
00607F8000
00C07FC000
00C03FC000
01C03FC000
01801FE000
01FFFFE000
03FFFFF000
03000FF000
07000FF000
060007F800
060007F800
0E0007FC00
0C0003FC00
1C0003FE00
3C0003FE00
7F000FFF80
FFC03FFFC0
ENDCHAR
STARTCHAR 00C3
ENCODING 195
SWIDTH 720 0
DWIDTH 36 0
BBX 34 43 1 0
BITMAP
001E018000
007FC38000
00FFFF0000
00FFFF0000
01C3FE0000
0180780000
0000000000
0000000000
0000C00000
0001C00000
0001C00000
0001E00000
0003E00000
0003F00000
0007F00000
0007F80000
0007F80000
000FF80000
000FFC0000
001BFC0000
001BFE0000
0019FE0000
0031FE0000
0030FF0000
0060FF0000
0060FF8000
00607F8000
00C07FC000
00C03FC000
01C03FC000
01801FE000
01FFFFE000
03FFFFF000
03000FF000
07000FF000
060007F800
060007F800
0E0007FC00
0C0003FC00
1C0003FE00
3C0003FE00
7F000FFF80
FFC03FFFC0
ENDCHAR
STARTCHAR 00C4
ENCODING 196
SWIDTH 720 0
DWIDTH 36 0
BBX 34 42 1 1
BITMAP
00781E0000
00FC3F0000
00FC3F0000
00FC3F0000
00783E0000
00301C0000
0000000000
0000C00000
0001C00000
0001C00000
0001E00000
0003E00000
0003F00000
0007F00000
0007F80000
0007F80000
000FF80000
000FFC0000
001BFC0000
001BFE0000
0019FE0000
0031FE0000
0030FF0000
0060FF0000
0060FF8000
00607F8000
00C07FC000
00C03FC000
01C03FC000
01801FE000
01FFFFE000
03FFFFF000
03000FF000
07000FF000
060007F800
060007F800
0E0007FC00
0C0003FC00
1C0003FE00
3C0003FE00
7F000FFF80
FFC03FFFC0
ENDCHAR
STARTCHAR 00C5
ENCODING 197
SWIDTH 720 0
DWIDTH 36 0
BBX 34 45 1 0
BITMAP
0003E00000
0007F80000
000FF80000
001E1C0000
001C1C0000
001C1C0000
001E1C0000
000FF80000
0007F80000
0003F00000
0000C00000
0001C00000
0001C00000
0001E00000
0003E00000
0003F00000
0007F00000
0007F80000
0007F80000
000FF80000
000FFC0000
001BFC0000
001BFE0000
0019FE0000
0031FE0000
0030FF0000
0060FF0000
0060FF8000
00607F8000
00C07FC000
00C03FC000
01C03FC000
01801FE000
01FFFFE000
03FFFFF000
03000FF000
07000FF000
060007F800
060007F800
0E0007FC00
0C0003FC00
1C0003FE00
3C0003FE00
7F000FFF80
FFC03FFFC0
ENDCHAR
STARTCHAR 00C6
ENCODING 198
SWIDTH 980 0
DWIDTH 49 0
BBX 47 34 1 0
BITMAP
0003FFFFFFF8
00007FFFFFF8
000037F801F8
000037F80078
000067F80038
000067F80018
0000C7F80018
0000C7F80018
000187F80408
000187F80408
000307F80C00
000307F80C00
000607F80C00
000407F81C00
000C07F81C00
000807F8FC00
001807FFFC00
001FFFFFFC00
003FFFF87C00
003007F81C00
007007F80C00
00E007F80C00
00E007F80C00
01C007F80400
018007F80402
038007F80406
030007F8000E
070007F8000C
060007F8001C
0E0007F8003C
0E0007F8007C
1E000FFC01FC
7F801FFFFFF8
FFE07FFFFFF8
ENDCHAR
STARTCHAR 00C7
ENCODING 199
SWIDTH 700 0
DWIDTH 35 0
BBX 31 46 2 -11
BITMAP
0007F804
003FFF0C
00FC07FC
01F801FC
03F000FC
07E0007C
0FE0003C
1FC0001C
3FC0001C
3FC0000C
7FC0000C
7F800004
7F800000
FF800000
FF800000
FF800000
FF800000
FF800000
FF800000
FF800000
FF800000
FF800000
FF800000
7F800000
7F800000
7FC00000
3FC00000
3FC00000
1FE00006
0FE0000C
0FF0001C
07F80078
01FC00E0
00FF8FC0
003FFF00
0007FC00
00018000
00018000
0003F800
0003FC00
00007E00
00003E00
00003E00
00087C00
000FF800
0007E000
ENDCHAR
STARTCHAR 00C8
ENCODING 200
SWIDTH 680 0
DWIDTH 34 0
BBX 31 45 1 0
BITMAP
00400000
01F00000
01F80000
01FC0000
00FC0000
007E0000
001F0000
00078000
0003C000
0000E000
00000000
FFFFFFF8
3FFFFFF8
1FF001F8
0FF00078
0FF00038
0FF00018
0FF00018
0FF00018
0FF00408
0FF00408
0FF00C00
0FF00C00
0FF00C00
0FF01C00
0FF07C00
0FFFFC00
0FFFFC00
0FF0FC00
0FF03C00
0FF01C00
0FF00C00
0FF00C00
0FF00400
0FF00402
0FF00006
0FF00006
0FF0000E
0FF0001C
0FF0001C
0FF0003C
0FF000FC
1FF803FC
7FFFFFFC
FFFFFFF8
ENDCHAR
STARTCHAR 00C9
ENCODING 201
SWIDTH 680 0
DWIDTH 34 0
BBX 31 45 1 0
BITMAP
00000800
00003E00
00007E00
0000FE00
0001FC00
0001F800
0003E000
00078000
000F0000
001C0000
00000000
FFFFFFF8
3FFFFFF8
1FF001F8
0FF00078
0FF00038
0FF00018
0FF00018
0FF00018
0FF00408
0FF00408
0FF00C00
0FF00C00
0FF00C00
0FF01C00
0FF07C00
0FFFFC00
0FFFFC00
0FF0FC00
0FF03C00
0FF01C00
0FF00C00
0FF00C00
0FF00400
0FF00402
0FF00006
0FF00006
0FF0000E
0FF0001C
0FF0001C
0FF0003C
0FF000FC
1FF803FC
7FFFFFFC
FFFFFFF8
ENDCHAR
STARTCHAR 00CA
ENCODING 202
SWIDTH 680 0
DWIDTH 34 0
BBX 31 45 1 0
BITMAP
0007C000
000FC000
000FE000
001FF000
003EF000
003C7800
00783C00
00F01E00
01E00E00
00000000
00000000
FFFFFFF8
3FFFFFF8
1FF001F8
0FF00078
0FF00038
0FF00018
0FF00018
0FF00018
0FF00408
0FF00408
0FF00C00
0FF00C00
0FF00C00
0FF01C00
0FF07C00
0FFFFC00
0FFFFC00
0FF0FC00
0FF03C00
0FF01C00
0FF00C00
0FF00C00
0FF00400
0FF00402
0FF00006
0FF00006
0FF0000E
0FF0001C
0FF0001C
0FF0003C
0FF000FC
1FF803FC
7FFFFFFC
FFFFFFF8
ENDCHAR
STARTCHAR 00CB
ENCODING 203
SWIDTH 680 0
DWIDTH 34 0
BBX 31 43 1 0
BITMAP
00401000
00F03C00
01F87E00
01F87E00
01F87E00
00F03C00
00601800
00000000
00000000
FFFFFFF8
3FFFFFF8
1FF001F8
0FF00078
0FF00038
0FF00018
0FF00018
0FF00018
0FF00408
0FF00408
0FF00C00
0FF00C00
0FF00C00
0FF01C00
0FF07C00
0FFFFC00
0FFFFC00
0FF0FC00
0FF03C00
0FF01C00
0FF00C00
0FF00C00
0FF00400
0FF00402
0FF00006
0FF00006
0FF0000E
0FF0001C
0FF0001C
0FF0003C
0FF000FC
1FF803FC
7FFFFFFC
FFFFFFF8
ENDCHAR
STARTCHAR 00CC
ENCODING 204
SWIDTH 400 0
DWIDTH 20 0
BBX 17 45 1 0
BITMAP
200000
F80000
F80000
FC0000
7E0000
3F0000
0F8000
07C000
01E000
007000
000000
7FFF80
3FFE00
0FFC00
07F800
07F800
07F800
07F800
07F800
07F800
07F800
07F800
07F800
07F800
07F800
07F800
07F800
07F800
07F800
07F800
07F800
07F800
07F800
07F800
07F800
07F800
07F800
07F800
07F800
07F800
07F800
07F800
0FFC00
3FFE00
7FFF80
ENDCHAR
STARTCHAR 00CD
ENCODING 205
SWIDTH 400 0
DWIDTH 20 0
BBX 16 45 2 0
BITMAP
0008
003E
007E
007E
00FC
01F8
03E0
07C0
0F00
1C00
0000
FFFF
7FFC
1FF8
0FF0
0FF0
0FF0
0FF0
0FF0
0FF0
0FF0
0FF0
0FF0
0FF0
0FF0
0FF0
0FF0
0FF0
0FF0
0FF0
0FF0
0FF0
0FF0
0FF0
0FF0
0FF0
0FF0
0FF0
0FF0
0FF0
0FF0
0FF0
1FF8
7FFC
FFFF
ENDCHAR
STARTCHAR 00CE
ENCODING 206
SWIDTH 400 0
DWIDTH 20 0
BBX 16 45 2 0
BITMAP
07C0
0FE0
0FE0
1FF0
3EF8
3C78
783C
F01E
E00E
0000
0000
FFFF
7FFC
1FF8
0FF0
0FF0
0FF0
0FF0
0FF0
0FF0
0FF0
0FF0
0FF0
0FF0
0FF0
0FF0
0FF0
0FF0
0FF0
0FF0
0FF0
0FF0
0FF0
0FF0
0FF0
0FF0
0FF0
0FF0
0FF0
0FF0
0FF0
0FF0
1FF8
7FFC
FFFF
ENDCHAR
STARTCHAR 00CF
ENCODING 207
SWIDTH 400 0
DWIDTH 20 0
BBX 17 43 1 0
BITMAP
380E00
7C1F00
FC3F00
FC3F00
FC3F00
781E00
000000
000000
000000
7FFF80
3FFE00
0FFC00
07F800
07F800
07F800
07F800
07F800
07F800
07F800
07F800
07F800
07F800
07F800
07F800
07F800
07F800
07F800
07F800
07F800
07F800
07F800
07F800
07F800
07F800
07F800
07F800
07F800
07F800
07F800
07F800
0FFC00
3FFE00
7FFF80
ENDCHAR
STARTCHAR 00D0
ENCODING 208
SWIDTH 740 0
DWIDTH 37 0
BBX 34 34 1 0
BITMAP
FFFFF00000
7FFFFF0000
1FF01FC000
0FF00FE000
0FF007F800
0FF003FC00
0FF001FC00
0FF001FE00
0FF000FF00
0FF000FF00
0FF000FF80
0FF000FF80
0FF0007F80
0FF0007F80
0FF0007FC0
0FF0007FC0
FFFF807FC0
FFFF807FC0
0FF0007FC0
0FF0007FC0
0FF0007F80
0FF0007F80
0FF0007F80
0FF0007F80
0FF000FF00
0FF000FF00
0FF000FE00
0FF001FC00
0FF001FC00
0FF003F800
0FF007E000
1FF81FC000
3FFFFF0000
FFFFF80000
ENDCHAR
STARTCHAR 00D1
ENCODING 209
SWIDTH 720 0
DWIDTH 36 0
BBX 33 45 1 0
BITMAP
000001C000
003F818000
007FFF8000
00FFFF0000
00E7FF0000
00C0FC0000
0000000000
0000000000
0000000000
0000000000
0000000000
FFE000FF80
7FF0007F00
3FF0001E00
1FF8000C00
0FFC000C00
0FFE000C00
0FFF000C00
0FFF000C00
0DFF800C00
0CFFC00C00
0C7FE00C00
0C3FF00C00
0C3FF80C00
0C1FF80C00
0C0FFC0C00
0C07FE0C00
0C03FF0C00
0C01FF8C00
0C01FF8C00
0C00FFCC00
0C007FEC00
0C003FFC00
0C001FFC00
0C000FFC00
0C0007FC00
0C0007FC00
0C0003FC00
0C0001FC00
0C0000FC00
0C00007C00
0C00003C00
1E00003C00
7F80001C00
FFC0000C00
ENDCHAR
STARTCHAR 00D2
ENCODING 210
SWIDTH 780 0
DWIDTH 39 0
BBX 35 46 2 -1
BITMAP
0010000000
007C000000
007C000000
007E000000
003F000000
001F800000
0007C00000
0003E00000
0000F00000
0000380000
0007FC0000
003FFF8000
00FC07E000
01F803F000
03F001F800
07E001FC00
0FE000FE00
1FC000FF00
3FC0007F80
3FC0007F80
7FC0007F80
7F80007FC0
7F80003FC0
FF80003FC0
FF80003FE0
FF80003FE0
FF80003FE0
FF80003FE0
FF80003FE0
FF80003FE0
FF80003FE0
FF80003FE0
FF80003FC0
7F80003FC0
7F80003FC0
7F80007FC0
3FC0007F80
3FC0007F80
1FC0007F00
0FE000FE00
07E000FC00
03F001F800
01F803F000
00FC07E000
003FFF8000
0007FC0000
ENDCHAR
STARTCHAR 00D3
ENCODING 211
SWIDTH 780 0
DWIDTH 39 0
BBX 35 46 2 -1
BITMAP
0000020000
00000F0000
00001F8000
00003F8000
00007F0000
0000FC0000
0000F80000
0001E00000
0003800000
0007000000
0007FC0000
003FFF8000
00FC07E000
01F803F000
03F001F800
07E001FC00
0FE000FE00
1FC000FF00
3FC0007F80
3FC0007F80
7FC0007F80
7F80007FC0
7F80003FC0
FF80003FC0
FF80003FE0
FF80003FE0
FF80003FE0
FF80003FE0
FF80003FE0
FF80003FE0
FF80003FE0
FF80003FE0
FF80003FC0
7F80003FC0
7F80003FC0
7F80007FC0
3FC0007F80
3FC0007F80
1FC0007F00
0FE000FE00
07E000FC00
03F001F800
01F803F000
00FC07E000
003FFF8000
0007FC0000
ENDCHAR
STARTCHAR 00D4
ENCODING 212
SWIDTH 780 0
DWIDTH 39 0
BBX 35 46 2 -1
BITMAP
0001F00000
0001F80000
0003F80000
0007FC0000
0007BE0000
000F1E0000
001E0F0000
003C078000
003803C000
0000000000
0007FC0000
003FFF8000
00FC07E000
01F803F000
03F001F800
07E001FC00
0FE000FE00
1FC000FF00
3FC0007F80
3FC0007F80
7FC0007F80
7F80007FC0
7F80003FC0
FF80003FC0
FF80003FE0
FF80003FE0
FF80003FE0
FF80003FE0
FF80003FE0
FF80003FE0
FF80003FE0
FF80003FE0
FF80003FC0
7F80003FC0
7F80003FC0
7F80007FC0
3FC0007F80
3FC0007F80
1FC0007F00
0FE000FE00
07E000FC00
03F001F800
01F803F000
00FC07E000
003FFF8000
0007FC0000
ENDCHAR
STARTCHAR 00D5
ENCODING 213
SWIDTH 780 0
DWIDTH 39 0
BBX 35 44 2 -1
BITMAP
000F00C000
003FE1C000
007FFF8000
007FFF8000
0060FF0000
00C01C0000
0000000000
0000000000
0007FC0000
003FFF8000
00FC07E000
01F803F000
03F001F800
07E001FC00
0FE000FE00
1FC000FF00
3FC0007F80
3FC0007F80
7FC0007F80
7F80007FC0
7F80003FC0
FF80003FC0
FF80003FE0
FF80003FE0
FF80003FE0
FF80003FE0
FF80003FE0
FF80003FE0
FF80003FE0
FF80003FE0
FF80003FC0
7F80003FC0
7F80003FC0
7F80007FC0
3FC0007F80
3FC0007F80
1FC0007F00
0FE000FE00
07E000FC00
03F001F800
01F803F000
00FC07E000
003FFF8000
0007FC0000
ENDCHAR
STARTCHAR 00D6
ENCODING 214
SWIDTH 780 0
DWIDTH 39 0
BBX 35 44 2 -1
BITMAP
00380E0000
007C1F0000
007C1F0000
007E1F8000
007E1F8000
007C1F0000
0018040000
0000000000
0007FC0000
003FFF8000
00FC07E000
01F803F000
03F001F800
07E001FC00
0FE000FE00
1FC000FF00
3FC0007F80
3FC0007F80
7FC0007F80
7F80007FC0
7F80003FC0
FF80003FC0
FF80003FE0
FF80003FE0
FF80003FE0
FF80003FE0
FF80003FE0
FF80003FE0
FF80003FE0
FF80003FE0
FF80003FC0
7F80003FC0
7F80003FC0
7F80007FC0
3FC0007F80
3FC0007F80
1FC0007F00
0FE000FE00
07E000FC00
03F001F800
01F803F000
00FC07E000
003FFF8000
0007FC0000
ENDCHAR
STARTCHAR 00D7
ENCODING 215
SWIDTH 680 0
DWIDTH 34 0
BBX 28 28 3 -1
BITMAP
10000000
38000180
7C0003C0
FE0007E0
7F000FE0
3F801FC0
1FC03F80
0FE07F00
07F0FE00
03F9FC00
01FFF800
00FFF000
007FE000
003FC000
003FC000
007FE000
00FFF000
01FFF800
03F9FC00
07F0FE00
0FE07F00
1FC03F80
3F801FC0
7F000FE0
FE0007F0
7C0003E0
380001C0
10000080
ENDCHAR
STARTCHAR 00D8
ENCODING 216
SWIDTH 780 0
DWIDTH 39 0
BBX 35 41 2 -4
BITMAP
0000000600
0000000E00
0007FC0C00
003FFF1800
00FC07F800
01F803F000
03F001F800
07E001FC00
0FE000FE00
1FC001FF00
3FC003FF80
3FC0037F80
7FC0067FC0
7F800E7FC0
7F800C3FC0
FF80183FC0
FF80383FE0
FF80303FE0
FF80703FE0
FF80E03FE0
FF80C03FE0
FF81C03FE0
FF83803FE0
FF83003FE0
7F87003FC0
7F8E003FC0
7F8C003FC0
7FDC007FC0
3FD8007F80
3FF0007F80
1FF0007F00
0FE000FE00
07E000FC00
03F001F800
01F803F000
03FC07E000
073FFF8000
0607FC0000
0C00000000
1C00000000
3800000000
ENDCHAR
STARTCHAR 00D9
ENCODING 217
SWIDTH 720 0
DWIDTH 36 0
BBX 33 46 1 -1
BITMAP
0010000000
007C000000
007E000000
007F000000
003F000000
001F800000
0007C00000
0001E00000
0000F00000
0000380000
0000000000
FFFF00FF80
7FFC007F00
1FF8001E00
0FF0000C00
0FF0000C00
0FF0000C00
0FF0000C00
0FF0000C00
0FF0000C00
0FF0000C00
0FF0000C00
0FF0000C00
0FF0000C00
0FF0000C00
0FF0000C00
0FF0000C00
0FF0000C00
0FF0000C00
0FF0000C00
0FF0000C00
0FF0000C00
0FF0000C00
0FF0000C00
0FF0000C00
0FF0000C00
0FF0000C00
0FF0001C00
07F8001800
07F8001800
07F8003800
03FC007000
01FE00E000
00FFC7C000
003FFF8000
0007FC0000
ENDCHAR
STARTCHAR 00DA
ENCODING 218
SWIDTH 720 0
DWIDTH 36 0
BBX 33 46 1 -1
BITMAP
0000010000
000007C000
00000FC000
00001FC000
00001F8000
00003F0000
00007C0000
0000F00000
0001E00000
0003800000
0000000000
FFFF00FF80
7FFC007F00
1FF8001E00
0FF0000C00
0FF0000C00
0FF0000C00
0FF0000C00
0FF0000C00
0FF0000C00
0FF0000C00
0FF0000C00
0FF0000C00
0FF0000C00
0FF0000C00
0FF0000C00
0FF0000C00
0FF0000C00
0FF0000C00
0FF0000C00
0FF0000C00
0FF0000C00
0FF0000C00
0FF0000C00
0FF0000C00
0FF0000C00
0FF0000C00
0FF0001C00
07F8001800
07F8001800
07F8003800
03FC007000
01FE00E000
00FFC7C000
003FFF8000
0007FC0000
ENDCHAR
STARTCHAR 00DB
ENCODING 219
SWIDTH 720 0
DWIDTH 36 0
BBX 33 46 1 -1
BITMAP
0000F80000
0001FC0000
0001FC0000
0003FE0000
0007DF0000
00078F0000
000F078000
001E03C000
001C01C000
0000000000
0000000000
FFFF00FF80
7FFC007F00
1FF8001E00
0FF0000C00
0FF0000C00
0FF0000C00
0FF0000C00
0FF0000C00
0FF0000C00
0FF0000C00
0FF0000C00
0FF0000C00
0FF0000C00
0FF0000C00
0FF0000C00
0FF0000C00
0FF0000C00
0FF0000C00
0FF0000C00
0FF0000C00
0FF0000C00
0FF0000C00
0FF0000C00
0FF0000C00
0FF0000C00
0FF0000C00
0FF0001C00
07F8001800
07F8001800
07F8003800
03FC007000
01FE00E000
00FFC7C000
003FFF8000
0007FC0000
ENDCHAR
STARTCHAR 00DC
ENCODING 220
SWIDTH 720 0
DWIDTH 36 0
BBX 33 44 1 -1
BITMAP
001C070000
003E0F8000
003E0F8000
003F0FC000
003F0FC000
003E0F8000
000C020000
0000000000
0000000000
FFFF00FF80
7FFC007F00
1FF8001E00
0FF0000C00
0FF0000C00
0FF0000C00
0FF0000C00
0FF0000C00
0FF0000C00
0FF0000C00
0FF0000C00
0FF0000C00
0FF0000C00
0FF0000C00
0FF0000C00
0FF0000C00
0FF0000C00
0FF0000C00
0FF0000C00
0FF0000C00
0FF0000C00
0FF0000C00
0FF0000C00
0FF0000C00
0FF0000C00
0FF0000C00
0FF0001C00
07F8001800
07F8001800
07F8003800
03FC007000
01FE00E000
00FFC7C000
003FFF8000
0007FC0000
ENDCHAR
STARTCHAR 00DD
ENCODING 221
SWIDTH 700 0
DWIDTH 35 0
BBX 34 45 1 0
BITMAP
0000010000
000003C000
000007C000
00000FC000
00001F8000
00003F0000
00007C0000
0000F80000
0001E00000
0003800000
0000000000
FFFF81FFC0
7FFC007F80
1FF8001E00
1FF8001C00
0FF8001C00
07FC001800
07FC003800
03FE003000
03FE006000
01FF00E000
01FF00C000
00FF81C000
00FF818000
007FC30000
003FC70000
003FE60000
001FEE0000
001FFC0000
000FF80000
000FF80000
0007F80000
0007F80000
0007F80000
0007F80000
0007F80000
0007F80000
0007F80000
0007F80000
0007F80000
0007F80000
0007F80000
000FFC0000
003FFF0000
007FFF8000
ENDCHAR
STARTCHAR 00DE
ENCODING 222
SWIDTH 640 0
DWIDTH 32 0
BBX 30 34 1 0
BITMAP
FFFF0000
7FFE0000
1FF80000
0FF00000
0FF00000
0FF00000
0FFFE000
0FFFFF00
0FF83FC0
0FF01FE0
0FF00FF0
0FF00FF8
0FF007F8
0FF007F8
0FF007FC
0FF007FC
0FF007FC
0FF007FC
0FF007F8
0FF007F8
0FF00FF0
0FF00FF0
0FF01FE0
0FF07F80
0FFFFE00
0FFE0000
0FF00000
0FF00000
0FF00000
0FF00000
0FF00000
1FF80000
7FFE0000
FFFF0000
ENDCHAR
STARTCHAR 00DF
ENCODING 223
SWIDTH 560 0
DWIDTH 28 0
BBX 24 35 2 0
BITMAP
007F00
03EFC0
07C3E0
0F83F0
1F81F8
1F81FC
3F81FC
3F81FC
3F81FC
3F81FC
3F81F8
3F81F8
3F81F0
3F83C0
3F8F00
3F8F00
3F83C0
3F80F0
3F80FC
3F80FE
3F807E
3F807F
3F807F
3F807F
3F807F
3F807F
3F807F
3F807F
3F807F
3F807F
3F807E
3F80FC
3F80FC
7F89F0
FF8FE0
ENDCHAR
STARTCHAR 00E0
ENCODING 224
SWIDTH 500 0
DWIDTH 25 0
BBX 24 35 1 0
BITMAP
0E0000
1F8000
1F8000
0FC000
07E000
01F000
00F800
003C00
001E00
000000
000000
000000
07FF80
1F0FC0
3C07F0
3C03F0
7E03F8
7E03F8
7E03F8
7E03F8
3C03F8
000FF8
007FF8
03E3F8
0FC3F8
3F83F8
7F03F8
7F03F8
FE03F8
FE03F8
FF07F8
FF8FF8
FFFBFF
7FF1FE
3FC1FC
ENDCHAR
STARTCHAR 00E1
ENCODING 225
SWIDTH 500 0
DWIDTH 25 0
BBX 24 35 1 0
BITMAP
0003C0
0007C0
000FC0
001FC0
003F80
007E00
007800
00F000
01C000
000000
000000
000000
07FF80
1F0FC0
3C07F0
3C03F0
7E03F8
7E03F8
7E03F8
7E03F8
3C03F8
000FF8
007FF8
03E3F8
0FC3F8
3F83F8
7F03F8
7F03F8
FE03F8
FE03F8
FF07F8
FF8FF8
FFFBFF
7FF1FE
3FC1FC
ENDCHAR
STARTCHAR 00E2
ENCODING 226
SWIDTH 500 0
DWIDTH 25 0
BBX 24 35 1 0
BITMAP
007C00
00FE00
00FE00
01FF00
03EF80
03C780
0783C0
0F01E0
1C0070
000000
000000
000000
07FF80
1F0FC0
3C07F0
3C03F0
7E03F8
7E03F8
7E03F8
7E03F8
3C03F8
000FF8
007FF8
03E3F8
0FC3F8
3F83F8
7F03F8
7F03F8
FE03F8
FE03F8
FF07F8
FF8FF8
FFFBFF
7FF1FE
3FC1FC
ENDCHAR
STARTCHAR 00E3
ENCODING 227
SWIDTH 500 0
DWIDTH 25 0
BBX 24 34 1 0
BITMAP
03E030
0FFC70
1FFFE0
1FFFE0
383FC0
300600
000000
000000
000000
000000
000000
07FF80
1F0FC0
3C07F0
3C03F0
7E03F8
7E03F8
7E03F8
7E03F8
3C03F8
000FF8
007FF8
03E3F8
0FC3F8
3F83F8
7F03F8
7F03F8
FE03F8
FE03F8
FF07F8
FF8FF8
FFFBFF
7FF1FE
3FC1FC
ENDCHAR
STARTCHAR 00E4
ENCODING 228
SWIDTH 500 0
DWIDTH 25 0
BBX 24 32 1 0
BITMAP
0F03C0
1F87E0
1F87E0
1F87E0
1F07C0
0F03C0
000000
000000
000000
07FF80
1F0FC0
3C07F0
3C03F0
7E03F8
7E03F8
7E03F8
7E03F8
3C03F8
000FF8
007FF8
03E3F8
0FC3F8
3F83F8
7F03F8
7F03F8
FE03F8
FE03F8
FF07F8
FF8FF8
FFFBFF
7FF1FE
3FC1FC
ENDCHAR
STARTCHAR 00E5
ENCODING 229
SWIDTH 500 0
DWIDTH 25 0
BBX 24 36 1 0
BITMAP
00FC00
01FE00
03FF00
038700
038300
038300
038700
03FF00
01FE00
00FC00
000000
000000
000000
07FF80
1F0FC0
3C07F0
3C03F0
7E03F8
7E03F8
7E03F8
7E03F8
3C03F8
000FF8
007FF8
03E3F8
0FC3F8
3F83F8
7F03F8
7F03F8
FE03F8
FE03F8
FF07F8
FF8FF8
FFFBFF
7FF1FE
3FC1FC
ENDCHAR
STARTCHAR 00E6
ENCODING 230
SWIDTH 700 0
DWIDTH 35 0
BBX 33 23 1 1
BITMAP
07FE1FF000
1F1F3C7C00
3C0FF83E00
7C07F81E00
7E07F01F00
7E07F01F00
7E07F01F00
3C07F01F80
0007F01F80
0007FFFF80
003FFFFF80
01F7F00000
0FC7F00000
1F07F00000
7F07F00000
7E07F00000
FE07F80000
FE07F80180
FE07FC0300
FF0FFF0F00
FFFCFFFE00
7FF07FFC00
3FC03FF000
ENDCHAR
STARTCHAR 00E7
ENCODING 231
SWIDTH 440 0
DWIDTH 22 0
BBX 21 34 1 -10
BITMAP
01FF80
07C7C0
0F83E0
1F03F0
3F03F0
3E03F0
7E03F0
7E01E0
FE0000
FE0000
FE0000
FE0000
FE0000
FE0000
FF0000
FF0000
7F8000
7F8000
3FC018
3FE030
1FFFE0
0FFFC0
03FF00
007C00
003000
007000
007F00
00FF80
000FC0
0007C0
0007C0
030F80
03FF00
01FC00
ENDCHAR
STARTCHAR 00E8
ENCODING 232
SWIDTH 440 0
DWIDTH 22 0
BBX 20 35 1 0
BITMAP
1E0000
1F0000
1F8000
1FC000
07E000
03F000
00F800
003800
001C00
000000
000000
000000
03FE00
0F8F00
1F0780
3E07C0
3E07C0
7E07E0
7E07E0
FE07E0
FE07E0
FFFFE0
FFFFF0
FE0000
FE0000
FE0000
FE0000
FF0000
7F0000
7F8030
3F8060
3FE1C0
1FFF80
0FFF00
03FE00
ENDCHAR
STARTCHAR 00E9
ENCODING 233
SWIDTH 440 0
DWIDTH 22 0
BBX 20 35 1 0
BITMAP
000380
0007C0
000FC0
001FC0
003F00
007E00
00F800
01E000
01C000
000000
000000
000000
03FE00
0F8F00
1F0780
3E07C0
3E07C0
7E07E0
7E07E0
FE07E0
FE07E0
FFFFE0
FFFFF0
FE0000
FE0000
FE0000
FE0000
FF0000
7F0000
7F8030
3F8060
3FE1C0
1FFF80
0FFF00
03FE00
ENDCHAR
STARTCHAR 00EA
ENCODING 234
SWIDTH 440 0
DWIDTH 22 0
BBX 20 34 1 0
BITMAP
00F800
00FC00
01FE00
03FE00
03FF00
078F80
0F0780
0E03C0
1C00E0
000000
000000
03FE00
0F8F00
1F0780
3E07C0
3E07C0
7E07E0
7E07E0
FE07E0
FE07E0
FFFFE0
FFFFF0
FE0000
FE0000
FE0000
FE0000
FF0000
7F0000
7F8030
3F8060
3FE1C0
1FFF80
0FFF00
03FE00
ENDCHAR
STARTCHAR 00EB
ENCODING 235
SWIDTH 440 0
DWIDTH 22 0
BBX 20 32 1 0
BITMAP
1E0780
3F0FC0
3F0FC0
3F0FC0
3F0FC0
1E0780
000000
000000
000000
03FE00
0F8F00
1F0780
3E07C0
3E07C0
7E07E0
7E07E0
FE07E0
FE07E0
FFFFE0
FFFFF0
FE0000
FE0000
FE0000
FE0000
FF0000
7F0000
7F8030
3F8060
3FE1C0
1FFF80
0FFF00
03FE00
ENDCHAR
STARTCHAR 00EC
ENCODING 236
SWIDTH 300 0
DWIDTH 15 0
BBX 13 35 0 0
BITMAP
F000
F800
FC00
FE00
7F00
1F00
0780
03C0
00E0
0000
0000
0000
3FE0
1FE0
0FE0
0FE0
0FE0
0FE0
0FE0
0FE0
0FE0
0FE0
0FE0
0FE0
0FE0
0FE0
0FE0
0FE0
0FE0
0FE0
0FE0
0FE0
0FE0
1FF0
3FF8
ENDCHAR
STARTCHAR 00ED
ENCODING 237
SWIDTH 300 0
DWIDTH 15 0
BBX 12 35 1 0
BITMAP
00E0
01F0
03F0
07E0
0FC0
1F00
3E00
7800
F000
0000
0000
0000
7FC0
3FC0
1FC0
1FC0
1FC0
1FC0
1FC0
1FC0
1FC0
1FC0
1FC0
1FC0
1FC0
1FC0
1FC0
1FC0
1FC0
1FC0
1FC0
1FC0
1FC0
3FE0
7FF0
ENDCHAR
STARTCHAR 00EE
ENCODING 238
SWIDTH 300 0
DWIDTH 15 0
BBX 16 35 -1 0
BITMAP
07E0
07E0
0FF0
1FF8
1FF8
3C3C
781E
700E
E007
0000
0000
0000
1FF0
0FF0
07F0
07F0
07F0
07F0
07F0
07F0
07F0
07F0
07F0
07F0
07F0
07F0
07F0
07F0
07F0
07F0
07F0
07F0
07F0
0FF8
1FFC
ENDCHAR
STARTCHAR 00EF
ENCODING 239
SWIDTH 300 0
DWIDTH 15 0
BBX 16 32 -1 0
BITMAP
781E
FC3F
FC3F
FC3F
FC3F
781E
0000
0000
0000
1FF0
0FF0
07F0
07F0
07F0
07F0
07F0
07F0
07F0
07F0
07F0
07F0
07F0
07F0
07F0
07F0
07F0
07F0
07F0
07F0
07F0
0FF8
1FFC
ENDCHAR
STARTCHAR 00F0
ENCODING 240
SWIDTH 500 0
DWIDTH 25 0
BBX 22 35 1 0
BITMAP
0F0040
1FE1F0
01FFC0
00FF00
007F00
01FF80
07EFC0
0F87E0
0607E0
0003F0
0003F0
0001F8
03FDF8
07C6FC
0F83FC
1F03FC
3F03FC
7F01FC
7F01FC
7F01FC
FE01FC
FE01FC
FE01FC
FE01FC
FE01FC
FE01FC
FE01FC
7E01F8
7F01F8
7F01F8
3F03F0
1F03E0
0F83E0
07C7C0
03FF00
ENDCHAR
STARTCHAR 00F1
ENCODING 241
SWIDTH 560 0
DWIDTH 28 0
BBX 24 34 2 0
BITMAP
03E038
0FFC30
0FFFF0
1FFFE0
183FC0
180700
000000
000000
000000
000000
000000
FF8FE0
7F9FF0
3FBFF8
3FE3F8
3FC1FC
3F81FC
3F81FC
3F81FC
3F81FC
3F81FC
3F81FC
3F81FC
3F81FC
3F81FC
3F81FC
3F81FC
3F81FC
3F81FC
3F81FC
3F81FC
3F81FC
7FC3FE
FFE7FF
ENDCHAR
STARTCHAR 00F2
ENCODING 242
SWIDTH 500 0
DWIDTH 25 0
BBX 22 35 1 0
BITMAP
070000
0FC000
0FC000
07E000
03F000
00F800
007C00
001E00
000F00
000000
000000
000000
01FF00
07C7C0
0F83E0
1F03F0
3F03F0
7F01F8
7F01F8
7F01FC
FE01FC
FE01FC
FE01FC
FE01FC
FE01FC
FE01FC
FE01FC
7E01FC
7F01FC
7F01F8
3F03F0
1F03F0
0F83E0
07C7C0
03FF00
ENDCHAR
STARTCHAR 00F3
ENCODING 243
SWIDTH 500 0
DWIDTH 25 0
BBX 22 35 1 0
BITMAP
0003C0
0007C0
000FC0
001FC0
003F00
007E00
00F800
00E000
01C000
000000
000000
000000
01FF00
07C7C0
0F83E0
1F03F0
3F03F0
7F01F8
7F01F8
7F01FC
FE01FC
FE01FC
FE01FC
FE01FC
FE01FC
FE01FC
FE01FC
7E01FC
7F01FC
7F01F8
3F03F0
1F03F0
0F83E0
07C7C0
03FF00
ENDCHAR
STARTCHAR 00F4
ENCODING 244
SWIDTH 500 0
DWIDTH 25 0
BBX 22 34 1 0
BITMAP
007C00
00FE00
01FF00
01FF00
03C780
0783C0
0F01E0
0E00E0
000000
000000
000000
01FF00
07C7C0
0F83E0
1F03F0
3F03F0
7F01F8
7F01F8
7F01FC
FE01FC
FE01FC
FE01FC
FE01FC
FE01FC
FE01FC
FE01FC
7E01FC
7F01FC
7F01F8
3F03F0
1F03F0
0F83E0
07C7C0
03FF00
ENDCHAR
STARTCHAR 00F5
ENCODING 245
SWIDTH 500 0
DWIDTH 25 0
BBX 22 33 1 0
BITMAP
000030
07F030
0FFFF0
1FFFE0
18FFC0
301F80
000000
000000
000000
000000
01FF00
07C7C0
0F83E0
1F03F0
3F03F0
7F01F8
7F01F8
7F01FC
FE01FC
FE01FC
FE01FC
FE01FC
FE01FC
FE01FC
FE01FC
7E01FC
7F01FC
7F01F8
3F03F0
1F03F0
0F83E0
07C7C0
03FF00
ENDCHAR
STARTCHAR 00F6
ENCODING 246
SWIDTH 500 0
DWIDTH 25 0
BBX 22 32 1 0
BITMAP
0F03C0
0F83E0
1F87E0
1F87E0
1F87E0
0F03C0
000000
000000
000000
01FF00
07C7C0
0F83E0
1F03F0
3F03F0
7F01F8
7F01F8
7F01FC
FE01FC
FE01FC
FE01FC
FE01FC
FE01FC
FE01FC
FE01FC
7E01FC
7F01FC
7F01F8
3F03F0
1F03F0
0F83E0
07C7C0
03FF00
ENDCHAR
STARTCHAR 00F7
ENCODING 247
SWIDTH 680 0
DWIDTH 34 0
BBX 28 31 3 -2
BITMAP
000F8000
001FC000
001FC000
001FC000
001FC000
000FC000
00078000
00000000
00000000
00000000
00000000
00000000
00000000
FFFFFFF0
FFFFFFF0
FFFFFFF0
FFFFFFF0
FFFFFFF0
00000000
00000000
00000000
00000000
00000000
00000000
000F8000
001FC000
001FC000
001FC000
001FC000
000FC000
00078000
ENDCHAR
STARTCHAR 00F8
ENCODING 248
SWIDTH 500 0
DWIDTH 25 0
BBX 22 31 1 -4
BITMAP
000018
000038
000030
000060
03FF60
07C7C0
0F83E0
1F03E0
3F03F0
7F03F8
7F07F8
7F0FFC
FE0DFC
FE19FC
FE19FC
FE31FC
FE71FC
FE61FC
FEC1FC
7EC1FC
7F81FC
7F81F8
3F03F0
1F03F0
0F83E0
0FC7C0
1DFF00
180000
380000
300000
600000
ENDCHAR
STARTCHAR 00F9
ENCODING 249
SWIDTH 560 0
DWIDTH 28 0
BBX 25 35 2 0
BITMAP
0F000000
0F800000
0FC00000
0FE00000
07F00000
01F00000
00780000
003C0000
000E0000
00000000
00000000
00000000
FF8FFC00
7F83FC00
3F81FC00
3F81FC00
3F81FC00
3F81FC00
3F81FC00
3F81FC00
3F81FC00
3F81FC00
3F81FC00
3F81FC00
3F81FC00
3F81FC00
3F81FC00
3F81FC00
3F81FC00
3F81FC00
3F81FC00
3FC7FC00
1FFFFE00
0FFDFF80
07F1F800
ENDCHAR
STARTCHAR 00FA
ENCODING 250
SWIDTH 560 0
DWIDTH 28 0
BBX 25 35 2 0
BITMAP
0003C000
0007E000
0007E000
000FC000
001F8000
003E0000
007C0000
00F00000
01E00000
00000000
00000000
00000000
FF8FFC00
7F83FC00
3F81FC00
3F81FC00
3F81FC00
3F81FC00
3F81FC00
3F81FC00
3F81FC00
3F81FC00
3F81FC00
3F81FC00
3F81FC00
3F81FC00
3F81FC00
3F81FC00
3F81FC00
3F81FC00
3F81FC00
3FC7FC00
1FFFFE00
0FFDFF80
07F1F800
ENDCHAR
STARTCHAR 00FB
ENCODING 251
SWIDTH 560 0
DWIDTH 28 0
BBX 25 35 2 0
BITMAP
007C0000
00FE0000
00FF0000
01FF0000
03EF8000
03C7C000
0783C000
0F00E000
0E007000
00000000
00000000
00000000
FF8FFC00
7F83FC00
3F81FC00
3F81FC00
3F81FC00
3F81FC00
3F81FC00
3F81FC00
3F81FC00
3F81FC00
3F81FC00
3F81FC00
3F81FC00
3F81FC00
3F81FC00
3F81FC00
3F81FC00
3F81FC00
3F81FC00
3FC7FC00
1FFFFE00
0FFDFF80
07F1F800
ENDCHAR
STARTCHAR 00FC
ENCODING 252
SWIDTH 560 0
DWIDTH 28 0
BBX 25 32 2 0
BITMAP
0E038000
1F07C000
1F87E000
1F87E000
1F07C000
0F03C000
00000000
00000000
00000000
FF8FFC00
7F83FC00
3F81FC00
3F81FC00
3F81FC00
3F81FC00
3F81FC00
3F81FC00
3F81FC00
3F81FC00
3F81FC00
3F81FC00
3F81FC00
3F81FC00
3F81FC00
3F81FC00
3F81FC00
3F81FC00
3F81FC00
3FC7FC00
1FFFFE00
0FFDFF80
07F1F800
ENDCHAR
STARTCHAR 00FD
ENCODING 253
SWIDTH 480 0
DWIDTH 24 0
BBX 23 45 0 -10
BITMAP
0000F0
0001F0
0003F0
0007F0
000FC0
001F80
003E00
007800
007000
000000
000000
000000
FFF1FE
7FC078
3F8030
3FC030
1FC070
1FC060
0FE060
0FE0C0
07E0C0
07F0C0
07F180
03F980
03F980
01FB00
01FF00
01FE00
00FE00
00FE00
007C00
007C00
007C00
003800
003800
001000
001000
003000
002000
782000
FC6000
FCC000
FDC000
FF8000
7F0000
ENDCHAR
STARTCHAR 00FE
ENCODING 254
SWIDTH 540 0
DWIDTH 27 0
BBX 25 44 1 -10
BITMAP
7FC00000
3FC00000
1FC00000
1FC00000
1FC00000
1FC00000
1FC00000
1FC00000
1FC00000
1FC00000
1FC00000
1FCFF000
1FDFFC00
1FD9FE00
1FE0FE00
1FE07F00
1FC07F00
1FC03F80
1FC03F80
1FC03F80
1FC03F80
1FC03F80
1FC03F80
1FC03F80
1FC03F80
1FC03F80
1FC03F80
1FC03F80
1FC07F00
1FC07F00
1FE0FE00
1FF9FC00
1FDFF800
1FCFF000
1FC00000
1FC00000
1FC00000
1FC00000
1FC00000
1FC00000
1FC00000
1FC00000
3FE00000
FFF80000
ENDCHAR
STARTCHAR 00FF
ENCODING 255
SWIDTH 480 0
DWIDTH 24 0
BBX 23 42 0 -10
BITMAP
03C0F0
07C1F0
07E1F8
07E1F8
07E1F8
03C0F0
000000
000000
000000
FFF1FE
7FC078
3F8030
3FC030
1FC070
1FC060
0FE060
0FE0C0
07E0C0
07F0C0
07F180
03F980
03F980
01FB00
01FF00
01FE00
00FE00
00FE00
007C00
007C00
007C00
003800
003800
001000
001000
003000
002000
782000
FC6000
FCC000
FDC000
FF8000
7F0000
ENDCHAR
STARTCHAR 0100
ENCODING 256
SWIDTH 720 0
DWIDTH 36 0
BBX 34 42 1 0
BITMAP
007FFF8000
007FFF8000
007FFF8000
007FFF8000
0000000000
0000000000
0000000000
0000C00000
0001C00000
0001C00000
0001E00000
0003E00000
0003F00000
0007F00000
0007F80000
0007F80000
000FF80000
000FFC0000
001BFC0000
001BFE0000
0019FE0000
0031FE0000
0030FF0000
0060FF0000
0060FF8000
00607F8000
00C07FC000
00C03FC000
01C03FC000
01801FE000
01FFFFE000
03FFFFF000
03000FF000
07000FF000
060007F800
060007F800
0E0007FC00
0C0003FC00
1C0003FE00
3C0003FE00
7F000FFF80
FFC03FFFC0
ENDCHAR
STARTCHAR 0101
ENCODING 257
SWIDTH 500 0
DWIDTH 25 0
BBX 24 32 1 0
BITMAP
1FFFF0
1FFFF0
1FFFF0
1FFFF0
000000
000000
000000
000000
000000
07FF80
1F0FC0
3C07F0
3C03F0
7E03F8
7E03F8
7E03F8
7E03F8
3C03F8
000FF8
007FF8
03E3F8
0FC3F8
3F83F8
7F03F8
7F03F8
FE03F8
FE03F8
FF07F8
FF8FF8
FFFBFF
7FF1FE
3FC1FC
ENDCHAR
STARTCHAR 0102
ENCODING 258
SWIDTH 720 0
DWIDTH 36 0
BBX 34 45 1 0
BITMAP
0060030000
0070070000
0070070000
00380E0000
003C1E0000
003FFC0000
001FFC0000
000FF80000
0000800000
0000000000
0000C00000
0001C00000
0001C00000
0001E00000
0003E00000
0003F00000
0007F00000
0007F80000
0007F80000
000FF80000
000FFC0000
001BFC0000
001BFE0000
0019FE0000
0031FE0000
0030FF0000
0060FF0000
0060FF8000
00607F8000
00C07FC000
00C03FC000
01C03FC000
01801FE000
01FFFFE000
03FFFFF000
03000FF000
07000FF000
060007F800
060007F800
0E0007FC00
0C0003FC00
1C0003FE00
3C0003FE00
7F000FFF80
FFC03FFFC0
ENDCHAR
STARTCHAR 0103
ENCODING 259
SWIDTH 500 0
DWIDTH 25 0
BBX 24 35 1 0
BITMAP
0C0060
0E0060
0E00E0
0700E0
0781C0
07FFC0
03FF80
01FF00
007E00
000000
000000
000000
07FF80
1F0FC0
3C07F0
3C03F0
7E03F8
7E03F8
7E03F8
7E03F8
3C03F8
000FF8
007FF8
03E3F8
0FC3F8
3F83F8
7F03F8
7F03F8
FE03F8
FE03F8
FF07F8
FF8FF8
FFFBFF
7FF1FE
3FC1FC
ENDCHAR
STARTCHAR 0104
ENCODING 260
SWIDTH 720 0
DWIDTH 36 0
BBX 40 45 0 -10
BITMAP
0000C00000
0000C00000
0001E00000
0001E00000
0003E00000
0003F00000
0003F00000
0007F80000
0007F80000
000FFC0000
000FFC0000
000FFC0000
0019FE0000
0019FE0000
0038FF0000
0030FF0000
00307F0000
00707F8000
00607F8000
00E03FC000
00C03FC000
00C01FE000
01C01FE000
01FFFFE000
03FFFFF000
03000FF000
03000FF800
070007F800
060007F800
0E0007FC00
0C0003FC00
1C0003FE00
1C0003FF00
7F000FFF80
FFC03FFFC0
00000000C0
00000001C0
0000000180
0000000380
0000000780
0000000780
00000007C1
00000007FF
00000003FE
00000001FC
ENDCHAR
STARTCHAR 0105
ENCODING 261
SWIDTH 500 0
DWIDTH 25 0
BBX 24 32 1 -8
BITMAP
07FF80
1F0FC0
3C07F0
3C03F0
7E03F8
7E03F8
7E03F8
7E03F8
3C03F8
000FF8
007FF8
03E3F8
0FC3F8
1F83F8
7F03F8
7F03F8
FE03F8
FE03F8
FF07F8
FF8FF8
FFFBFF
7FF1FE
3FC1FC
0001F0
0003C0
000380
000780
0007C0
0007E3
0007FF
0003FE
0000F8
ENDCHAR
STARTCHAR 0106
ENCODING 262
SWIDTH 700 0
DWIDTH 35 0
BBX 31 46 2 -1
BITMAP
00000100
00000780
00000FC0
00001FC0
00003F80
00007E00
0000FC00
0000F000
0001C000
00038000
0007F804
003FFF0C
00FC07FC
01F801FC
03F000FC
07E0007C
0FE0003C
1FC0003C
3FC0001C
3FC0000C
7FC0000C
7F800004
7F800000
FF800000
FF800000
FF800000
FF800000
FF800000
FF800000
FF800000
FF800000
FF800000
FF800000
7F800000
7F800000
7FC00000
3FC00000
3FC00000
1FE00006
0FE0000C
0FF0003C
07F80078
01FC01E0
00FF8FC0
003FFF00
0007FC00
ENDCHAR
STARTCHAR 0107
ENCODING 263
SWIDTH 440 0
DWIDTH 22 0
BBX 21 35 1 0
BITMAP
0001E0
0003F0
0003F0
0007E0
000FC0
001F00
003E00
007800
00E000
000000
000000
000000
01FF80
07C7C0
0F83E0
1F03F0
3F03F0
3E03F0
7E03F0
7E01E0
FE0000
FE0000
FE0000
FE0000
FE0000
FE0000
FF0000
FF0000
7F8000
7F8000
3FC018
3FF070
1FFFE0
07FF80
03FF00
ENDCHAR
STARTCHAR 0108
ENCODING 264
SWIDTH 700 0
DWIDTH 35 0
BBX 31 46 2 -1
BITMAP
0001F000
0001F800
0003FC00
0007FC00
0007FE00
000F1F00
001E0F00
001C0780
003801C0
00000000
0007F804
003FFF0C
00FC07FC
01F801FC
03F000FC
07E0007C
0FE0003C
1FC0003C
3FC0001C
3FC0000C
7FC0000C
7F800004
7F800000
FF800000
FF800000
FF800000
FF800000
FF800000
FF800000
FF800000
FF800000
FF800000
FF800000
7F800000
7F800000
7FC00000
3FC00000
3FC00000
1FE00006
0FE0000C
0FF0003C
07F80078
01FC01E0
00FF8FC0
003FFF00
0007FC00
ENDCHAR
STARTCHAR 0109
ENCODING 265
SWIDTH 440 0
DWIDTH 22 0
BBX 21 34 1 0
BITMAP
007C00
00FE00
01FE00
01FF00
03EF80
07C780
0703C0
0E01E0
1C0070
000000
000000
01FF80
07C7C0
0F83E0
1F03F0
3F03F0
3E03F0
7E03F0
7E01E0
FE0000
FE0000
FE0000
FE0000
FE0000
FE0000
FF0000
FF0000
7F8000
7F8000
3FC018
3FF070
1FFFE0
07FF80
03FF00
ENDCHAR
STARTCHAR 010A
ENCODING 266
SWIDTH 700 0
DWIDTH 35 0
BBX 31 44 2 -1
BITMAP
00006000
0001F000
0001F800
0001F800
0001F800
0000F000
00000000
00000000
0007F804
003FFF0C
00FC07FC
01F801FC
03F000FC
07E0007C
0FE0003C
1FC0003C
3FC0001C
3FC0000C
7FC0000C
7F800004
7F800000
FF800000
FF800000
FF800000
FF800000
FF800000
FF800000
FF800000
FF800000
FF800000
FF800000
7F800000
7F800000
7FC00000
3FC00000
3FC00000
1FE00006
0FE0000C
0FF0003C
07F80078
01FC01E0
00FF8FC0
003FFF00
0007FC00
ENDCHAR
STARTCHAR 010B
ENCODING 267
SWIDTH 440 0
DWIDTH 22 0
BBX 21 32 1 0
BITMAP
00F000
01F000
01F800
01F800
01F800
00F000
000000
000000
000000
01FF80
07C7C0
0F83E0
1F03F0
3F03F0
3E03F0
7E03F0
7E01E0
FE0000
FE0000
FE0000
FE0000
FE0000
FE0000
FF0000
FF0000
7F8000
7F8000
3FC018
3FF070
1FFFE0
07FF80
03FF00
ENDCHAR
STARTCHAR 010C
ENCODING 268
SWIDTH 700 0
DWIDTH 35 0
BBX 31 46 2 -1
BITMAP
003800C0
003C03C0
001E0780
000F0F00
000F9F00
0007FE00
0003FC00
0001FC00
0001F800
00000000
0007F804
003FFF0C
00FC07FC
01F801FC
03F000FC
07E0007C
0FE0003C
1FC0003C
3FC0001C
3FC0000C
7FC0000C
7F800004
7F800000
FF800000
FF800000
FF800000
FF800000
FF800000
FF800000
FF800000
FF800000
FF800000
FF800000
7F800000
7F800000
7FC00000
3FC00000
3FC00000
1FE00006
0FE0000C
0FF0003C
07F80078
01FC01E0
00FF8FC0
003FFF00
0007FC00
ENDCHAR
STARTCHAR 010D
ENCODING 269
SWIDTH 440 0
DWIDTH 22 0
BBX 21 34 1 0
BITMAP
0E0070
0701E0
0783C0
03C7C0
01EF80
01FF00
00FF00
007E00
007C00
000000
000000
01FF80
07C7C0
0F83E0
1F03F0
3F03F0
3E03F0
7E03F0
7E01E0
FE0000
FE0000
FE0000
FE0000
FE0000
FE0000
FF0000
FF0000
7F8000
7F8000
3FC018
3FF070
1FFFE0
07FF80
03FF00
ENDCHAR
STARTCHAR 010E
ENCODING 270
SWIDTH 720 0
DWIDTH 36 0
BBX 34 45 1 0
BITMAP
0070018000
0078078000
003C0F0000
001E1E0000
000F3E0000
000FFC0000
0007F80000
0003F80000
0003F00000
0000000000
0000000000
FFFFF00000
7FFFFF0000
1FF01FC000
0FF00FF000
0FF007F800
0FF003FC00
0FF001FE00
0FF001FE00
0FF000FF00
0FF000FF00
0FF000FF80
0FF000FF80
0FF0007F80
0FF0007F80
0FF0007FC0
0FF0007FC0
0FF0007FC0
0FF0007FC0
0FF0007FC0
0FF0007FC0
0FF0007F80
0FF0007F80
0FF0007F80
0FF000FF80
0FF000FF00
0FF000FF00
0FF000FE00
0FF001FC00
0FF001F800
0FF003F000
0FF007E000
1FF81FC000
3FFFFF0000
FFFFF00000
ENDCHAR
STARTCHAR 010F
ENCODING 271
SWIDTH 700 0
DWIDTH 35 0
BBX 33 34 1 0
BITMAP
0007FE0380
0001FE0780
0000FE0F80
0000FE0F80
0000FE0F00
0000FE1F00
0000FE1E00
0000FE3C00
0000FE3800
0000FE7000
0000FE0000
03F8FE0000
0FFEFE0000
1FE7FE0000
3F81FE0000
3F80FE0000
7F00FE0000
7F00FE0000
7F00FE0000
FF00FE0000
FE00FE0000
FE00FE0000
FE00FE0000
FE00FE0000
FE00FE0000
FF00FE0000
FF00FE0000
7F00FE0000
7F00FE0000
7F01FE0000
3F83FE0000
1FC7FF8000
0FFEFFC000
07F8F80000
ENDCHAR
STARTCHAR 0110
ENCODING 272
SWIDTH 740 0
DWIDTH 37 0
BBX 34 34 1 0
BITMAP
FFFFF00000
7FFFFF0000
1FF01FC000
0FF00FE000
0FF007F800
0FF003FC00
0FF001FC00
0FF001FE00
0FF000FF00
0FF000FF00
0FF000FF80
0FF000FF80
0FF0007F80
0FF0007F80
0FF0007FC0
0FF0007FC0
FFFF807FC0
FFFF807FC0
0FF0007FC0
0FF0007FC0
0FF0007F80
0FF0007F80
0FF0007F80
0FF0007F80
0FF000FF00
0FF000FF00
0FF000FE00
0FF001FC00
0FF001FC00
0FF003F800
0FF007E000
1FF81FC000
3FFFFF0000
FFFFF80000
ENDCHAR
STARTCHAR 0111
ENCODING 273
SWIDTH 560 0
DWIDTH 28 0
BBX 25 34 1 0
BITMAP
0007FE00
0003FE00
0000FE00
0000FE00
0000FE00
000FFF80
000FFF80
0000FE00
0000FE00
0000FE00
0000FE00
03F8FE00
0FFEFE00
1FE7FE00
3F81FE00
3F80FE00
7F00FE00
7F00FE00
7F00FE00
FF00FE00
FE00FE00
FE00FE00
FE00FE00
FE00FE00
FE00FE00
FF00FE00
FF00FE00
7F00FE00
7F00FE00
7F01FE00
3F83FE00
1FC7FF00
0FFEFF80
07F8F000
ENDCHAR
STARTCHAR 0112
ENCODING 274
SWIDTH 680 0
DWIDTH 34 0
BBX 31 40 1 0
BITMAP
01FFFF00
01FFFF00
01FFFF00
01FFFF00
00000000
00000000
FFFFFFF8
3FFFFFF8
1FF001F8
0FF00078
0FF00038
0FF00018
0FF00018
0FF00018
0FF00408
0FF00408
0FF00C00
0FF00C00
0FF00C00
0FF01C00
0FF07C00
0FFFFC00
0FFFFC00
0FF0FC00
0FF03C00
0FF01C00
0FF00C00
0FF00C00
0FF00400
0FF00402
0FF00006
0FF00006
0FF0000E
0FF0001C
0FF0001C
0FF0003C
0FF000FC
1FF803FC
7FFFFFFC
FFFFFFF8
ENDCHAR
STARTCHAR 0113
ENCODING 275
SWIDTH 440 0
DWIDTH 22 0
BBX 20 31 1 0
BITMAP
3FFFC0
3FFFC0
3FFFC0
3FFFC0
000000
000000
000000
000000
03FE00
0F8F00
1F0780
3E07C0
3E07C0
7E07E0
7E07E0
FE07E0
FE07E0
FFFFE0
FFFFF0
FE0000
FE0000
FE0000
FE0000
FF0000
7F0000
7F8030
3F8060
3FE1C0
1FFF80
0FFF00
03FE00
ENDCHAR
STARTCHAR 0114
ENCODING 276
SWIDTH 680 0
DWIDTH 34 0
BBX 31 45 1 0
BITMAP
00C00600
00E00600
00E00E00
00600E00
00701C00
007FFC00
003FF800
001FF000
000FE000
00000000
00000000
FFFFFFF8
3FFFFFF8
1FF001F8
0FF00078
0FF00038
0FF00018
0FF00018
0FF00018
0FF00408
0FF00408
0FF00C00
0FF00C00
0FF00C00
0FF01C00
0FF07C00
0FFFFC00
0FFFFC00
0FF0FC00
0FF03C00
0FF01C00
0FF00C00
0FF00C00
0FF00400
0FF00402
0FF00006
0FF00006
0FF0000E
0FF0001C
0FF0001C
0FF0003C
0FF000FC
1FF803FC
7FFFFFFC
FFFFFFF8
ENDCHAR
STARTCHAR 0115
ENCODING 277
SWIDTH 440 0
DWIDTH 22 0
BBX 20 34 1 0
BITMAP
1800C0
1801C0
1C01C0
0C0380
0F0780
0FFF80
07FF00
03FE00
00F800
000000
000000
03FE00
0F8F00
1F0780
3E07C0
3E07C0
7E07E0
7E07E0
FE07E0
FE07E0
FFFFE0
FFFFF0
FE0000
FE0000
FE0000
FE0000
FF0000
7F0000
7F8030
3F8060
3FE1C0
1FFF80
0FFF00
03FE00
ENDCHAR
STARTCHAR 0116
ENCODING 278
SWIDTH 680 0
DWIDTH 34 0
BBX 31 44 1 0
BITMAP
00038000
0007C000
000FC000
000FC000
000FC000
00078000
00000000
00000000
00000000
00000000
FFFFFFF8
3FFFFFF8
1FF001F8
0FF00078
0FF00038
0FF00018
0FF00018
0FF00018
0FF00408
0FF00408
0FF00C00
0FF00C00
0FF00C00
0FF01C00
0FF07C00
0FFFFC00
0FFFFC00
0FF0FC00
0FF03C00
0FF01C00
0FF00C00
0FF00C00
0FF00400
0FF00402
0FF00006
0FF00006
0FF0000E
0FF0001C
0FF0001C
0FF0003C
0FF000FC
1FF803FC
7FFFFFFC
FFFFFFF8
ENDCHAR
STARTCHAR 0117
ENCODING 279
SWIDTH 440 0
DWIDTH 22 0
BBX 20 32 1 0
BITMAP
00E000
01F000
01F800
01F800
01F000
00F000
000000
000000
000000
03FE00
0F8F00
1F0780
3E07C0
3E07C0
7E07E0
7E07E0
FE07E0
FE07E0
FFFFE0
FFFFF0
FE0000
FE0000
FE0000
FE0000
FF0000
7F0000
7F8030
3F8060
3FE1C0
1FFF80
0FFF00
03FE00
ENDCHAR
STARTCHAR 0118
ENCODING 280
SWIDTH 660 0
DWIDTH 33 0
BBX 35 43 1 -9
BITMAP
FFFFFFF000
3FFFFFF000
1FF003F000
0FF000F000
0FF0007000
0FF0003000
0FF0003000
0FF0003000
0FF0041000
0FF0041000
0FF00C0000
0FF00C0000
0FF00C0000
0FF01C0000
0FF07C0000
0FFFFC0000
0FFFFC0000
0FF0FC0000
0FF03C0000
0FF01C0000
0FF00C0000
0FF00C0000
0FF0040000
0FF0040600
0FF0000400
0FF0000C00
0FF0000C00
0FF0001C00
0FF0003C00
0FF0007C00
0FF000F800
1FF803F800
7FFFFFF800
FFFFFFF800
0000003800
0000007000
0000007000
000000F000
000000F800
000000FC60
000000FFE0
0000007FC0
0000001F00
ENDCHAR
STARTCHAR 0119
ENCODING 281
SWIDTH 440 0
DWIDTH 22 0
BBX 21 32 1 -8
BITMAP
03FE00
078F80
1F07C0
3F03C0
3E03E0
7E03E0
7E03F0
7E03F0
FE03F0
FFFFF0
FFFFF0
FE0000
FE0000
FE0000
FE0000
FF0000
7F0000
7F8010
3FC070
3FF0E0
1FFFC0
0FFF80
03FF00
000C00
001C00
001C00
003C00
003E00
003F18
003FF8
001FF0
0007C0
ENDCHAR
STARTCHAR 011A
ENCODING 282
SWIDTH 680 0
DWIDTH 34 0
BBX 31 45 1 0
BITMAP
01C00700
00E00E00
00701E00
007C3C00
003E7800
001FF800
001FF000
000FE000
0007C000
00000000
00000000
FFFFFFF8
3FFFFFF8
1FF001F8
0FF00078
0FF00038
0FF00018
0FF00018
0FF00018
0FF00408
0FF00408
0FF00C00
0FF00C00
0FF00C00
0FF01C00
0FF07C00
0FFFFC00
0FFFFC00
0FF0FC00
0FF03C00
0FF01C00
0FF00C00
0FF00C00
0FF00400
0FF00402
0FF00006
0FF00006
0FF0000E
0FF0001C
0FF0001C
0FF0003C
0FF000FC
1FF803FC
7FFFFFFC
FFFFFFF8
ENDCHAR
STARTCHAR 011B
ENCODING 283
SWIDTH 440 0
DWIDTH 22 0
BBX 20 34 1 0
BITMAP
3801C0
1C0380
0F0780
0F9F00
07FE00
03FE00
03FC00
01F800
00F000
000000
000000
03FE00
0F8F00
1F0780
3E07C0
3E07C0
7E07E0
7E07E0
FE07E0
FE07E0
FFFFE0
FFFFF0
FE0000
FE0000
FE0000
FE0000
FF0000
7F0000
7F8030
3F8060
3FE1C0
1FFF80
0FFF00
03FE00
ENDCHAR
STARTCHAR 011C
ENCODING 284
SWIDTH 780 0
DWIDTH 39 0
BBX 36 46 2 -1
BITMAP
0001F00000
0001F80000
0003FC0000
0007FC0000
0007FE0000
000F1F0000
001E0F0000
001C078000
003801C000
0000000000
0007F80200
003FFF8600
00FE03FE00
01F800FE00
03F0007E00
07E0003E00
0FE0001E00
1FC0000E00
1FC0000E00
3FC0000600
3FC0000600
7F80000200
7F80000000
7F80000000
FF80000000
FF80000000
FF80000000
FF80000000
FF80000000
FF80000000
FF80000000
FF801FFFF0
FF8003FFC0
7F8000FF80
7F8000FF00
7FC000FF00
3FC000FF00
3FC000FF00
1FE000FF00
0FE000FF00
0FF000FF00
07F000FF00
01F800FF00
00FE01FE00
003FFFF000
0007FF0000
ENDCHAR
STARTCHAR 011D
ENCODING 285
SWIDTH 500 0
DWIDTH 25 0
BBX 22 44 2 -10
BITMAP
00F800
01FC00
01FE00
03FE00
07DF00
078F80
0F0380
1E01C0
3800E0
000000
000000
07FC00
1F9FFC
3F0FFC
7E07FC
7E07E0
FE07E0
FE07F0
FE07F0
FE07F0
FE07F0
7E07F0
7E07E0
3F0FC0
0F9F80
03FE00
060000
1C0000
3C0000
7C0000
7E0000
FFFF80
FFFFF0
FFFFF8
7FFFF8
1FFFFC
0FFFFC
78007C
F8003C
F0003C
F80038
F80070
7E03E0
1FFF80
ENDCHAR
STARTCHAR 011E
ENCODING 286
SWIDTH 780 0
DWIDTH 39 0
BBX 36 46 2 -1
BITMAP
0030018000
0038038000
0038038000
001C070000
001E0F0000
000FFF0000
000FFE0000
0003FC0000
0000400000
0000000000
0007F80200
003FFF8600
00FE03FE00
01F800FE00
03F0007E00
07E0003E00
0FE0001E00
1FC0000E00
1FC0000E00
3FC0000600
3FC0000600
7F80000200
7F80000000
7F80000000
FF80000000
FF80000000
FF80000000
FF80000000
FF80000000
FF80000000
FF80000000
FF801FFFF0
FF8003FFC0
7F8000FF80
7F8000FF00
7FC000FF00
3FC000FF00
3FC000FF00
1FE000FF00
0FE000FF00
0FF000FF00
07F000FF00
01F800FF00
00FE01FE00
003FFFF000
0007FF0000
ENDCHAR
STARTCHAR 011F
ENCODING 287
SWIDTH 500 0
DWIDTH 25 0
BBX 22 45 2 -10
BITMAP
1800C0
1C00C0
1C01C0
0C01C0
0E0380
0FFF80
07FF00
03FE00
00FC00
000000
000000
000000
07FC00
1F9FFC
3F0FFC
7E07FC
7E07E0
FE07E0
FE07F0
FE07F0
FE07F0
FE07F0
7E07F0
7E07E0
3F0FC0
0F9F80
03FE00
060000
1C0000
3C0000
7C0000
7E0000
FFFF80
FFFFF0
FFFFF8
7FFFF8
1FFFFC
0FFFFC
78007C
F8003C
F0003C
F80038
F80070
7E03E0
1FFF80
ENDCHAR
STARTCHAR 0120
ENCODING 288
SWIDTH 780 0
DWIDTH 39 0
BBX 36 44 2 -1
BITMAP
0000E00000
0001F00000
0003F00000
0003F00000
0001F00000
0001F00000
0000400000
0000000000
0007F80200
003FFF8600
00FE03FE00
01F800FE00
03F0007E00
07E0003E00
0FE0001E00
1FC0000E00
1FC0000E00
3FC0000600
3FC0000600
7F80000200
7F80000000
7F80000000
FF80000000
FF80000000
FF80000000
FF80000000
FF80000000
FF80000000
FF80000000
FF801FFFF0
FF8003FFC0
7F8000FF80
7F8000FF00
7FC000FF00
3FC000FF00
3FC000FF00
1FE000FF00
0FE000FF00
0FF000FF00
07F000FF00
01F800FF00
00FE01FE00
003FFFF000
0007FF0000
ENDCHAR
STARTCHAR 0121
ENCODING 289
SWIDTH 500 0
DWIDTH 25 0
BBX 22 42 2 -10
BITMAP
00F000
00F800
01F800
01F800
00F800
00F000
000000
000000
000000
07FC00
1F9FFC
3F0FFC
7E07FC
7E07E0
FE07E0
FE07F0
FE07F0
FE07F0
FE07F0
7E07F0
7E07E0
3F0FC0
0F9F80
03FE00
060000
1C0000
3C0000
7C0000
7E0000
FFFF80
FFFFF0
FFFFF8
7FFFF8
1FFFFC
0FFFFC
78007C
F8003C
F0003C
F80038
F80070
7E03E0
1FFF80
ENDCHAR
STARTCHAR 0122
ENCODING 290
SWIDTH 780 0
DWIDTH 39 0
BBX 36 50 2 -15
BITMAP
0007F80200
003FFF8600
00FE03FE00
01F800FE00
03F0007E00
07E0003E00
0FE0001E00
1FC0000E00
1FC0000E00
3FC0000600
3FC0000600
7F80000200
7F80000000
7F80000000
FF80000000
FF80000000
FF80000000
FF80000000
FF80000000
FF80000000
FF80000000
FF801FFFF0
FF8003FFC0
7F8000FF80
7F8000FF00
7FC000FF00
3FC000FF00
3FC000FF00
1FE000FF00
0FE000FF00
0FF000FF00
07F000FF00
01F800FF00
00FE01FE00
003FFFF000
0007FF0000
0000000000
0000000000
0001F00000
0003F80000
0003FC0000
0003FC0000
0003FC0000
0001FC0000
00001C0000
0000180000
0000300000
0000600000
0001C00000
0001000000
ENDCHAR
STARTCHAR 0123
ENCODING 291
SWIDTH 500 0
DWIDTH 25 0
BBX 22 48 2 -10
BITMAP
001800
007000
00E000
01C000
018000
038000
03F800
03FC00
03FC00
03FC00
01FC00
00F800
000000
000000
000000
07FC00
1F9FFC
3F0FFC
7E07FC
7E07E0
FE07E0
FE07F0
FE07F0
FE07F0
FE07F0
7E07F0
7E07E0
3F0FC0
0F9F80
03FE00
060000
1C0000
3C0000
7C0000
7E0000
FFFF80
FFFFF0
FFFFF8
7FFFF8
1FFFFC
0FFFFC
78007C
F8003C
F0003C
F80038
F80070
7E03E0
1FFF80
ENDCHAR
STARTCHAR 0124
ENCODING 292
SWIDTH 780 0
DWIDTH 39 0
BBX 36 45 1 0
BITMAP
0000F80000
0001F80000
0003FC0000
0003FE0000
0007FE0000
000F8F0000
000F078000
001E038000
003801C000
0000000000
0000000000
FFFF0FFFF0
7FFE07FFE0
1FF801FF80
0FF000FF00
0FF000FF00
0FF000FF00
0FF000FF00
0FF000FF00
0FF000FF00
0FF000FF00
0FF000FF00
0FF000FF00
0FF000FF00
0FF000FF00
0FF000FF00
0FF000FF00
0FFFFFFF00
0FFFFFFF00
0FF000FF00
0FF000FF00
0FF000FF00
0FF000FF00
0FF000FF00
0FF000FF00
0FF000FF00
0FF000FF00
0FF000FF00
0FF000FF00
0FF000FF00
0FF000FF00
0FF000FF00
1FF801FF80
7FFE07FFE0
FFFF0FFFF0
ENDCHAR
STARTCHAR 0125
ENCODING 293
SWIDTH 560 0
DWIDTH 28 0
BBX 24 45 2 0
BITMAP
007C00
007E00
00FF00
01FF00
01FF80
03C7C0
0783C0
0701E0
0E0070
000000
000000
FF8000
7F8000
3F8000
3F8000
3F8000
3F8000
3F8000
3F8000
3F8000
3F8000
3F8000
3F8FE0
3F9FF0
3FBFF8
3FE3F8
3FC1FC
3F81FC
3F81FC
3F81FC
3F81FC
3F81FC
3F81FC
3F81FC
3F81FC
3F81FC
3F81FC
3F81FC
3F81FC
3F81FC
3F81FC
3F81FC
3F81FC
7FC3FE
FFE7FF
ENDCHAR
STARTCHAR 0126
ENCODING 294
SWIDTH 780 0
DWIDTH 39 0
BBX 36 34 1 0
BITMAP
FFFF0FFFF0
7FFE03FFE0
1FF801FF80
0FF000FF00
0FF000FF00
FFFFFFFFF0
FFFFFFFFF0
FFFFFFFFF0
0FF000FF00
0FF000FF00
0FF000FF00
0FF000FF00
0FF000FF00
0FF000FF00
0FF000FF00
0FF000FF00
0FFFFFFF00
0FFFFFFF00
0FF000FF00
0FF000FF00
0FF000FF00
0FF000FF00
0FF000FF00
0FF000FF00
0FF000FF00
0FF000FF00
0FF000FF00
0FF000FF00
0FF000FF00
0FF000FF00
0FF000FF00
1FF801FF80
7FFE07FFE0
FFFF0FFFF0
ENDCHAR
STARTCHAR 0127
ENCODING 295
SWIDTH 560 0
DWIDTH 28 0
BBX 26 34 0 0
BITMAP
7FC00000
3FC00000
1FC00000
1FC00000
1FC00000
FFFFE000
FFFFE000
FFFFE000
1FC00000
1FC00000
1FC00000
1FC7F800
1FCFFC00
1FDFFE00
1FF0FE00
1FE07F00
1FC07F00
1FC07F00
1FC07F00
1FC07F00
1FC07F00
1FC07F00
1FC07F00
1FC07F00
1FC07F00
1FC07F00
1FC07F00
1FC07F00
1FC07F00
1FC07F00
1FC07F00
1FC07F00
3FE0FF80
7FF1FFC0
ENDCHAR
STARTCHAR 0128
ENCODING 296
SWIDTH 400 0
DWIDTH 20 0
BBX 18 43 0 0
BITMAP
0F80C0
3FE1C0
7FFF80
7FFF80
E0FF00
C01C00
000000
000000
000000
3FFFC0
1FFF00
07FE00
03FC00
03FC00
03FC00
03FC00
03FC00
03FC00
03FC00
03FC00
03FC00
03FC00
03FC00
03FC00
03FC00
03FC00
03FC00
03FC00
03FC00
03FC00
03FC00
03FC00
03FC00
03FC00
03FC00
03FC00
03FC00
03FC00
03FC00
03FC00
07FE00
1FFF00
3FFFC0
ENDCHAR
STARTCHAR 0129
ENCODING 297
SWIDTH 300 0
DWIDTH 15 0
BBX 18 32 -2 0
BITMAP
1F80C0
3FF3C0
7FFF80
77FF00
C0FE00
000000
000000
000000
000000
0FF800
07F800
03F800
03F800
03F800
03F800
03F800
03F800
03F800
03F800
03F800
03F800
03F800
03F800
03F800
03F800
03F800
03F800
03F800
03F800
03F800
07FC00
0FFE00
ENDCHAR
STARTCHAR 012A
ENCODING 298
SWIDTH 400 0
DWIDTH 20 0
BBX 17 42 1 0
BITMAP
FFFF80
FFFF80
FFFF80
FFFF80
000000
000000
000000
000000
7FFF80
3FFE00
0FFC00
07F800
07F800
07F800
07F800
07F800
07F800
07F800
07F800
07F800
07F800
07F800
07F800
07F800
07F800
07F800
07F800
07F800
07F800
07F800
07F800
07F800
07F800
07F800
07F800
07F800
07F800
07F800
07F800
0FFC00
3FFE00
7FFF80
ENDCHAR
STARTCHAR 012B
ENCODING 299
SWIDTH 300 0
DWIDTH 15 0
BBX 17 31 -1 0
BITMAP
FFFF80
FFFF80
FFFF80
FFFF80
000000
000000
000000
000000
1FF000
0FF000
07F000
07F000
07F000
07F000
07F000
07F000
07F000
07F000
07F000
07F000
07F000
07F000
07F000
07F000
07F000
07F000
07F000
07F000
07F000
0FF800
1FFC00
ENDCHAR
STARTCHAR 012C
ENCODING 300
SWIDTH 400 0
DWIDTH 20 0
BBX 16 45 2 0
BITMAP
C006
E006
600E
700E
701C
7FFC
3FF8
1FF8
07E0
0000
0000
FFFF
7FFC
1FF8
0FF0
0FF0
0FF0
0FF0
0FF0
0FF0
0FF0
0FF0
0FF0
0FF0
0FF0
0FF0
0FF0
0FF0
0FF0
0FF0
0FF0
0FF0
0FF0
0FF0
0FF0
0FF0
0FF0
0FF0
0FF0
0FF0
0FF0
0FF0
1FF8
7FFC
FFFF
ENDCHAR
STARTCHAR 012D
ENCODING 301
SWIDTH 300 0
DWIDTH 15 0
BBX 15 34 0 0
BITMAP
C006
C00E
E00E
601C
783C
7FFC
3FF8
1FF0
07C0
0000
0000
3FE0
1FE0
0FE0
0FE0
0FE0
0FE0
0FE0
0FE0
0FE0
0FE0
0FE0
0FE0
0FE0
0FE0
0FE0
0FE0
0FE0
0FE0
0FE0
0FE0
0FE0
1FF0
3FF8
ENDCHAR
STARTCHAR 012E
ENCODING 302
SWIDTH 380 0
DWIDTH 19 0
BBX 23 43 2 -9
BITMAP
FFFF80
7FFE00
1FF800
0FF000
0FF000
0FF000
0FF000
0FF000
0FF000
0FF000
0FF000
0FF000
0FF000
0FF000
0FF000
0FF000
0FF000
0FF000
0FF000
0FF000
0FF000
0FF000
0FF000
0FF000
0FF000
0FF000
0FF000
0FF000
0FF000
0FF000
0FF000
1FF800
7FFE00
FFFF80
000380
000700
000700
000F00
000F80
000FC6
000FFE
0007FC
0001F0
ENDCHAR
STARTCHAR 012F
ENCODING 303
SWIDTH 300 0
DWIDTH 15 0
BBX 18 44 2 -9
BITMAP
0F0000
3F0000
7F8000
7F8000
7F8000
7F8000
3F0000
0E0000
000000
000000
000000
000000
FF8000
7F8000
3F8000
3F8000
3F8000
3F8000
3F8000
3F8000
3F8000
3F8000
3F8000
3F8000
3F8000
3F8000
3F8000
3F8000
3F8000
3F8000
3F8000
3F8000
3F8000
7FE000
FFF000
00F000
00E000
01E000
01E000
01F000
01F8C0
01FFC0
00FF80
003E00
ENDCHAR
STARTCHAR 0130
ENCODING 304
SWIDTH 400 0
DWIDTH 20 0
BBX 16 44 2 0
BITMAP
0380
07C0
0FC0
0FC0
0FC0
0780
0000
0000
0000
0000
FFFF
7FFC
1FF8
0FF0
0FF0
0FF0
0FF0
0FF0
0FF0
0FF0
0FF0
0FF0
0FF0
0FF0
0FF0
0FF0
0FF0
0FF0
0FF0
0FF0
0FF0
0FF0
0FF0
0FF0
0FF0
0FF0
0FF0
0FF0
0FF0
0FF0
0FF0
1FF8
7FFC
FFFF
ENDCHAR
STARTCHAR 0131
ENCODING 305
SWIDTH 300 0
DWIDTH 15 0
BBX 11 23 2 0
BITMAP
FF80
7F80
3F80
3F80
3F80
3F80
3F80
3F80
3F80
3F80
3F80
3F80
3F80
3F80
3F80
3F80
3F80
3F80
3F80
3F80
3F80
7FC0
FFE0
ENDCHAR
STARTCHAR 0132
ENCODING 306
SWIDTH 880 0
DWIDTH 44 0
BBX 41 39 2 -5
BITMAP
FFFF00FFFF80
7FFC003FFF00
1FF8000FFC00
0FF00007F800
0FF00007F800
0FF00007F800
0FF00007F800
0FF00007F800
0FF00007F800
0FF00007F800
0FF00007F800
0FF00007F800
0FF00007F800
0FF00007F800
0FF00007F800
0FF00007F800
0FF00007F800
0FF00007F800
0FF00007F800
0FF00007F800
0FF00007F800
0FF00007F800
0FF00007F800
0FF00007F800
0FF00007F800
0FF00007F800
0FF00007F800
0FF00007F800
0FF00007F800
0FF00807F800
0FF03E07F800
1FF87F07F800
7FFC7F07F000
FFFF7F07F000
00007E07E000
00003E0FE000
00003E0FC000
00000FFF0000
000003FC0000
ENDCHAR
STARTCHAR 0133
ENCODING 307
SWIDTH 620 0
DWIDTH 31 0
BBX 25 45 2 -10
BITMAP
1E001E00
3F007F00
7F807F00
7F80FF80
7F807F80
7F807F00
3F007F00
0E001C00
00000000
00000000
00000000
00000000
FF83FF80
7F80FF80
3F807F80
3F807F80
3F807F80
3F807F80
3F807F80
3F807F80
3F807F80
3F807F80
3F807F80
3F807F80
3F807F80
3F807F80
3F807F80
3F807F80
3F807F80
3F807F80
3F807F80
3F807F80
3F807F80
7FC07F80
FFE07F80
00007F00
00007F00
00107F00
007C7F00
007C7F00
00FC7E00
007C7E00
00787C00
003FF800
000FE000
ENDCHAR
STARTCHAR 0134
ENCODING 308
SWIDTH 500 0
DWIDTH 25 0
BBX 24 50 0 -5
BITMAP
0007C0
000FE0
000FE0
001FF0
003EF8
003C78
00783C
00F01E
00E00E
000000
000000
01FFFF
007FFE
001FF8
000FF0
000FF0
000FF0
000FF0
000FF0
000FF0
000FF0
000FF0
000FF0
000FF0
000FF0
000FF0
000FF0
000FF0
000FF0
000FF0
000FF0
000FF0
000FF0
000FF0
000FF0
000FF0
000FF0
000FF0
000FF0
000FF0
100FF0
7C0FF0
FE0FF0
FE0FE0
FE0FE0
FC0FE0
7C0FC0
3C1F80
1FFF00
07F800
ENDCHAR
STARTCHAR 0135
ENCODING 309
SWIDTH 400 0
DWIDTH 20 0
BBX 19 44 0 -10
BITMAP
00FC00
00FC00
01FE00
03FF00
07CF00
078780
0F03C0
1E01C0
1C00E0
000000
000000
03FF00
00FF00
007F00
007F00
007F00
007F00
007F00
007F00
007F00
007F00
007F00
007F00
007F00
007F00
007F00
007F00
007F00
007F00
007F00
007F00
007F00
007F00
007F00
007F00
007F00
307F00
787F00
FC7E00
FC7E00
F87C00
78FC00
3FF800
0FC000
ENDCHAR
STARTCHAR 0136
ENCODING 310
SWIDTH 780 0
DWIDTH 39 0
BBX 37 49 1 -15
BITMAP
FFFF0FFFE0
3FFE03FF80
1FF8007C00
0FF0007800
0FF000E000
0FF001C000
0FF0038000
0FF0070000
0FF00E0000
0FF01C0000
0FF0380000
0FF0700000
0FF0E00000
0FF1F00000
0FF3F00000
0FF7F80000
0FFFFC0000
0FFFFE0000
0FFBFF0000
0FF1FF0000
0FF1FF8000
0FF0FFC000
0FF07FE000
0FF03FF000
0FF01FF000
0FF01FF800
0FF00FFC00
0FF007FE00
0FF003FF00
0FF001FF00
0FF001FF80
1FF800FFC0
7FFE03FFE0
FFFF0FFFF8
0000000000
0000000000
0000000000
0003E00000
0007F00000
0007F80000
0007F80000
0007F80000
0003F80000
0000380000
0000300000
0000600000
0000C00000
0003800000
0002000000
ENDCHAR
STARTCHAR 0137
ENCODING 311
SWIDTH 560 0
DWIDTH 28 0
BBX 26 49 2 -15
BITMAP
FF800000
7F800000
3F800000
3F800000
3F800000
3F800000
3F800000
3F800000
3F800000
3F800000
3F800000
3F87FF00
3F81FE00
3F80F000
3F80E000
3F81C000
3F838000
3F870000
3F8E0000
3F9E0000
3FBF0000
3FFF8000
3FFFC000
3FDFC000
3F9FE000
3F8FF000
3F87F000
3F87F800
3F83FC00
3F81FE00
3F81FE00
3F80FF00
7FC0FF80
FFE3FFC0
00000000
00000000
00000000
00F80000
01FC0000
01FE0000
01FE0000
01FE0000
00FE0000
000E0000
000C0000
00180000
00300000
00E00000
00800000
ENDCHAR
STARTCHAR 0138
ENCODING 312
SWIDTH 540 0
DWIDTH 27 0
BBX 24 23 2 1
BITMAP
FFE07E
7FC0FE
3F81FE
3F819E
3F8380
3F8300
3F8300
3F8700
3F8E00
3FBE00
3FF800
3FFF00
3FBFC0
3F9FC0
3F8FE0
3F8FE0
3F87F0
3F83F8
3F83F8
3F81FC
3F81FC
7FC0FE
FFE07F
ENDCHAR
STARTCHAR 0139
ENCODING 313
SWIDTH 660 0
DWIDTH 33 0
BBX 30 45 1 0
BITMAP
00001000
00007800
0000FC00
0001FC00
0003F800
0007E000
000FC000
000F0000
001C0000
00380000
00000000
FFFF8000
3FFE0000
1FF80000
0FF00000
0FF00000
0FF00000
0FF00000
0FF00000
0FF00000
0FF00000
0FF00000
0FF00000
0FF00000
0FF00000
0FF00000
0FF00000
0FF00000
0FF00000
0FF00000
0FF00000
0FF00000
0FF00000
0FF00000
0FF00004
0FF0000C
0FF0000C
0FF0001C
0FF0001C
0FF0003C
0FF00078
0FF001F8
1FF807F8
7FFFFFF8
FFFFFFF8
ENDCHAR
STARTCHAR 013A
ENCODING 314
SWIDTH 280 0
DWIDTH 14 0
BBX 12 45 2 0
BITMAP
0020
00F0
01F0
03F0
07F0
0FC0
1F00
3E00
3800
7000
0000
FF80
7F80
3F80
3F80
3F80
3F80
3F80
3F80
3F80
3F80
3F80
3F80
3F80
3F80
3F80
3F80
3F80
3F80
3F80
3F80
3F80
3F80
3F80
3F80
3F80
3F80
3F80
3F80
3F80
3F80
3F80
3F80
7FC0
FFE0
ENDCHAR
STARTCHAR 013B
ENCODING 315
SWIDTH 660 0
DWIDTH 33 0
BBX 30 49 1 -15
BITMAP
FFFF8000
3FFE0000
1FF80000
0FF00000
0FF00000
0FF00000
0FF00000
0FF00000
0FF00000
0FF00000
0FF00000
0FF00000
0FF00000
0FF00000
0FF00000
0FF00000
0FF00000
0FF00000
0FF00000
0FF00000
0FF00000
0FF00000
0FF00000
0FF00004
0FF0000C
0FF0000C
0FF0001C
0FF0001C
0FF0003C
0FF00078
0FF001F8
1FF807F8
7FFFFFF8
FFFFFFF8
00000000
00000000
00000000
0007C000
000FE000
000FF000
000FF000
000FF000
0007F000
00007000
00006000
0000C000
00018000
00070000
00040000
ENDCHAR
STARTCHAR 013C
ENCODING 316
SWIDTH 280 0
DWIDTH 14 0
BBX 11 49 2 -15
BITMAP
FF80
7F80
3F80
3F80
3F80
3F80
3F80
3F80
3F80
3F80
3F80
3F80
3F80
3F80
3F80
3F80
3F80
3F80
3F80
3F80
3F80
3F80
3F80
3F80
3F80
3F80
3F80
3F80
3F80
3F80
3F80
3F80
7FC0
FFE0
0000
0000
0000
3E00
7F00
7F80
7F80
7F80
3F80
0380
0300
0600
0C00
3800
2000
ENDCHAR
STARTCHAR 013D
ENCODING 317
SWIDTH 660 0
DWIDTH 33 0
BBX 30 34 1 0
BITMAP
FFFF801C
3FFE003C
1FF8007C
0FF0007C
0FF00078
0FF000F8
0FF000F0
0FF001E0
0FF001C0
0FF00380
0FF00000
0FF00000
0FF00000
0FF00000
0FF00000
0FF00000
0FF00000
0FF00000
0FF00000
0FF00000
0FF00000
0FF00000
0FF00000
0FF00004
0FF0000C
0FF0000C
0FF0001C
0FF0001C
0FF0003C
0FF00078
0FF001F8
1FF807F8
7FFFFFF8
FFFFFFF8
ENDCHAR
STARTCHAR 013E
ENCODING 318
SWIDTH 440 0
DWIDTH 22 0
BBX 19 34 2 0
BITMAP
FF80E0
7F81E0
3F83E0
3F83E0
3F83C0
3F87C0
3F8780
3F8F00
3F8E00
3F9C00
3F8000
3F8000
3F8000
3F8000
3F8000
3F8000
3F8000
3F8000
3F8000
3F8000
3F8000
3F8000
3F8000
3F8000
3F8000
3F8000
3F8000
3F8000
3F8000
3F8000
3F8000
3F8000
7FC000
FFE000
ENDCHAR
STARTCHAR 013F
ENCODING 319
SWIDTH 660 0
DWIDTH 33 0
BBX 30 34 1 0
BITMAP
FFFF8000
3FFE0000
1FF80000
0FF00000
0FF00000
0FF00000
0FF00000
0FF00000
0FF00000
0FF00000
0FF00000
0FF00000
0FF00000
0FF00000
0FF00000
0FF00000
0FF00380
0FF007C0
0FF007E0
0FF007E0
0FF007E0
0FF003C0
0FF00100
0FF00004
0FF0000C
0FF0000C
0FF0001C
0FF0001C
0FF0003C
0FF00078
0FF001F8
1FF807F8
7FFFFFF8
FFFFFFF8
ENDCHAR
STARTCHAR 0140
ENCODING 320
SWIDTH 460 0
DWIDTH 23 0
BBX 19 34 2 0
BITMAP
FF8000
7F8000
3F8000
3F8000
3F8000
3F8000
3F8000
3F8000
3F8000
3F8000
3F8000
3F8000
3F8000
3F8000
3F8000
3F8000
3F8000
3F83C0
3F87E0
3F87E0
3F87E0
3F87C0
3F8380
3F8000
3F8000
3F8000
3F8000
3F8000
3F8000
3F8000
3F8000
3F8000
7FC000
FFE000
ENDCHAR
STARTCHAR 0141
ENCODING 321
SWIDTH 660 0
DWIDTH 33 0
BBX 30 34 1 0
BITMAP
FFFF8000
3FFE0000
1FF80000
0FF00000
0FF00000
0FF00000
0FF00000
0FF00000
0FF04000
0FF0C000
0FF3C000
0FFF8000
0FFF0000
0FFC0000
0FF80000
0FF00000
0FF00000
3FF00000
7FF00000
FFF00000
CFF00000
8FF00000
0FF00000
0FF00004
0FF0000C
0FF0000C
0FF0001C
0FF0001C
0FF0003C
0FF00078
0FF001F8
1FF807F8
7FFFFFF8
FFFFFFF8
ENDCHAR
STARTCHAR 0142
ENCODING 322
SWIDTH 280 0
DWIDTH 14 0
BBX 16 34 -1 0
BITMAP
3FE0
1FE0
0FE0
0FE0
0FE0
0FE0
0FE0
0FE0
0FE3
0FE7
0FEE
0FFC
0FF8
0FE0
0FE0
0FE0
1FE0
3FE0
7FE0
EFE0
8FE0
0FE0
0FE0
0FE0
0FE0
0FE0
0FE0
0FE0
0FE0
0FE0
0FE0
0FE0
1FF0
3FF8
ENDCHAR
STARTCHAR 0143
ENCODING 323
SWIDTH 720 0
DWIDTH 36 0
BBX 33 45 1 0
BITMAP
0000020000
00000F0000
00001F8000
00003F0000
00007F0000
0000FC0000
0001F80000
0001E00000
0003800000
0007000000
0000000000
FFE000FF80
7FF0007F00
3FF0001E00
1FF8000C00
0FFC000C00
0FFE000C00
0FFF000C00
0FFF000C00
0DFF800C00
0CFFC00C00
0C7FE00C00
0C3FF00C00
0C3FF80C00
0C1FF80C00
0C0FFC0C00
0C07FE0C00
0C03FF0C00
0C01FF8C00
0C01FF8C00
0C00FFCC00
0C007FEC00
0C003FFC00
0C001FFC00
0C000FFC00
0C0007FC00
0C0007FC00
0C0003FC00
0C0001FC00
0C0000FC00
0C00007C00
0C00003C00
1E00003C00
7F80001C00
FFC0000C00
ENDCHAR
STARTCHAR 0144
ENCODING 324
SWIDTH 560 0
DWIDTH 28 0
BBX 24 35 2 0
BITMAP
0001E0
0003E0
0007E0
000FE0
000FC0
001F00
003C00
007800
00E000
000000
000000
000000
FF8FE0
7F9FF0
3FBFF8
3FE3F8
3FC1FC
3F81FC
3F81FC
3F81FC
3F81FC
3F81FC
3F81FC
3F81FC
3F81FC
3F81FC
3F81FC
3F81FC
3F81FC
3F81FC
3F81FC
3F81FC
3F81FC
7FC3FE
FFE7FF
ENDCHAR
STARTCHAR 0145
ENCODING 325
SWIDTH 720 0
DWIDTH 36 0
BBX 33 49 1 -15
BITMAP
FFE000FF80
7FF0007F00
3FF0001E00
1FF8000C00
0FFC000C00
0FFE000C00
0FFF000C00
0FFF000C00
0DFF800C00
0CFFC00C00
0C7FE00C00
0C3FF00C00
0C3FF80C00
0C1FF80C00
0C0FFC0C00
0C07FE0C00
0C03FF0C00
0C01FF8C00
0C01FF8C00
0C00FFCC00
0C007FEC00
0C003FFC00
0C001FFC00
0C000FFC00
0C0007FC00
0C0007FC00
0C0003FC00
0C0001FC00
0C0000FC00
0C00007C00
0C00003C00
1E00003C00
7F80001C00
FFC0000C00
0000000000
0000000000
0000000000
0007C00000
000FE00000
000FF00000
000FF00000
000FF00000
0007F00000
0000700000
0000600000
0000C00000
0001800000
0007000000
0004000000
ENDCHAR
STARTCHAR 0146
ENCODING 326
SWIDTH 560 0
DWIDTH 28 0
BBX 24 38 2 -14
BITMAP
FF8FE0
7F9FF0
3FBFF8
3FE3F8
3FC1FC
3F81FC
3F81FC
3F81FC
3F81FC
3F81FC
3F81FC
3F81FC
3F81FC
3F81FC
3F81FC
3F81FC
3F81FC
3F81FC
3F81FC
3F81FC
3F81FC
7FC3FE
FFE7FF
000000
000000
000000
007C00
00FE00
00FF00
00FF00
00FF00
007F00
000700
000600
000C00
001800
007000
004000
ENDCHAR
STARTCHAR 0147
ENCODING 327
SWIDTH 720 0
DWIDTH 36 0
BBX 33 45 1 0
BITMAP
0070018000
0078078000
003C0F0000
001E1E0000
001F3E0000
000FFC0000
0007F80000
0003F80000
0003F00000
0000000000
0000000000
FFE000FF80
7FF0007F00
3FF0001E00
1FF8000C00
0FFC000C00
0FFE000C00
0FFF000C00
0FFF000C00
0DFF800C00
0CFFC00C00
0C7FE00C00
0C3FF00C00
0C3FF80C00
0C1FF80C00
0C0FFC0C00
0C07FE0C00
0C03FF0C00
0C01FF8C00
0C01FF8C00
0C00FFCC00
0C007FEC00
0C003FFC00
0C001FFC00
0C000FFC00
0C0007FC00
0C0007FC00
0C0003FC00
0C0001FC00
0C0000FC00
0C00007C00
0C00003C00
1E00003C00
7F80001C00
FFC0000C00
ENDCHAR
STARTCHAR 0148
ENCODING 328
SWIDTH 560 0
DWIDTH 28 0
BBX 24 34 2 0
BITMAP
0E0070
0700E0
0781E0
03E7C0
01FF80
00FF00
00FF00
007E00
003C00
000000
000000
FF8FE0
7F9FF0
3FBFF8
3FE3F8
3FC1FC
3F81FC
3F81FC
3F81FC
3F81FC
3F81FC
3F81FC
3F81FC
3F81FC
3F81FC
3F81FC
3F81FC
3F81FC
3F81FC
3F81FC
3F81FC
3F81FC
7FC3FE
FFE7FF
ENDCHAR
STARTCHAR 0149
ENCODING 329
SWIDTH 620 0
DWIDTH 31 0
BBX 30 37 0 0
BITMAP
7C000000
FE000000
FF000000
FF000000
FF000000
7F000000
07000000
06000000
0E000000
1C000000
38000000
60000000
00000000
00000000
07FC7F80
03FCFFC0
01FDFFC0
01FD0FE0
01FE0FE0
01FE0FE0
01FE0FF0
01FE0FF0
01FE0FF0
01FE0FF0
01FE0FF0
01FE0FF0
01FE0FF0
01FE0FF0
01FE0FF0
01FE0FF0
01FE0FF0
01FE0FF0
01FE0FF0
01FE0FF0
01FE0FF0
03FF1FF0
07FFBFFC
ENDCHAR
STARTCHAR 014A
ENCODING 330
SWIDTH 820 0
DWIDTH 41 0
BBX 39 35 1 0
BITMAP
00000FF000
FFF87FFE00
3FF8FFFF80
0FF9F1FFC0
07FB803FE0
07FB001FF0
07FE000FF0
07FE0007F8
07FC0007F8
07F80007FC
07F80003FC
07F80003FC
07F80003FE
07F80003FE
07F80001FE
07F80001FE
07F80001FE
07F80001FE
07F80001FE
07F80001FE
07F80001FE
07F80001FE
07F80001FE
07F80001FE
07F80001FE
07F80001FC
07F81E01FC
07F83F01FC
07F83F83F8
07F83F83F8
07F83F83F0
07F83F03E0
0FFC1F07C0
1FFF0F8F80
7FFF83FE00
ENDCHAR
STARTCHAR 014B
ENCODING 331
SWIDTH 560 0
DWIDTH 28 0
BBX 23 33 2 -9
BITMAP
FF8FF0
7F9FF8
3FBFFC
3FE1FC
3FC0FE
3F80FE
3F80FE
3F80FE
3F80FE
3F80FE
3F80FE
3F80FE
3F80FE
3F80FE
3F80FE
3F80FE
3F80FE
3F80FE
3F80FE
3F80FE
3F80FE
7FC0FE
FFE0FE
0000FE
0000FE
0060FE
00F0FE
01F8FC
01F8FC
01F0F8
00F1F8
007FF0
001F80
ENDCHAR
STARTCHAR 014C
ENCODING 332
SWIDTH 780 0
DWIDTH 39 0
BBX 35 41 2 -1
BITMAP
007FFFC000
007FFFC000
007FFFC000
007FFFC000
0000000000
0007FC0000
003FFF8000
00FC07E000
01F803F000
03F001F800
07E001FC00
0FE000FE00
1FC000FF00
3FC0007F80
3FC0007F80
7FC0007F80
7F80007FC0
7F80003FC0
FF80003FC0
FF80003FE0
FF80003FE0
FF80003FE0
FF80003FE0
FF80003FE0
FF80003FE0
FF80003FE0
FF80003FE0
FF80003FC0
7F80003FC0
7F80003FC0
7F80007FC0
3FC0007F80
3FC0007F80
1FC0007F00
0FE000FE00
07E000FC00
03F001F800
01F803F000
00FC07E000
003FFF8000
0007FC0000
ENDCHAR
STARTCHAR 014D
ENCODING 333
SWIDTH 500 0
DWIDTH 25 0
BBX 22 31 1 0
BITMAP
1FFFF0
1FFFF0
1FFFF0
1FFFF0
000000
000000
000000
000000
01FF00
07C7C0
0F83E0
1F03F0
3F03F0
7F01F8
7F01F8
7F01FC
FE01FC
FE01FC
FE01FC
FE01FC
FE01FC
FE01FC
FE01FC
7E01FC
7F01FC
7F01F8
3F03F0
1F03F0
0F83E0
07C7C0
03FF00
ENDCHAR
STARTCHAR 014E
ENCODING 334
SWIDTH 780 0
DWIDTH 39 0
BBX 35 46 2 -1
BITMAP
0030018000
0038018000
0038038000
0018038000
001C070000
001FFF0000
000FFE0000
0007FC0000
0003F80000
0000000000
0007FC0000
003FFF8000
00FC07E000
01F803F000
03F001F800
07E001FC00
0FE000FE00
1FC000FF00
3FC0007F80
3FC0007F80
7FC0007F80
7F80007FC0
7F80003FC0
FF80003FC0
FF80003FE0
FF80003FE0
FF80003FE0
FF80003FE0
FF80003FE0
FF80003FE0
FF80003FE0
FF80003FE0
FF80003FC0
7F80003FC0
7F80003FC0
7F80007FC0
3FC0007F80
3FC0007F80
1FC0007F00
0FE000FE00
07E000FC00
03F001F800
01F803F000
00FC07E000
003FFF8000
0007FC0000
ENDCHAR
STARTCHAR 014F
ENCODING 335
SWIDTH 500 0
DWIDTH 25 0
BBX 22 34 1 0
BITMAP
0C0060
0E0060
0600E0
0700E0
0781C0
03FFC0
03FF80
01FF00
007C00
000000
000000
01FF00
07C7C0
0F83E0
1F03F0
3F03F0
7F01F8
7F01F8
7F01FC
FE01FC
FE01FC
FE01FC
FE01FC
FE01FC
FE01FC
FE01FC
7E01FC
7F01FC
7F01F8
3F03F0
1F03F0
0F83E0
07C7C0
03FF00
ENDCHAR
STARTCHAR 0150
ENCODING 336
SWIDTH 780 0
DWIDTH 39 0
BBX 35 46 2 -1
BITMAP
0000404000
0001E0F000
0001F1F000
0003E3F000
0003E3F000
0007C7E000
0007878000
00070F0000
000F1E0000
000E1C0000
0007FC0000
003FFF8000
00FC07E000
01F803F000
03F001F800
07E001FC00
0FE000FE00
1FC000FF00
3FC0007F80
3FC0007F80
7FC0007F80
7F80007FC0
7F80003FC0
FF80003FC0
FF80003FE0
FF80003FE0
FF80003FE0
FF80003FE0
FF80003FE0
FF80003FE0
FF80003FE0
FF80003FE0
FF80003FC0
7F80003FC0
7F80003FC0
7F80007FC0
3FC0007F80
3FC0007F80
1FC0007F00
0FE000FE00
07E000FC00
03F001F800
01F803F000
00FC07E000
003FFF8000
0007FC0000
ENDCHAR
STARTCHAR 0151
ENCODING 337
SWIDTH 500 0
DWIDTH 25 0
BBX 22 35 1 0
BITMAP
00383C
007C7C
007C7C
00F8FC
00F8F8
01F1F0
01E3E0
01C3C0
038700
000000
000000
000000
01FF00
07C7C0
0F83E0
1F03F0
3F03F0
7F01F8
7F01F8
7F01FC
FE01FC
FE01FC
FE01FC
FE01FC
FE01FC
FE01FC
FE01FC
7E01FC
7F01FC
7F01F8
3F03F0
1F03F0
0F83E0
07C7C0
03FF00
ENDCHAR
STARTCHAR 0152
ENCODING 338
SWIDTH 1000 0
DWIDTH 50 0
BBX 48 34 1 1
BITMAP
001FFFFFFFFC
007F0FFFFFFC
01FC03FE00FC
03F003FE003C
07F001FE001C
0FE001FE000C
1FC001FE000C
3FC001FE0004
3FC001FE0204
7F8001FE0204
7F8001FE0600
7F8001FE0600
FF8001FE0600
FF8001FE0E00
FF8001FE1E00
FF8001FFFE00
FF8001FFFE00
FF8001FE3E00
FF8001FE0E00
FF8001FE0600
FF8001FE0600
FF8001FE0200
7F8001FE0200
7F8001FE0201
7F8001FE0003
3F8001FE0003
3FC001FE0007
1FC001FE0007
0FC001FE000E
0FE001FE001E
07F003FE003E
01F803FE00FE
00FE0FFFFFFE
001FFFFFFFFC
ENDCHAR
STARTCHAR 0153
ENCODING 339
SWIDTH 720 0
DWIDTH 36 0
BBX 35 23 1 1
BITMAP
01FF07F800
0787DF1E00
0F83FE0F00
1F01FC0F80
3F01FC0F80
7F01FC0FC0
7F01FC0FC0
7E01FC0FC0
FE01FC0FC0
FE01FFFFC0
FE01FFFFC0
FE01FC0000
FE01FC0000
FE01FC0000
FE01FC0000
FF01FC0000
7F01FE0000
7F01FE0060
3F01FF00C0
1F03FFC380
1F83FFFF00
07C7DFFE00
03FF07F800
ENDCHAR
STARTCHAR 0154
ENCODING 340
SWIDTH 720 0
DWIDTH 36 0
BBX 35 45 1 0
BITMAP
0000040000
00001F0000
00003F0000
00003F0000
00007E0000
0000FC0000
0001F00000
0003C00000
0007800000
000E000000
0000000000
FFFFFC0000
7FFFFF8000
1FF81FE000
0FF00FF000
0FF007F800
0FF007FC00
0FF003FC00
0FF003FE00
0FF003FE00
0FF003FE00
0FF003FE00
0FF003FC00
0FF003FC00
0FF007FC00
0FF007F800
0FF00FF000
0FF07FC000
0FFFFF0000
0FFFFE0000
0FF3FF0000
0FF1FF8000
0FF0FF8000
0FF0FFC000
0FF07FE000
0FF03FF000
0FF03FF000
0FF01FF800
0FF00FFC00
0FF007FC00
0FF007FE00
0FF003FF00
1FF801FF80
7FFE00FFC0
FFFF00FFE0
ENDCHAR
STARTCHAR 0155
ENCODING 341
SWIDTH 420 0
DWIDTH 21 0
BBX 20 35 2 0
BITMAP
000F00
001F80
001F80
003F00
007E00
00F800
01F000
03C000
070000
000000
000000
000000
FF8FC0
7F9FE0
3FBFF0
3FFFF0
3FC7E0
3FC1C0
3F8000
3F8000
3F8000
3F8000
3F8000
3F8000
3F8000
3F8000
3F8000
3F8000
3F8000
3F8000
3F8000
3F8000
3F8000
7FC000
FFF000
ENDCHAR
STARTCHAR 0156
ENCODING 342
SWIDTH 720 0
DWIDTH 36 0
BBX 35 49 1 -15
BITMAP
FFFFFC0000
7FFFFF8000
1FF81FE000
0FF00FF000
0FF007F800
0FF007FC00
0FF003FC00
0FF003FE00
0FF003FE00
0FF003FE00
0FF003FE00
0FF003FC00
0FF003FC00
0FF007FC00
0FF007F800
0FF00FF000
0FF07FC000
0FFFFF0000
0FFFFE0000
0FF3FF0000
0FF1FF8000
0FF0FF8000
0FF0FFC000
0FF07FE000
0FF03FF000
0FF03FF000
0FF01FF800
0FF00FFC00
0FF007FC00
0FF007FE00
0FF003FF00
1FF801FF80
7FFE00FFC0
FFFF00FFE0
0000000000
0000000000
0000000000
0007C00000
000FE00000
000FF00000
000FF00000
000FF00000
0007F00000
0000700000
0000600000
0000C00000
0001800000
0007000000
0004000000
ENDCHAR
STARTCHAR 0157
ENCODING 343
SWIDTH 420 0
DWIDTH 21 0
BBX 20 38 2 -14
BITMAP
FF8FC0
7F9FE0
3FBFF0
3FFFF0
3FC7E0
3FC1C0
3F8000
3F8000
3F8000
3F8000
3F8000
3F8000
3F8000
3F8000
3F8000
3F8000
3F8000
3F8000
3F8000
3F8000
3F8000
7FC000
FFF000
000000
000000
000000
0F8000
1FC000
1FE000
1FE000
1FE000
0FE000
00E000
00C000
018000
030000
0E0000
080000
ENDCHAR
STARTCHAR 0158
ENCODING 344
SWIDTH 720 0
DWIDTH 36 0
BBX 35 45 1 0
BITMAP
00E0038000
0070070000
00380F0000
003C1E0000
001F3C0000
000FF80000
000FF80000
0007F00000
0003E00000
0000000000
0000000000
FFFFFC0000
7FFFFF8000
1FF81FE000
0FF00FF000
0FF007F800
0FF007FC00
0FF003FC00
0FF003FE00
0FF003FE00
0FF003FE00
0FF003FE00
0FF003FC00
0FF003FC00
0FF007FC00
0FF007F800
0FF00FF000
0FF07FC000
0FFFFF0000
0FFFFE0000
0FF3FF0000
0FF1FF8000
0FF0FF8000
0FF0FFC000
0FF07FE000
0FF03FF000
0FF03FF000
0FF01FF800
0FF00FFC00
0FF007FC00
0FF007FE00
0FF003FF00
1FF801FF80
7FFE00FFC0
FFFF00FFE0
ENDCHAR
STARTCHAR 0159
ENCODING 345
SWIDTH 420 0
DWIDTH 21 0
BBX 20 34 2 0
BITMAP
700380
380700
1E0F00
1F3E00
0FFC00
07FC00
07F800
03F000
01E000
000000
000000
FF8FC0
7F9FE0
3FBFF0
3FFFF0
3FC7E0
3FC1C0
3F8000
3F8000
3F8000
3F8000
3F8000
3F8000
3F8000
3F8000
3F8000
3F8000
3F8000
3F8000
3F8000
3F8000
3F8000
7FC000
FFF000
ENDCHAR
STARTCHAR 015A
ENCODING 346
SWIDTH 560 0
DWIDTH 28 0
BBX 23 46 3 -1
BITMAP
000080
0003C0
0007E0
000FC0
001FC0
003F00
007E00
007800
00E000
01C000
01FC08
07FF98
1F03F8
3E00F8
7C0078
7C0038
7C0038
FC0018
FC0018
FE0008
FF0008
FF8000
FFE000
7FF800
7FFC00
3FFF00
1FFFC0
0FFFE0
07FFF0
03FFF8
00FFFC
003FFC
000FFC
0003FE
8001FE
C000FE
C0007E
C0007E
E0007C
E0007C
F0007C
F800F8
FC00F0
FE03E0
EFFFC0
C1FE00
ENDCHAR
STARTCHAR 015B
ENCODING 347
SWIDTH 400 0
DWIDTH 20 0
BBX 17 35 2 0
BITMAP
001E00
003E00
007E00
00FE00
01F800
03F000
03C000
078000
0E0000
000000
000000
000000
0FFB00
3E3F00
780F00
780700
F80300
F80300
FC0100
FF0000
FFC000
7FF000
7FFC00
3FFE00
1FFF00
07FF00
01FF80
807F80
C01F80
C00F80
C00F00
E00F00
F01E00
FC3E00
CFF800
ENDCHAR
STARTCHAR 015C
ENCODING 348
SWIDTH 560 0
DWIDTH 28 0
BBX 23 46 3 -1
BITMAP
00F800
00FC00
01FC00
03FE00
07DF00
078F00
0F0780
1E03C0
1C01E0
000000
01FC08
07FF98
1F03F8
3E00F8
7C0078
7C0038
7C0038
FC0018
FC0018
FE0008
FF0008
FF8000
FFE000
7FF800
7FFC00
3FFF00
1FFFC0
0FFFE0
07FFF0
03FFF8
00FFFC
003FFC
000FFC
0003FE
8001FE
C000FE
C0007E
C0007E
E0007C
E0007C
F0007C
F800F8
FC00F0
FE03E0
EFFFC0
C1FE00
ENDCHAR
STARTCHAR 015D
ENCODING 349
SWIDTH 400 0
DWIDTH 20 0
BBX 17 34 2 0
BITMAP
07E000
07E000
0FF000
1FF800
1E7C00
3C3C00
781E00
700F00
E00700
000000
000000
0FFB00
3E3F00
780F00
780700
F80300
F80300
FC0100
FF0000
FFC000
7FF000
7FFC00
3FFE00
1FFF00
07FF00
01FF80
807F80
C01F80
C00F80
C00F00
E00F00
F01E00
FC3E00
CFF800
ENDCHAR
STARTCHAR 015E
ENCODING 350
SWIDTH 560 0
DWIDTH 28 0
BBX 24 46 2 -11
BITMAP
01FE04
07FFCC
1F01FC
3E007C
3C003C
7C003C
7C001C
FC000C
FC000C
FE0004
FF0004
FF8000
FFE000
7FF800
7FFE00
3FFF80
1FFFE0
0FFFF0
07FFF8
03FFFC
00FFFE
003FFE
000FFE
0003FF
8000FF
C0007F
C0003F
C0003F
E0003E
F0003E
F0003E
F8007C
FC0078
FF01F0
EFFFC0
C1FF00
003000
003000
007F00
007F80
000FC0
0007C0
0007C0
010F80
03FF00
00FC00
ENDCHAR
STARTCHAR 015F
ENCODING 351
SWIDTH 380 0
DWIDTH 19 0
BBX 17 34 1 -10
BITMAP
0FFB00
3E1F00
780F00
780700
F80300
FC0100
FE0100
FF8000
FFE000
7FF800
3FFE00
1FFE00
0FFF00
03FF80
007F80
803F80
C01F80
C00F80
E00F00
F00F00
FC1E00
FFFE00
CFF800
81C000
018000
038000
03F800
07FC00
003E00
003E00
003E00
087C00
1FF800
0FE000
ENDCHAR
STARTCHAR 0160
ENCODING 352
SWIDTH 560 0
DWIDTH 28 0
BBX 23 46 3 -1
BITMAP
1800E0
1C01E0
0F03C0
078780
07CF00
03FF00
01FE00
01FC00
00FC00
000000
01FC08
07FF98
1F03F8
3E00F8
7C0078
7C0038
7C0038
FC0018
FC0018
FE0008
FF0008
FF8000
FFE000
7FF800
7FFC00
3FFF00
1FFFC0
0FFFE0
07FFF0
03FFF8
00FFFC
003FFC
000FFC
0003FE
8001FE
C000FE
C0007E
C0007E
E0007C
E0007C
F0007C
F800F8
FC00F0
FE03E0
EFFFC0
C1FE00
ENDCHAR
STARTCHAR 0161
ENCODING 353
SWIDTH 400 0
DWIDTH 20 0
BBX 17 34 2 0
BITMAP
E00700
701E00
783C00
3C7C00
1EF800
1FF000
0FF000
07E000
07C000
000000
000000
0FFB00
3E3F00
780F00
780700
F80300
F80300
FC0100
FF0000
FFC000
7FF000
7FFC00
3FFE00
1FFF00
07FF00
01FF80
807F80
C01F80
C00F80
C00F00
E00F00
F01E00
FC3E00
CFF800
ENDCHAR
STARTCHAR 0162
ENCODING 354
SWIDTH 640 0
DWIDTH 32 0
BBX 30 45 1 -11
BITMAP
FFFFFFFC
FFFFFFFC
FC1FE0FC
F01FE03C
E01FE01C
E01FE00C
C01FE00C
C01FE00C
C01FE004
801FE004
001FE000
001FE000
001FE000
001FE000
001FE000
001FE000
001FE000
001FE000
001FE000
001FE000
001FE000
001FE000
001FE000
001FE000
001FE000
001FE000
001FE000
001FE000
001FE000
001FE000
001FE000
003FF000
00FFFC00
01FFFE00
00038000
00030000
00070000
0007F000
000FF800
0000F800
00007C00
00007800
0030F800
003FF000
001FC000
ENDCHAR
STARTCHAR 0163
ENCODING 355
SWIDTH 340 0
DWIDTH 17 0
BBX 15 43 2 -12
BITMAP
0180
0180
0380
0780
0F80
1F80
3F80
7F80
FFF8
FFF8
3F80
3F80
3F80
3F80
3F80
3F80
3F80
3F80
3F80
3F80
3F80
3F80
3F80
3F80
3F80
3F80
3F86
3FCC
3FFC
1FF8
0FF0
0380
0380
0300
0700
07F0
07F8
007C
007C
0078
18F8
3FF0
0FC0
ENDCHAR
STARTCHAR 0164
ENCODING 356
SWIDTH 640 0
DWIDTH 32 0
BBX 30 45 1 0
BITMAP
01C00700
00E00E00
00701E00
007C3C00
003E7800
001FF800
001FF000
000FE000
0007C000
00000000
00000000
FFFFFFFC
FFFFFFFC
FC1FE0FC
F01FE03C
E01FE01C
E01FE00C
C01FE00C
C01FE00C
C01FE004
801FE004
001FE000
001FE000
001FE000
001FE000
001FE000
001FE000
001FE000
001FE000
001FE000
001FE000
001FE000
001FE000
001FE000
001FE000
001FE000
001FE000
001FE000
001FE000
001FE000
001FE000
001FE000
003FF000
00FFFC00
01FFFE00
ENDCHAR
STARTCHAR 0165
ENCODING 357
SWIDTH 460 0
DWIDTH 23 0
BBX 21 34 2 0
BITMAP
000038
000078
0000F8
0180F8
0180F0
0381F0
0781E0
0F83C0
1F8380
1F8700
3F8000
FFF800
FFF800
3F8000
3F8000
3F8000
3F8000
3F8000
3F8000
3F8000
3F8000
3F8000
3F8000
3F8000
3F8000
3F8000
3F8000
3F8000
3F8000
3F8600
3FCC00
3FF800
1FF800
0FE000
ENDCHAR
STARTCHAR 0166
ENCODING 358
SWIDTH 660 0
DWIDTH 33 0
BBX 29 34 2 0
BITMAP
FFFFFFF8
FFFFFFF8
FC1FE1F8
F01FE078
E01FE038
E01FE018
C01FE018
C01FE008
C01FE008
801FE008
001FE000
001FE000
001FE000
001FE000
01FFFE00
01FFFE00
01FFFE00
01FFFE00
001FE000
001FE000
001FE000
001FE000
001FE000
001FE000
001FE000
001FE000
001FE000
001FE000
001FE000
001FE000
001FE000
001FF000
00FFFC00
01FFFE00
ENDCHAR
STARTCHAR 0167
ENCODING 359
SWIDTH 340 0
DWIDTH 17 0
BBX 15 31 2 0
BITMAP
0180
0180
0380
0780
0F80
1F80
1F80
3F80
FFF8
FFF8
3F80
3F80
3F80
3F80
3F80
3F80
FFFC
FFFC
3F80
3F80
3F80
3F80
3F80
3F80
3F80
3F80
3F86
3FCC
3FF8
1FF8
0FE0
ENDCHAR
STARTCHAR 0168
ENCODING 360
SWIDTH 720 0
DWIDTH 36 0
BBX 33 44 1 -1
BITMAP
001F01C000
003FE18000
007FFF8000
00FFFF0000
00C1FE0000
00C0380000
0000000000
0000000000
0000000000
FFFF00FF80
7FFC007F00
1FF8001E00
0FF0000C00
0FF0000C00
0FF0000C00
0FF0000C00
0FF0000C00
0FF0000C00
0FF0000C00
0FF0000C00
0FF0000C00
0FF0000C00
0FF0000C00
0FF0000C00
0FF0000C00
0FF0000C00
0FF0000C00
0FF0000C00
0FF0000C00
0FF0000C00
0FF0000C00
0FF0000C00
0FF0000C00
0FF0000C00
0FF0000C00
0FF0001C00
07F8001800
07F8001800
07F8003800
03FC007000
01FE00E000
00FFC7C000
003FFF8000
0007FC0000
ENDCHAR
STARTCHAR 0169
ENCODING 361
SWIDTH 560 0
DWIDTH 28 0
BBX 25 32 2 0
BITMAP
07F03800
0FFE7000
0FFFF000
1FFFE000
181FC000
00000000
00000000
00000000
00000000
FF8FFC00
7F83FC00
3F81FC00
3F81FC00
3F81FC00
3F81FC00
3F81FC00
3F81FC00
3F81FC00
3F81FC00
3F81FC00
3F81FC00
3F81FC00
3F81FC00
3F81FC00
3F81FC00
3F81FC00
3F81FC00
3F81FC00
3FC7FC00
1FFFFE00
0FFDFF80
07F1F800
ENDCHAR
STARTCHAR 016A
ENCODING 362
SWIDTH 720 0
DWIDTH 36 0
BBX 33 41 1 -1
BITMAP
007FFF8000
007FFF8000
007FFF8000
007FFF8000
0000000000
0000000000
FFFF00FF80
7FFC007F00
1FF8001E00
0FF0000C00
0FF0000C00
0FF0000C00
0FF0000C00
0FF0000C00
0FF0000C00
0FF0000C00
0FF0000C00
0FF0000C00
0FF0000C00
0FF0000C00
0FF0000C00
0FF0000C00
0FF0000C00
0FF0000C00
0FF0000C00
0FF0000C00
0FF0000C00
0FF0000C00
0FF0000C00
0FF0000C00
0FF0000C00
0FF0000C00
0FF0001C00
07F8001800
07F8001800
07F8003800
03FC007000
01FE00E000
00FFC7C000
003FFF8000
0007FC0000
ENDCHAR
STARTCHAR 016B
ENCODING 363
SWIDTH 560 0
DWIDTH 28 0
BBX 25 30 2 0
BITMAP
0FFFF000
0FFFF000
0FFFF000
00000000
00000000
00000000
00000000
FF8FFC00
7F83FC00
3F81FC00
3F81FC00
3F81FC00
3F81FC00
3F81FC00
3F81FC00
3F81FC00
3F81FC00
3F81FC00
3F81FC00
3F81FC00
3F81FC00
3F81FC00
3F81FC00
3F81FC00
3F81FC00
3F81FC00
3FC7FC00
1FFFFE00
0FFDFF80
07F1F800
ENDCHAR
STARTCHAR 016C
ENCODING 364
SWIDTH 720 0
DWIDTH 36 0
BBX 33 46 1 -1
BITMAP
0030038000
0030038000
0030030000
0038070000
003C0F0000
001FFE0000
001FFE0000
000FFC0000
0003F00000
0000000000
0000000000
FFFF00FF80
7FFC007F00
1FF8001E00
0FF0000C00
0FF0000C00
0FF0000C00
0FF0000C00
0FF0000C00
0FF0000C00
0FF0000C00
0FF0000C00
0FF0000C00
0FF0000C00
0FF0000C00
0FF0000C00
0FF0000C00
0FF0000C00
0FF0000C00
0FF0000C00
0FF0000C00
0FF0000C00
0FF0000C00
0FF0000C00
0FF0000C00
0FF0000C00
0FF0000C00
0FF0001C00
07F8001800
07F8001800
07F8003800
03FC007000
01FE00E000
00FFC7C000
003FFF8000
0007FC0000
ENDCHAR
STARTCHAR 016D
ENCODING 365
SWIDTH 560 0
DWIDTH 28 0
BBX 25 34 2 0
BITMAP
06007000
06006000
06006000
0700E000
0781E000
03FFC000
01FFC000
00FF8000
003E0000
00000000
00000000
FF8FFC00
7F83FC00
3F81FC00
3F81FC00
3F81FC00
3F81FC00
3F81FC00
3F81FC00
3F81FC00
3F81FC00
3F81FC00
3F81FC00
3F81FC00
3F81FC00
3F81FC00
3F81FC00
3F81FC00
3F81FC00
3F81FC00
3FC7FC00
1FFFFE00
0FFDFF80
07F1F800
ENDCHAR
STARTCHAR 016E
ENCODING 366
SWIDTH 720 0
DWIDTH 36 0
BBX 33 46 1 -1
BITMAP
0003F00000
0007F80000
000FFC0000
000E1C0000
000E0E0000
000E0E0000
000E1C0000
000FFC0000
0007F80000
0003F00000
0000000000
FFFF00FF80
7FFC007F00
1FF8001E00
0FF0000C00
0FF0000C00
0FF0000C00
0FF0000C00
0FF0000C00
0FF0000C00
0FF0000C00
0FF0000C00
0FF0000C00
0FF0000C00
0FF0000C00
0FF0000C00
0FF0000C00
0FF0000C00
0FF0000C00
0FF0000C00
0FF0000C00
0FF0000C00
0FF0000C00
0FF0000C00
0FF0000C00
0FF0000C00
0FF0000C00
0FF0001C00
07F8001800
07F8001800
07F8003800
03FC007000
01FE00E000
00FFC7C000
003FFF8000
0007FC0000
ENDCHAR
STARTCHAR 016F
ENCODING 367
SWIDTH 560 0
DWIDTH 28 0
BBX 25 36 2 0
BITMAP
007C0000
00FF0000
01FF8000
01C38000
01838000
01838000
01C38000
01FF8000
00FF0000
007E0000
00000000
00000000
00000000
FF8FFC00
7F83FC00
3F81FC00
3F81FC00
3F81FC00
3F81FC00
3F81FC00
3F81FC00
3F81FC00
3F81FC00
3F81FC00
3F81FC00
3F81FC00
3F81FC00
3F81FC00
3F81FC00
3F81FC00
3F81FC00
3F81FC00
3FC7FC00
1FFFFE00
0FFDFF80
07F1F800
ENDCHAR
STARTCHAR 0170
ENCODING 368
SWIDTH 720 0
DWIDTH 36 0
BBX 33 45 1 0
BITMAP
0001E0F000
0001F1F000
0003F1F000
0003E3F000
0003C7E000
0007878000
00078F0000
000F0E0000
000E1C0000
0000000000
FFFF00FF80
7FFC007F00
1FF8001E00
0FF0000C00
0FF0000C00
0FF0000C00
0FF0000C00
0FF0000C00
0FF0000C00
0FF0000C00
0FF0000C00
0FF0000C00
0FF0000C00
0FF0000C00
0FF0000C00
0FF0000C00
0FF0000C00
0FF0000C00
0FF0000C00
0FF0000C00
0FF0000C00
0FF0000C00
0FF0000C00
0FF0000C00
0FF0000C00
0FF0000C00
0FF0001C00
07F8001800
07F8001800
07F8003800
03FC007000
01FE00E000
00FFC7C000
003FFF8000
0007FC0000
ENDCHAR
STARTCHAR 0171
ENCODING 369
SWIDTH 560 0
DWIDTH 28 0
BBX 25 35 2 0
BITMAP
00F07800
00F0F800
01F0F800
01F1F800
01E3F000
03E3E000
03C78000
07870000
070E0000
00000000
00000000
00000000
FF8FFC00
7F83FC00
3F81FC00
3F81FC00
3F81FC00
3F81FC00
3F81FC00
3F81FC00
3F81FC00
3F81FC00
3F81FC00
3F81FC00
3F81FC00
3F81FC00
3F81FC00
3F81FC00
3F81FC00
3F81FC00
3F81FC00
3FC7FC00
1FFFFE00
0FFDFF80
07F1F800
ENDCHAR
STARTCHAR 0172
ENCODING 370
SWIDTH 720 0
DWIDTH 36 0
BBX 34 43 1 -9
BITMAP
FFFF00FF80
7FFC007F00
1FF8001E00
0FF0000C00
0FF0000C00
0FF0000C00
0FF0000C00
0FF0000C00
0FF0000C00
0FF0000C00
0FF0000C00
0FF0000C00
0FF0000C00
0FF0000C00
0FF0000C00
0FF0000C00
0FF0000C00
0FF0000C00
0FF0000C00
0FF0000C00
0FF0000C00
0FF0000C00
0FF0000C00
0FF0000C00
0FF0000C00
0FF0000C00
0FF0001C00
0FF8001800
07F8001800
07F8003800
03FC007000
01FE00E000
00FF87E000
003FFF6000
0007FCC000
000001C000
000001C000
000003C000
000003E000
000003F1C0
000003FF80
000001FF00
0000007C00
ENDCHAR
STARTCHAR 0173
ENCODING 371
SWIDTH 560 0
DWIDTH 28 0
BBX 27 32 1 -9
BITMAP
FF87FE00
7F81FE00
3F80FE00
3F80FE00
3F80FE00
3F80FE00
3F80FE00
3F80FE00
3F80FE00
3F80FE00
3F80FE00
3F80FE00
3F80FE00
3F80FE00
3F80FE00
3F80FE00
3F80FE00
3F80FE00
3F81FE00
3FC3FE00
1FFFFF00
0FFCFF80
07F8FC00
0000F000
0000F000
0000E000
0001F000
0001F000
0001F8E0
0001FFC0
0000FF80
00003E00
ENDCHAR
STARTCHAR 0174
ENCODING 372
SWIDTH 980 0
DWIDTH 49 0
BBX 48 46 1 -1
BITMAP
000000F80000
000001F80000
000003FC0000
000003FE0000
000007FE0000
00000F8F0000
00000F078000
00001E03C000
00003801C000
000000000000
000000000000
FFFC3FFFC3FF
7FF80FFF00FE
3FE007FC0038
1FE003FC0038
1FE003FC0030
1FF001FE0030
0FF001FE0070
0FF001FE0060
07F801FF0060
07F801FF00E0
07F803FF00C0
03FC037F00C0
03FC037F81C0
03FC067F8180
01FE063F8180
01FE0E3FC380
01FE0C3FC300
00FF0C1FC300
00FF181FE700
00FF180FE600
007F980FE600
007FB00FFE00
007FB007FC00
003FE007FC00
003FE007FC00
003FE003F800
001FC003F800
001FC003F800
001FC001F000
000F8001F000
000F8001F000
00070000E000
00070000E000
00070000E000
000200004000
ENDCHAR
STARTCHAR 0175
ENCODING 373
SWIDTH 700 0
DWIDTH 35 0
BBX 35 34 0 0
BITMAP
0000F80000
0001FC0000
0003FC0000
0003FE0000
0007DF0000
000F0F0000
001E078000
001C03C000
003801C000
0000000000
0000000000
FFF3FFCFE0
7FE1FF07C0
3FC0FE0380
1FC07E0300
1FC07F0300
1FC07F0200
0FE07F0600
0FE0FF8600
07F0FF8C00
07F0DF8C00
07F19F8800
03F99FD800
03FB0FD800
01FF0FF000
01FF0FF000
01FE07F000
00FE07E000
00FC07E000
007C03C000
007C03C000
007803C000
0038018000
0030018000
ENDCHAR
STARTCHAR 0176
ENCODING 374
SWIDTH 700 0
DWIDTH 35 0
BBX 34 45 1 0
BITMAP
0003E00000
0003F00000
0007F80000
000FF80000
000FFC0000
001E3E0000
003C1E0000
00380F0000
0070038000
0000000000
0000000000
FFFF81FFC0
7FFC007F80
1FF8001E00
1FF8001C00
0FF8001C00
07FC001800
07FC003800
03FE003000
03FE006000
01FF00E000
01FF00C000
00FF81C000
00FF818000
007FC30000
003FC70000
003FE60000
001FEE0000
001FFC0000
000FF80000
000FF80000
0007F80000
0007F80000
0007F80000
0007F80000
0007F80000
0007F80000
0007F80000
0007F80000
0007F80000
0007F80000
0007F80000
000FFC0000
003FFF0000
007FFF8000
ENDCHAR
STARTCHAR 0177
ENCODING 375
SWIDTH 480 0
DWIDTH 24 0
BBX 23 44 0 -10
BITMAP
003E00
007F00
00FF00
00FF80
01F7C0
03E3C0
0381E0
0700F0
0E0038
000000
000000
FFF1FE
7FC078
3F8030
3FC030
1FC070
1FC060
0FE060
0FE0C0
07E0C0
07F0C0
07F180
03F980
03F980
01FB00
01FF00
01FE00
00FE00
00FE00
007C00
007C00
007C00
003800
003800
001000
001000
003000
002000
782000
FC6000
FCC000
FDC000
FF8000
7F0000
ENDCHAR
STARTCHAR 0178
ENCODING 376
SWIDTH 700 0
DWIDTH 35 0
BBX 34 44 1 0
BITMAP
000E038000
001F07C000
003F0FC000
003F0FC000
003F0FC000
001E078000
0000000000
0000000000
0000000000
0000000000
FFFF81FFC0
7FFC007F80
1FF8001E00
1FF8001C00
0FF8001C00
07FC001800
07FC003800
03FE003000
03FE006000
01FF00E000
01FF00C000
00FF81C000
00FF818000
007FC30000
003FC70000
003FE60000
001FEE0000
001FFC0000
000FF80000
000FF80000
0007F80000
0007F80000
0007F80000
0007F80000
0007F80000
0007F80000
0007F80000
0007F80000
0007F80000
0007F80000
0007F80000
000FFC0000
003FFF0000
007FFF8000
ENDCHAR
STARTCHAR 0179
ENCODING 377
SWIDTH 640 0
DWIDTH 32 0
BBX 30 45 1 0
BITMAP
00000800
00001E00
00003E00
00007E00
0000FC00
0001F800
0003E000
0007C000
000F0000
001C0000
00000000
1FFFFFF8
3FFFFFF0
3F801FF0
3E003FE0
3C007FE0
38007FC0
3000FF80
3000FF80
3001FF00
2003FF00
0003FE00
0007FC00
0007FC00
000FF800
001FF800
001FF000
003FE000
003FE000
007FC000
00FFC000
00FF8000
01FF0000
03FF0004
03FE000C
07FE000C
07FC000C
0FF8001C
1FF8001C
1FF0003C
3FF00078
3FE000F8
7FC003F8
FFFFFFF8
FFFFFFF8
ENDCHAR
STARTCHAR 017A
ENCODING 378
SWIDTH 440 0
DWIDTH 22 0
BBX 20 35 1 0
BITMAP
000780
000FC0
000FC0
001F80
003F00
007C00
00F800
01E000
038000
000000
000000
000000
7FFFF0
7FFFF0
781FE0
701FE0
603FC0
603FC0
407F80
00FF00
00FF00
01FE00
01FE00
03FC00
03F800
07F800
0FF000
0FF010
1FE030
1FE030
3FC070
7F80F0
7F81F0
FFFFE0
FFFFE0
ENDCHAR
STARTCHAR 017B
ENCODING 379
SWIDTH 640 0
DWIDTH 32 0
BBX 30 44 1 0
BITMAP
00038000
0007C000
000FC000
000FC000
0007C000
00078000
00000000
00000000
00000000
00000000
1FFFFFF8
3FFFFFF0
3F801FF0
3E003FE0
3C007FE0
38007FC0
3000FF80
3000FF80
3001FF00
2003FF00
0003FE00
0007FC00
0007FC00
000FF800
001FF800
001FF000
003FE000
003FE000
007FC000
00FFC000
00FF8000
01FF0000
03FF0004
03FE000C
07FE000C
07FC000C
0FF8001C
1FF8001C
1FF0003C
3FF00078
3FE000F8
7FC003F8
FFFFFFF8
FFFFFFF8
ENDCHAR
STARTCHAR 017C
ENCODING 380
SWIDTH 440 0
DWIDTH 22 0
BBX 20 33 1 0
BITMAP
00F000
01F000
01F800
01F800
01F000
00E000
000000
000000
000000
000000
7FFFF0
7FFFF0
781FE0
701FE0
603FC0
603FC0
407F80
00FF00
00FF00
01FE00
01FE00
03FC00
03F800
07F800
0FF000
0FF010
1FE030
1FE030
3FC070
7F80F0
7F81F0
FFFFE0
FFFFE0
ENDCHAR
STARTCHAR 017D
ENCODING 381
SWIDTH 640 0
DWIDTH 32 0
BBX 30 45 1 0
BITMAP
01C00700
00E00E00
00701E00
007C3C00
003E7800
001FF800
000FF000
000FE000
0007E000
00000000
00000000
1FFFFFF8
3FFFFFF0
3F801FF0
3E003FE0
3C007FE0
38007FC0
3000FF80
3000FF80
3001FF00
2003FF00
0003FE00
0007FC00
0007FC00
000FF800
001FF800
001FF000
003FE000
003FE000
007FC000
00FFC000
00FF8000
01FF0000
03FF0004
03FE000C
07FE000C
07FC000C
0FF8001C
1FF8001C
1FF0003C
3FF00078
3FE000F8
7FC003F8
FFFFFFF8
FFFFFFF8
ENDCHAR
STARTCHAR 017E
ENCODING 382
SWIDTH 440 0
DWIDTH 22 0
BBX 20 34 1 0
BITMAP
1C01E0
1E03C0
0F0780
078F00
07DF00
03FE00
01FC00
01FC00
00F800
000000
000000
7FFFF0
7FFFF0
781FE0
701FE0
603FC0
603FC0
407F80
00FF00
00FF00
01FE00
01FE00
03FC00
03F800
07F800
0FF000
0FF010
1FE030
1FE030
3FC070
7F80F0
7F81F0
FFFFE0
FFFFE0
ENDCHAR
STARTCHAR 017F
ENCODING 383
SWIDTH 340 0
DWIDTH 17 0
BBX 18 35 2 0
BITMAP
01FC00
07FF00
0FC780
1F87C0
1F8FC0
1F8FC0
3F8F80
3F8300
3F8000
3F8000
3F8000
3F8000
FF8000
FF8000
3F8000
3F8000
3F8000
3F8000
3F8000
3F8000
3F8000
3F8000
3F8000
3F8000
3F8000
3F8000
3F8000
3F8000
3F8000
3F8000
3F8000
3F8000
3F8000
7FE000
FFF800
ENDCHAR
STARTCHAR 0180
ENCODING 384
SWIDTH 560 0
DWIDTH 28 0
BBX 25 34 1 0
BITMAP
FFC00000
7FC00000
1FC00000
1FC00000
1FC00000
7FFC0000
7FFC0000
1FC00000
1FC00000
1FC00000
1FC00000
1FCFF000
1FDFFC00
1FF1FE00
1FE0FE00
1FC07F00
1FC07F00
1FC07F80
1FC03F80
1FC03F80
1FC03F80
1FC03F80
1FC03F80
1FC03F80
1FC03F80
1FC03F80
1FC03F80
1FC03F00
1FC07F00
1FC07E00
1FC07E00
1FE0FC00
1C71F800
183FE000
ENDCHAR
STARTCHAR 0181
ENCODING 385
SWIDTH 800 0
DWIDTH 40 0
BBX 38 34 1 0
BITMAP
07FFFFF000
3FFFFFFE00
601FF03F80
400FF01FC0
C00FF01FE0
C00FF00FF0
800FF00FF0
800FF00FF0
C60FF00FF0
FF8FF00FF0
7F8FF00FF0
7F8FF00FE0
3F8FF01FE0
3F8FF01FC0
0F0FF07F00
000FFFF800
000FFFFE00
000FF07F80
000FF01FE0
000FF01FF0
000FF00FF8
000FF007F8
000FF007F8
000FF007FC
000FF007FC
000FF007FC
000FF007FC
000FF007F8
000FF007F8
000FF00FF0
000FF00FE0
001FF83FC0
007FFFFF00
00FFFFF800
ENDCHAR
STARTCHAR 0182
ENCODING 386
SWIDTH 660 0
DWIDTH 33 0
BBX 30 34 1 0
BITMAP
FFFFFFF0
7FFFFFF0
1FF007F0
0FF000F0
0FF00070
0FF00070
0FF00030
0FF00030
0FF00010
0FF00010
0FF00000
0FF00000
0FF00000
0FF00000
0FF00000
0FFFFC00
0FFFFF80
0FF07FC0
0FF01FE0
0FF00FF0
0FF00FF8
0FF007F8
0FF007F8
0FF007FC
0FF007FC
0FF007FC
0FF007FC
0FF007F8
0FF00FF8
0FF00FF0
0FF01FE0
1FF03FC0
3FFFFF00
FFFFF800
ENDCHAR
STARTCHAR 0183
ENCODING 387
SWIDTH 560 0
DWIDTH 28 0
BBX 24 34 2 0
BITMAP
FFFFE0
7FFFE0
3F81E0
3F80E0
3F8060
3F8060
3F8020
3F8020
3F8000
3F8000
3F8000
3F9FE0
3FBFF8
3FE3FC
3FC1FC
3F80FE
3F80FE
3F80FF
3F807F
3F807F
3F807F
3F807F
3F807F
3F807F
3F807F
3F807F
3F807F
3F807E
3F80FE
3F80FC
3F80FC
3FC1F8
38E3F0
307FC0
ENDCHAR
STARTCHAR 0184
ENCODING 388
SWIDTH 660 0
DWIDTH 33 0
BBX 30 34 1 1
BITMAP
00300000
00700000
00F00000
01F00000
03F00000
07F00000
0FF00000
1FF00000
1FF00000
1FF00000
1FF00000
0FF00000
0FF00000
0FF00000
0FF00000
0FFF8000
0FFFFE00
0FF07F80
0FF01FE0
0FF00FF0
0FF00FF8
0FF007F8
0FF007F8
0FF007FC
0FF007FC
0FF007FC
0FF007FC
0FF007F8
0FF007F8
0FF00FF0
0FF01FE0
1FF83FC0
7FFFFF00
FFFFF800
ENDCHAR
STARTCHAR 0185
ENCODING 389
SWIDTH 560 0
DWIDTH 28 0
BBX 24 34 2 1
BITMAP
018000
038000
078000
0F8000
1F8000
3F8000
7F8000
FF8000
FF8000
FF8000
7F8000
7F9FE0
7FBFF8
3FE3FC
3FC1FC
3F80FE
3F80FE
3F80FF
3F807F
3F807F
3F807F
3F807F
3F807F
3F807F
3F807F
3F807F
3F807F
3F807E
3F807E
3F80FC
3F80FC
3FC1F8
38E3F0
307FC0
ENDCHAR
STARTCHAR 0186
ENCODING 390
SWIDTH 700 0
DWIDTH 35 0
BBX 31 36 2 -1
BITMAP
007FC000
01FFF800
07E3FE00
0E007F00
3C003FC0
78001FE0
60000FE0
C0000FF0
000007F8
000007F8
000007FC
000003FC
000003FC
000003FE
000003FE
000003FE
000003FE
000003FE
000003FE
000003FE
000003FE
000003FE
000003FC
000003FC
400003FC
600007FC
600007F8
700007F8
700007F0
78000FE0
7C000FC0
7E001F80
7F003F00
7FC07E00
61FFF800
403FC000
ENDCHAR
STARTCHAR 0187
ENCODING 391
SWIDTH 900 0
DWIDTH 45 0
BBX 43 42 2 -1
BITMAP
00000001FE00
000000030F80
0000000607C0
0000000607C0
000000040FE0
000000040FE0
0007F8040FE0
003FFF0C07C0
00FC07FC0380
01F801FC0000
03F000FC0000
07E0007C0000
0FE0003C0000
1FC0001C0000
3FC0001C0000
3FC0000C0000
7FC0000C0000
7F8000040000
7F8000000000
FF8000000000
FF8000000000
FF8000000000
FF8000000000
FF8000000000
FF8000000000
FF8000000000
FF8000000000
FF8000000000
FF8000000000
7F8000000000
7F8000000000
7FC000000000
3FC000000000
3FC000000000
1FE000060000
0FE0000E0000
0FF0003C0000
07F800780000
01FC01E00000
00FF8FC00000
003FFF000000
0007FC000000
ENDCHAR
STARTCHAR 0188
ENCODING 392
SWIDTH 600 0
DWIDTH 30 0
BBX 29 35 1 0
BITMAP
00000F80
00001FE0
000030F0
000030F8
000061F8
000061F8
000061F0
0000C060
0000C000
0000C000
0000C000
0000C000
01FFC000
07C7E000
0F83E000
1F03F000
3F03F000
3E03F000
7E03F000
7E01E000
FE000000
FE000000
FE000000
FE000000
FE000000
FE000000
FF000000
FF000000
7F800000
7F800000
3FC01000
3FF07000
1FFFE000
07FF8000
03FF0000
ENDCHAR
STARTCHAR 0189
ENCODING 393
SWIDTH 740 0
DWIDTH 37 0
BBX 34 34 1 0
BITMAP
FFFFF00000
7FFFFF0000
1FF01FC000
0FF00FE000
0FF007F800
0FF003FC00
0FF001FC00
0FF001FE00
0FF000FF00
0FF000FF00
0FF000FF80
0FF000FF80
0FF0007F80
0FF0007F80
0FF0007FC0
0FF0007FC0
FFFF807FC0
FFFF807FC0
0FF0007FC0
0FF0007FC0
0FF0007F80
0FF0007F80
0FF0007F80
0FF0007F80
0FF000FF00
0FF000FF00
0FF000FE00
0FF001FC00
0FF001FC00
0FF003F800
0FF007E000
1FF81FC000
3FFFFF0000
FFFFF80000
ENDCHAR
STARTCHAR 018A
ENCODING 394
SWIDTH 880 0
DWIDTH 44 0
BBX 41 34 1 0
BITMAP
07FFFFF00000
3FFFFFFE0000
603FF07F8000
401FE01FC000
C01FE00FF000
C01FE007F800
801FE003F800
801FE003FC00
C61FE001FE00
FF9FE001FE00
7F9FE001FF00
7F9FE001FF00
3F9FE000FF00
3F9FE000FF00
0F1FE000FF80
001FE000FF80
001FE000FF80
001FE000FF80
001FE000FF80
001FE000FF80
001FE000FF00
001FE000FF00
001FE000FF00
001FE001FF00
001FE001FE00
001FE001FE00
001FE001FC00
001FE003F800
001FE003F800
001FE007F000
001FE00FC000
003FF03F8000
007FFFFE0000
01FFFFF00000
ENDCHAR
STARTCHAR 018B
ENCODING 395
SWIDTH 660 0
DWIDTH 33 0
BBX 29 34 2 0
BITMAP
3FFFFFF8
3FFFFFF0
3F007FC0
3C007F80
38007F80
38007F80
30007F80
30007F80
20007F80
20007F80
00007F80
00007F80
00007F80
00FFFF80
07FFFF80
0FF0FF80
1FE07F80
3FC07F80
7FC07F80
7F807F80
FF807F80
FF807F80
FF807F80
FF807F80
FF807F80
FF807F80
FF807F80
7F807F80
7F807F80
3FC07F80
3FC07F80
0FE0FFC0
07FFFFF0
007FFFF8
ENDCHAR
STARTCHAR 018C
ENCODING 396
SWIDTH 560 0
DWIDTH 28 0
BBX 26 34 1 0
BITMAP
3FFFFE00
3FFFFE00
3C01FE00
3800FE00
3000FE00
3000FE00
3000FE00
2000FE00
0000FE00
0000FE00
0000FE00
03F8FE00
0FFEFE00
1FE7FE00
3F81FE00
3F80FE00
7F00FE00
7F00FE00
7F00FE00
FF00FE00
FE00FE00
FE00FE00
FE00FE00
FE00FE00
FE00FE00
FF00FE00
FF00FE00
7F00FE00
7F00FE00
7F01FE00
3F83FE00
1FC7FF80
0FFEFFC0
07F8F800
ENDCHAR
STARTCHAR 018D
ENCODING 397
SWIDTH 520 0
DWIDTH 26 0
BBX 23 35 2 -11
BITMAP
03FF00
07C7C0
0F83E0
1F83F0
3F03F8
7F01FC
7F01FC
FF01FC
FF01FE
FF01FE
FF01FE
FF01FE
FF01FE
FF01FE
FF01FC
FF01FC
FF03F8
7F83F8
7F83F0
3FC7E0
3FFF80
1FE000
0FF800
07FC00
01FF00
00FF80
007FC0
001FC0
000FE0
0003E0
0601E0
0701E0
0383C0
00FF80
003E00
ENDCHAR
STARTCHAR 018E
ENCODING 398
SWIDTH 660 0
DWIDTH 33 0
BBX 31 34 1 0
BITMAP
3FFFFFFE
3FFFFFFC
3F001FF0
3C001FE0
38001FE0
38001FE0
30001FE0
30001FE0
30401FE0
20401FE0
00601FE0
00601FE0
00701FE0
00701FE0
007C1FE0
007FFFE0
007FFFE0
007E1FE0
00781FE0
00701FE0
00601FE0
00601FE0
00601FE0
80401FE0
C0001FE0
C0001FE0
60001FE0
70001FE0
78001FE0
7C001FE0
7E001FE0
7F803FF0
3FFFFFFC
3FFFFFFE
ENDCHAR
STARTCHAR 018F
ENCODING 399
SWIDTH 780 0
DWIDTH 39 0
BBX 36 36 2 -1
BITMAP
0003FC0000
001FFF8000
007F3FE000
00F007F800
01C001FC00
038000FE00
060000FF00
0C00007F80
0000007F80
0000003FC0
0000003FC0
0000003FE0
0000003FE0
0000003FE0
0000001FE0
0000001FE0
0000001FF0
0000001FF0
0000001FF0
FFFFFFFFF0
FFFFFFFFF0
FF00001FE0
7F00001FE0
7F00003FE0
7F00003FE0
7F80003FC0
3F80003FC0
3F80003F80
1FC0007F80
0FC0007F00
07E000FE00
03F000FC00
01F801F800
00FC07F000
003FFFC000
0007FC0000
ENDCHAR
STARTCHAR 0190
ENCODING 400
SWIDTH 620 0
DWIDTH 31 0
BBX 28 35 2 0
BITMAP
003F8080
01FFF180
03FFFF80
07F81F80
0FF00F80
1FE00780
1FC00380
3FC00180
3FC00180
3FC00180
3FC00080
3FC00080
3FE00000
1FE00000
1FF00000
0FFE0000
07FFE000
07FFE000
1FF80000
3FE00000
7FC00000
7FC00000
FF800000
FF800000
FF800000
FF800000
FF800000
FF800000
FF800070
7FC000E0
7FC001C0
3FE00380
1FFE3F00
07FFFE00
01FFF800
ENDCHAR
STARTCHAR 0191
ENCODING 401
SWIDTH 740 0
DWIDTH 37 0
BBX 35 39 0 -5
BITMAP
01FFFFFFE0
007FFFFFE0
003FE007E0
001FE001E0
001FE000E0
001FE00060
001FE00060
001FE00060
001FE00020
001FE01020
001FE01000
001FE03000
001FE03000
001FE03000
001FE07000
001FE0F000
001FFFF000
001FFFF000
001FE1F000
001FE07000
001FE03000
001FE03000
001FE03000
001FE01000
001FE01000
001FE00000
001FE00000
001FE00000
001FE00000
101FE00000
7C1FE00000
FE1FE00000
FE1FE00000
FE1FC00000
FC1FC00000
7C1F800000
7C3F000000
1FFE000000
07F0000000
ENDCHAR
STARTCHAR 0192
ENCODING 402
SWIDTH 380 0
DWIDTH 19 0
BBX 25 45 -3 -10
BITMAP
0003F800
000FFE00
001F8F00
003F0F80
003F1F80
003F1F80
007F1F00
007F0600
007F0000
007F0000
007F0000
007F0000
01FFF000
01FFF000
007F0000
007F0000
007F0000
007F0000
007F0000
007F0000
007F0000
007F0000
007F0000
007F0000
007F0000
007F0000
007F0000
007F0000
007F0000
007F0000
007F0000
007F0000
007F0000
007F0000
007F0000
007F0000
007F0000
307F0000
787F0000
FC7E0000
FC7E0000
F87C0000
78FC0000
3FF80000
0FC00000
ENDCHAR
STARTCHAR 0193
ENCODING 403
SWIDTH 900 0
DWIDTH 45 0
BBX 43 42 2 -1
BITMAP
00000000FE00
000000018780
0000000307C0
0000000307C0
000000020FE0
000000020FE0
0007F8020FE0
003FFF8607C0
00FE03FE0380
01F800FE0000
03F0007E0000
07E0003E0000
0FE0001E0000
1FC0000E0000
1FC0000E0000
3FC000060000
3FC000060000
7F8000020000
7F8000000000
7F8000000000
FF8000000000
FF8000000000
FF8000000000
FF8000000000
FF8000000000
FF8000000000
FF8000000000
FF801FFFF000
FF8003FFC000
7F8000FF8000
7F8000FF0000
7FC000FF0000
3FC000FF0000
3FC000FF0000
1FE000FF0000
0FE000FF0000
0FF000FF0000
07F000FF0000
01F800FF0000
00FE01FE0000
003FFFF00000
0007FF000000
ENDCHAR
STARTCHAR 0194
ENCODING 404
SWIDTH 780 0
DWIDTH 39 0
BBX 37 35 1 -1
BITMAP
FFFF807FF8
7FFF003FF0
1FFC000FC0
0FFC000F80
07FC000F00
03FE001E00
01FF001C00
01FF003800
00FF807000
007FC0E000
007FE1E000
003FF1C000
001FF38000
000FFF0000
000FFE0000
0007FE0000
0003FE0000
0003FF0000
0001FF8000
0001FFC000
0001FFC000
0003FFE000
00073FF000
000E1FF000
000E0FF800
001C0FF800
001C07F800
001803F800
001803F800
001803F800
001C03F800
000E07F000
000F0FE000
0007FF8000
0001FE0000
ENDCHAR
STARTCHAR 0195
ENCODING 405
SWIDTH 820 0
DWIDTH 41 0
BBX 38 34 2 0
BITMAP
FF80000000
7F80000000
3F80000000
3F80000000
3F80000000
3F80000000
3F80000000
3F80000000
3F80000000
3F80000000
3F80000000
3F8FE000F0
3F9FF001F8
3FBFF801F8
3FE3F801FC
3FC1FC01FC
3F81FC00FC
3F81FC007C
3F81FC001C
3F81FC000C
3F81FC000C
3F81FC000C
3F81FC000C
3F81FC000C
3F81FC0018
3F81FC0018
3F81FC0018
3F81FC0030
3F81FC0070
3F80FE0060
3F80FE00E0
3F807F01C0
7FC01FEF80
FFE007FE00
ENDCHAR
STARTCHAR 0196
ENCODING 406
SWIDTH 320 0
DWIDTH 16 0
BBX 15 34 1 0
BITMAP
FF80
7F80
3F80
3F80
3F80
3F80
3F80
3F80
3F80
3F80
3F80
3F80
3F80
3F80
3F80
3F80
3F80
3F80
3F80
3F80
3F80
3F80
3F80
3F80
3F80
3F80
3F80
3F80
3F80
3F86
3FCC
3FF8
1FF8
0FE0
ENDCHAR
STARTCHAR 0197
ENCODING 407
SWIDTH 380 0
DWIDTH 19 0
BBX 16 34 2 0
BITMAP
FFFF
3FFC
1FF8
0FF0
0FF0
0FF0
0FF0
0FF0
0FF0
0FF0
0FF0
0FF0
0FF0
0FF0
0FF0
0FF0
FFFF
FFFF
0FF0
0FF0
0FF0
0FF0
0FF0
0FF0
0FF0
0FF0
0FF0
0FF0
0FF0
0FF0
0FF0
1FF8
3FFC
FFFF
ENDCHAR
STARTCHAR 0198
ENCODING 408
SWIDTH 840 0
DWIDTH 42 0
BBX 40 35 2 0
BITMAP
00000003F0
FFFF000FFC
3FFE001C1E
1FF800381F
0FF000703F
0FF000E03F
0FF001C03F
0FF003800C
0FF0070000
0FF00E0000
0FF01C0000
0FF0380000
0FF0700000
0FF0E00000
0FF1E00000
0FF3F00000
0FF7F80000
0FFFFC0000
0FFFFE0000
0FFBFE0000
0FF1FF0000
0FF1FF8000
0FF0FFC000
0FF07FE000
0FF03FE000
0FF01FF000
0FF01FF800
0FF00FFC00
0FF007FC00
0FF003FE00
0FF003FF00
0FF001FF80
1FF801FFC0
3FFE03FFE0
FFFF0FFFF0
ENDCHAR
STARTCHAR 0199
ENCODING 409
SWIDTH 560 0
DWIDTH 28 0
BBX 25 35 2 0
BITMAP
01F80000
07FE0000
0FCF0000
1F8F8000
1F9F8000
1F9F8000
3F9F0000
3F860000
3F800000
3F800000
3F800000
3F800000
3F87FE00
3F83FC00
3F81E000
3F81C000
3F838000
3F830000
3F860000
3F8C0000
3F9C0000
3FBE0000
3FFF0000
3FFF8000
3FBF8000
3F9FC000
3F8FE000
3F8FE000
3F87F000
3F87F800
3F83FC00
3F81FC00
3F81FE00
7FC1FF00
FFE7FF80
ENDCHAR
STARTCHAR 019A
ENCODING 410
SWIDTH 300 0
DWIDTH 15 0
BBX 13 34 1 0
BITMAP
7FC0
3FC0
1FC0
1FC0
1FC0
1FC0
1FC0
1FC0
1FC0
1FC0
1FC0
1FC0
1FC0
1FC0
1FC0
FFF8
FFF8
1FC0
1FC0
1FC0
1FC0
1FC0
1FC0
1FC0
1FC0
1FC0
1FC0
1FC0
1FC0
1FC0
1FC0
1FC0
3FE0
7FF0
ENDCHAR
STARTCHAR 019B
ENCODING 411
SWIDTH 500 0
DWIDTH 25 0
BBX 23 35 1 0
BITMAP
030000
0F8000
0FC000
1FC000
1FE000
38E100
306700
306F00
303C00
007800
00F000
03F000
07F800
067800
047800
00F800
00FC00
01FC00
01FC00
03FC00
03FE00
03FE00
07FE00
07F200
0FF300
0FF300
1FE300
1FE100
1FC182
3FC186
3FC1C6
7F80FE
7F80FE
7F80FE
FF007C
ENDCHAR
STARTCHAR 019C
ENCODING 412
SWIDTH 980 0
DWIDTH 49 0
BBX 45 34 2 0
BITMAP
FFF0FFF0FFF8
FFF0FFF0FFF8
3FC03FC03FE0
3FC03FC03FC0
3FC03FC03FC0
3FC03FC03FC0
3FC03FC03FC0
3FC03FC03FC0
3FC03FC03FC0
3FC03FC03FC0
3FC03FC03FC0
3FC03FC03FC0
3FC03FC03FC0
3FC03FC03FC0
3FC03FC03FC0
3FC03FC03FC0
3FC03FC03FC0
3FC03FC03FC0
3FC03FC03FC0
3FC03FC03FC0
3FC03FC03FC0
3FC03FC03FC0
3FC03FC03FC0
3FC03FC03FC0
3FC03FC03FC0
3FC03FC03FC0
3FC03FC03FC0
3FC03FC03FC0
3FC07FC07FC0
3FE0FFE0FFC0
1FF1DFF1FFC0
1FFF9FFFBFE0
0FFF0FFF3FF8
03FC07FC3FF8
ENDCHAR
STARTCHAR 019D
ENCODING 413
SWIDTH 860 0
DWIDTH 43 0
BBX 41 45 0 -11
BITMAP
00FFE000FF80
007FF0007F00
003FF0001E00
001FF8000C00
000FFC000C00
000FFE000C00
000FFF000C00
000FFF800C00
000DFF800C00
000CFFC00C00
000C7FE00C00
000C3FF00C00
000C3FF80C00
000C1FF80C00
000C0FFC0C00
000C07FE0C00
000C03FF0C00
000C01FF8C00
000C01FFCC00
000C00FFCC00
000C007FEC00
000C003FFC00
000C001FFC00
000C000FFC00
000C0007FC00
000C0007FC00
000C0003FC00
000C0001FC00
000C0000FC00
000C00007C00
000C00003C00
000C00003C00
000C00001C00
000C00000C00
000C00000000
100C00000000
7C0C00000000
FE0C00000000
FE0C00000000
FE0C00000000
FC0C00000000
7C1C00000000
7C1800000000
1FF000000000
07E000000000
ENDCHAR
STARTCHAR 019E
ENCODING 414
SWIDTH 560 0
DWIDTH 28 0
BBX 25 34 2 -10
BITMAP
FF8FF000
7F9FF800
3FBFFC00
3FE1FC00
3FC0FE00
3F80FE00
3F80FE00
3F80FE00
3F80FE00
3F80FE00
3F80FE00
3F80FE00
3F80FE00
3F80FE00
3F80FE00
3F80FE00
3F80FE00
3F80FE00
3F80FE00
3F80FE00
3F80FE00
7FC0FE00
FFE0FE00
0000FE00
0000FE00
0000FE00
0000FE00
0000FE00
0000FE00
0000FE00
0000FE00
0000FE00
0001FF00
0003FF80
ENDCHAR
STARTCHAR 019F
ENCODING 415
SWIDTH 780 0
DWIDTH 39 0
BBX 36 36 2 -1
BITMAP
0007FC0000
003FFF8000
00FC07E000
01F803F800
03F001FC00
07E000FE00
0FE0007F00
1FC0007F00
3FC0003F80
3FC0003FC0
7F80003FC0
7F80003FE0
7F80003FE0
FF80001FE0
FF80001FE0
FF80001FE0
FF80001FF0
FFFFFFFFF0
FFFFFFFFF0
FF80001FF0
FF80001FF0
FF80001FE0
FF80001FE0
FF80003FE0
7F80003FE0
7F80003FC0
7F80003FC0
3FC0003F80
1FC0007F80
1FC0007F00
0FE000FE00
07F000FC00
03F801F800
00FC07E000
003FFFC000
0007FC0000
ENDCHAR
STARTCHAR 01A0
ENCODING 416
SWIDTH 800 0
DWIDTH 40 0
BBX 37 44 2 -1
BITMAP
00000003E0
00000007E0
00000007F0
00000007F0
00000007F0
0000000390
0000000018
0000000010
0007FC0010
003FFF8030
00FC07E060
01F803FFE0
03F001FF80
07E001FC00
0FE000FE00
1FC000FF00
3FC0007F00
3FC0007F80
7FC0007F80
7F80007FC0
7F80003FC0
FF80003FC0
FF80003FE0
FF80003FE0
FF80003FE0
FF80003FE0
FF80003FE0
FF80003FE0
FF80003FE0
FF80003FE0
FF80003FC0
7F80003FC0
7F80003FC0
7F80007FC0
3FC0007F80
3FC0007F80
1FC0007F00
0FE000FE00
07E000FC00
03F001F800
01F803F000
00FC07E000
003FFF8000
0007FC0000
ENDCHAR
STARTCHAR 01A1
ENCODING 417
SWIDTH 580 0
DWIDTH 29 0
BBX 28 32 1 0
BITMAP
000007C0
00000FC0
00000FE0
00000FE0
00000FE0
00000720
00000030
00000030
00000060
01FF0060
07C7E1C0
0F83FFC0
1F03FF00
3F03F800
7F01F800
7F01FC00
FF01FC00
FE01FC00
FE01FC00
FE01FC00
FE01FC00
FE01FC00
FE01FC00
FE01FC00
7E01FC00
7F01F800
7F01F800
3F03F000
1F03F000
0F83E000
07C7C000
01FF0000
ENDCHAR
STARTCHAR 01A2
ENCODING 418
SWIDTH 1180 0
DWIDTH 59 0
BBX 55 36 2 -1
BITMAP
0007FC0000FF00
003FFF8003FFC0
00FC07E00FFFC0
01F803F01FFFE0
07F001F8383FE0
0FE000FC703FF0
0FE000FEE01FF0
1FC000FFC01FF0
3FC0007F801FF0
3FC0007F801FF0
7FC0007FC01FF0
7F80007FC01FF0
7F80003FC01FF0
FF80003FC01FF0
FF80003FE01FF0
FF80003FE01FF0
FF80003FE01FF0
FF80003FE01FF0
FF80003FE01FF0
FF80003FE01FF0
FF80003FE01FF0
FF80003FE01FF0
FF80003FC01FF0
7F80003FC01FF0
7F80007FC01FF0
7FC0007F801FF0
3FC0007F801FF0
3FC0007F001FF0
1FC000FF001FF0
0FE000FE001FF0
07E001FC001FF0
03F001F8001FF0
01F803F0001FF0
007E0FC0003FF8
001FFF00007FFE
00004000000000
ENDCHAR
STARTCHAR 01A3
ENCODING 419
SWIDTH 800 0
DWIDTH 40 0
BBX 37 33 1 -9
BITMAP
03FF00FF00
07C7C1FF80
0F83E3FFC0
1F03F61FC0
3F03FC0FE0
7F01F80FE0
7F01F80FE0
7F01FC0FE0
FF01FC0FE0
FE01FC0FE0
FE01FC0FE0
FE01FC0FE0
FE01FC0FE0
FE01FC0FE0
FF01FC0FE0
7F01FC0FE0
7F01F80FE0
7F03F80FE0
3F03F00FE0
1F83F00FE0
0F87E00FE0
07CFC00FE0
03FF000FE0
0000000FE0
0000000FE0
0000000FE0
0000000FE0
0000000FE0
0000000FE0
0000000FE0
0000000FE0
0000000FE0
0000003FF8
ENDCHAR
STARTCHAR 01A4
ENCODING 420
SWIDTH 740 0
DWIDTH 37 0
BBX 37 34 0 0
BITMAP
07FFFFF000
3FFFFFFF00
701FF87F80
600FF03FC0
C00FF01FE0
C00FF01FF0
800FF00FF0
800FF00FF0
C60FF00FF8
FF8FF00FF8
7F8FF00FF8
7F8FF00FF8
3F8FF00FF0
3F8FF00FF0
0F0FF01FE0
000FF03FC0
000FF0FF80
000FFFFE00
000FFF8000
000FF00000
000FF00000
000FF00000
000FF00000
000FF00000
000FF00000
000FF00000
000FF00000
000FF00000
000FF00000
000FF00000
000FF00000
001FF80000
007FFE0000
00FFFF0000
ENDCHAR
STARTCHAR 01A5
ENCODING 421
SWIDTH 560 0
DWIDTH 28 0
BBX 24 45 2 -10
BITMAP
01FC00
07FF00
0FC780
1F87C0
1F8FC0
1F8FC0
3F8F80
3F8300
3F8000
3F8000
3F8000
3F8000
3F9FE0
3FBFF8
3FF3FC
3FE0FC
3FC0FE
3F80FE
3F807F
3F807F
3F807F
3F807F
3F807F
3F807F
3F807F
3F807F
3F807F
3F807F
3F807F
3F80FE
3F80FE
3FC1FC
3FF3F8
3FBFF0
3F9FE0
3F8000
3F8000
3F8000
3F8000
3F8000
3F8000
3F8000
3F8000
3FC000
FFF000
ENDCHAR
STARTCHAR 01A6
ENCODING 422
SWIDTH 740 0
DWIDTH 37 0
BBX 35 44 1 -10
BITMAP
FFFF000000
7FFE000000
1FF8000000
0FF0000000
0FF0000000
0FF0000000
0FFF800000
0FFFFE0000
0FF87F8000
0FF03FC000
0FF01FE000
0FF01FF000
0FF00FF000
0FF00FF000
0FF00FF800
0FF00FF800
0FF00FF800
0FF00FF800
0FF00FF000
0FF00FF000
0FF01FE000
0FF01FE000
0FF03FC000
0FF0FF8000
0FFFFE0000
0FFFFF8000
0FF03FC000
0FF01FE000
0FF01FF000
0FF01FF000
0FF00FF000
1FF80FF800
7FFE0FF800
FFFF0FF800
00000FF800
00000FF800
00000FF800
00000FF800
000007F800
000007F860
000007FCC0
000003FEC0
000001FF80
0000007E00
ENDCHAR
STARTCHAR 01A7
ENCODING 423
SWIDTH 560 0
DWIDTH 28 0
BBX 24 36 2 -1
BITMAP
601C00
61FFC0
7FC1F0
7F0078
7C007C
78003E
78003E
70003F
60003F
60007F
6000FF
0001FF
0007FF
001FFE
007FFE
01FFFC
07FFFC
0FFFF8
1FFFE0
3FFFC0
7FFF00
7FFC00
FFF000
FFC000
FF0002
FE0002
FC0006
FC0006
FC0006
7C000E
7C001E
3E001E
1E003E
0F80FE
07FFF6
00FF02
ENDCHAR
STARTCHAR 01A8
ENCODING 424
SWIDTH 400 0
DWIDTH 20 0
BBX 16 23 2 1
BITMAP
6FF0
7C7C
781E
701E
601F
603F
407F
00FF
03FF
0FFE
3FFE
7FF8
7FF0
FFC0
FF00
FC01
F803
F803
F807
780F
7C1F
3FFF
0FF1
ENDCHAR
STARTCHAR 01A9
ENCODING 425
SWIDTH 640 0
DWIDTH 32 0
BBX 30 34 1 0
BITMAP
FFFFFFF8
FFFFFFF8
FFC001F8
7FE00078
3FF00038
3FF00018
1FF80018
0FFC0018
07FC0008
07FE0008
03FF0000
01FF8000
00FF8000
00FFC000
007FC000
003F8000
001F8000
001F0000
000E0000
001C0000
00180000
00300000
00600000
00C00004
01800004
0380000C
0700007C
0FFFFFFC
1FFFFFFC
3FFFFFFC
3FFFFFFC
7FFFFFF8
FFFFFFF8
FFFFFFF8
ENDCHAR
STARTCHAR 01AA
ENCODING 426
SWIDTH 460 0
DWIDTH 23 0
BBX 23 47 0 -12
BITMAP
0F8000
1FE000
307000
601800
601800
C00C00
C00C00
C00C00
C00C00
C00C00
601C00
601C00
307C00
1FFC00
0FFC00
01FC00
01FC00
01FC00
01FC00
01FC00
01FC00
01FC00
01FC00
01FC00
01FC00
01FC00
01FC00
01FC00
01FC00
01FC00
01FC00
01FC00
01FC00
01FC00
01FC00
01FC00
01FC00
01FC00
01FC00
01FC18
01FC7C
00FC7E
00FC7E
00FC3E
007E3C
003FF8
000FE0
ENDCHAR
STARTCHAR 01AB
ENCODING 427
SWIDTH 340 0
DWIDTH 17 0
BBX 14 42 2 -11
BITMAP
0180
0380
0380
0780
0F80
1F80
3F80
7F80
FFF8
FFF8
3F80
3F80
3F80
3F80
3F80
3F80
3F80
3F80
3F80
3F80
3F80
3F80
3F80
3F80
3F80
3F80
3F8C
3FDC
3FFC
1FFC
0FEC
000C
100C
7C0C
FE0C
FE0C
FE0C
FC0C
7C1C
7C18
1FF0
07E0
ENDCHAR
STARTCHAR 01AC
ENCODING 428
SWIDTH 720 0
DWIDTH 36 0
BBX 34 34 0 0
BITMAP
07FFFFFFC0
3FFFFFFFC0
6001FE0FC0
4001FE03C0
C001FE01C0
C001FE00C0
8001FE00C0
8001FE00C0
C601FE0040
FF81FE0040
7F81FE0000
7F81FE0000
3F81FE0000
3F81FE0000
0F01FE0000
0001FE0000
0001FE0000
0001FE0000
0001FE0000
0001FE0000
0001FE0000
0001FE0000
0001FE0000
0001FE0000
0001FE0000
0001FE0000
0001FE0000
0001FE0000
0001FE0000
0001FE0000
0001FE0000
0003FF0000
000FFFC000
001FFFE000
ENDCHAR
STARTCHAR 01AD
ENCODING 429
SWIDTH 400 0
DWIDTH 20 0
BBX 17 35 2 0
BITMAP
01F800
07FE00
0FCF00
1F8F80
1F9F80
1F9F80
3F9F00
3F8600
3F8000
3F8000
3F8000
3F8000
FFF800
FFF800
3F8000
3F8000
3F8000
3F8000
3F8000
3F8000
3F8000
3F8000
3F8000
3F8000
3F8000
3F8000
3F8000
3F8000
3F8000
3F8000
3F8C00
3FD800
3FF800
1FF000
0FE000
ENDCHAR
STARTCHAR 01AE
ENCODING 430
SWIDTH 660 0
DWIDTH 33 0
BBX 30 39 2 -5
BITMAP
FFFFFFFC
FFFFFFFC
FC1FE1FC
F01FE07C
E01FE03C
E01FE01C
C01FE01C
C01FE00C
C01FE00C
801FE00C
001FE000
001FE000
001FE000
001FE000
001FE000
001FE000
001FE000
001FE000
001FE000
001FE000
001FE000
001FE000
001FE000
001FE000
001FE000
001FE000
001FE000
001FE000
001FE000
001FE020
001FE0F8
001FE1FC
000FE1FC
000FE1FC
000FE1FC
0007E0F8
0003F0F0
0001FFE0
00003F80
ENDCHAR
STARTCHAR 01AF
ENCODING 431
SWIDTH 760 0
DWIDTH 38 0
BBX 37 44 1 -1
BITMAP
00000003E0
00000007E0
00000007F0
00000007F0
00000007F0
0000000390
0000000018
0000000018
0000000030
FFFF00FFF0
7FFC007FE0
1FF8001E00
0FF0000C00
0FF0000C00
0FF0000C00
0FF0000C00
0FF0000C00
0FF0000C00
0FF0000C00
0FF0000C00
0FF0000C00
0FF0000C00
0FF0000C00
0FF0000C00
0FF0000C00
0FF0000C00
0FF0000C00
0FF0000C00
0FF0000C00
0FF0000C00
0FF0000C00
0FF0000C00
0FF0000C00
0FF0000C00
0FF0000C00
0FF0001C00
07F8001800
07F8001800
07F8003800
03FC007000
01FE00E000
00FFC7C000
003FFF8000
0007FC0000
ENDCHAR
STARTCHAR 01B0
ENCODING 432
SWIDTH 620 0
DWIDTH 31 0
BBX 29 32 1 0
BITMAP
000003E0
000007E0
000007F0
000007F0
000007F0
00000390
00000018
00000018
00000010
FF87FE30
7F81FE70
3F80FFE0
3F80FFC0
3F80FE00
3F80FE00
3F80FE00
3F80FE00
3F80FE00
3F80FE00
3F80FE00
3F80FE00
3F80FE00
3F80FE00
3F80FE00
3F80FE00
3F80FE00
3F80FE00
3F81FE00
3FC3FE00
1FFFFF00
0FFCFFC0
07F8FC00
ENDCHAR
STARTCHAR 01B1
ENCODING 433
SWIDTH 780 0
DWIDTH 39 0
BBX 35 35 2 -1
BITMAP
FFFE0FFFE0
FFFE0FFFE0
FFFE0FFFE0
FFFE0FFFE0
FFFE0FFFE0
FFFE0FFFE0
F8060C07E0
C0060C0060
00060C0000
000E0E0000
00FE0FC000
03FC07F000
07F003FC00
1FE001FE00
3FE000FF00
3FC000FF80
7FC0007F80
FF80007FC0
FF80007FC0
FF80007FC0
FF80003FC0
FF80003FE0
FF80003FE0
FF80003FC0
FF80007FC0
FF80007FC0
7F80007FC0
7F80007F80
3FC000FF80
3FC000FF00
1FE001FE00
0FF003FC00
03F807F000
00FFBFC000
001FFE0000
ENDCHAR
STARTCHAR 01B2
ENCODING 434
SWIDTH 680 0
DWIDTH 34 0
BBX 30 36 1 -1
BITMAP
000000F0
FFFF00F8
7FFC01F8
1FF801FC
0FF001FC
0FF000FC
0FF0007C
0FF0003C
0FF0001C
0FF0000C
0FF0000C
0FF0000C
0FF0000C
0FF0000C
0FF0000C
0FF0000C
0FF0000C
0FF0000C
0FF0000C
0FF0000C
0FF0000C
0FF0000C
0FF0000C
0FF0000C
0FF0000C
0FF0000C
0FF0000C
0FF0001C
07F80018
07F80018
07F80038
03FC0070
01FE00E0
00FF87C0
003FFF80
0007FC00
ENDCHAR
STARTCHAR 01B3
ENCODING 435
SWIDTH 840 0
DWIDTH 42 0
BBX 40 34 1 1
BITMAP
0FFC0007FF
1FFF0001FE
70FF800078
707FC00070
F83FE00070
F81FF00060
FC1FF000E0
780FF800C0
7007F80180
0007FC0380
0003FC0300
0003FE0700
0001FE0600
0001FF0C00
0000FF0C00
0000FF9800
00007FB000
00007FF000
00003FE000
00003FE000
00001FE000
00001FE000
00001FE000
00001FE000
00001FE000
00001FE000
00001FE000
00001FE000
00001FE000
00001FE000
00001FE000
00003FF000
0000FFF800
0001FFFE00
ENDCHAR
STARTCHAR 01B4
ENCODING 436
SWIDTH 700 0
DWIDTH 35 0
BBX 34 45 1 -10
BITMAP
0000003800
000001FF00
0000038780
0000060780
0000040FC0
00000C0FC0
0000080FC0
0000180780
0000180000
0000100000
0000100000
0000300000
FFF0200000
7FC0200000
3FC0600000
1FC0400000
1FC0400000
1FE0400000
0FE0C00000
0FE0800000
07F0800000
07F0800000
03F9800000
03F9000000
03F9000000
01FD000000
01FE000000
00FE000000
00FE000000
00FC000000
007C000000
007C000000
0038000000
0038000000
0038000000
0018000000
0010000000
0030000000
0020000000
7860000000
FC60000000
FCC0000000
FD80000000
FF80000000
7F00000000
ENDCHAR
STARTCHAR 01B5
ENCODING 437
SWIDTH 660 0
DWIDTH 33 0
BBX 30 34 1 0
BITMAP
1FFFFFF8
3FFFFFF0
3F801FF0
3E003FE0
3C007FE0
38007FC0
3000FF80
3000FF80
3001FF00
2003FF00
0003FE00
0007FC00
0007FC00
000FF800
001FF800
001FF000
07FFFE00
07FFFE00
007FC000
00FFC000
00FF8000
01FF0000
01FF0004
03FE0004
07FE000C
07FC000C
0FF8001C
1FF8001C
1FF0003C
3FF00078
3FE000F8
7FC003F8
FFFFFFF8
FFFFFFF8
ENDCHAR
STARTCHAR 01B6
ENCODING 438
SWIDTH 440 0
DWIDTH 22 0
BBX 20 23 1 0
BITMAP
7FFFF0
7FFFF0
781FF0
701FE0
603FC0
603FC0
407F80
00FF00
00FF00
01FE00
3FFFF0
3FFFF0
07F800
07F800
0FF000
0FF010
1FE010
1FE030
3FC030
7F8070
7F81F0
FFFFF0
FFFFF0
ENDCHAR
STARTCHAR 01B7
ENCODING 439
SWIDTH 600 0
DWIDTH 30 0
BBX 29 35 0 -1
BITMAP
3FFFFFE0
3FFFFFC0
3F007FC0
3E007F80
3C00FF80
3800FF00
3801FF00
3001FE00
3003FE00
2007FC00
0007F800
000FF800
000FF000
000FF000
000FFE00
0001FF00
00007FC0
00003FE0
00001FE0
00001FF0
00000FF0
00000FF8
00000FF8
00000FF8
00000FF8
00000FF8
40001FF0
E0001FF0
70003FF0
38003FE0
1E007FC0
0F00FF80
03FFFF00
01FFFC00
003FE000
ENDCHAR
STARTCHAR 01B8
ENCODING 440
SWIDTH 640 0
DWIDTH 32 0
BBX 29 35 2 -1
BITMAP
3FFFFFE0
3FFFFFE0
1FF00FE0
1FF003E0
0FF801E0
07F800E0
07FC0060
03FC0060
03FE0020
01FE0020
01FF0000
00FF0000
00FF8000
007F8000
03FF8000
0FF80000
1FE00000
3FC00000
7FC00000
7F800000
FF800000
FF800000
FF800000
FF800000
FF800000
FF800000
FF800000
7FC00018
7FC00078
3FE000E0
1FF001C0
0FF80780
07FFFF00
01FFFC00
003FE000
ENDCHAR
STARTCHAR 01B9
ENCODING 441
SWIDTH 500 0
DWIDTH 25 0
BBX 22 34 2 -11
BITMAP
3FFFF0
3FFFF0
1FFFF0
0FFFF8
0F00F8
078038
038018
01C018
00E008
00700C
007800
0FF800
1FFC00
3FFE00
3FFF00
7F8200
7F0000
FE0000
FE0000
FC0000
FC0000
FC0000
FC0000
FC0000
FC0000
7C0000
7C00F8
7E01FC
3E01FC
1F01FC
0F01FC
0780F8
03FFF0
00FF80
ENDCHAR
STARTCHAR 01BA
ENCODING 442
SWIDTH 480 0
DWIDTH 24 0
BBX 20 34 2 -11
BITMAP
3FFFF0
3FFFF0
3FFFE0
3FFFC0
780380
700700
600E00
E01C00
C03800
807000
00FE00
01FFC0
03FFE0
0783F0
0600F0
0000F0
0001F0
0007F0
001FE0
00FFE0
03FFC0
0FFF80
1FFE00
3FFC00
7FF000
7F8000
FE00C0
FC03E0
F807F0
F007F0
7807F0
3E03E0
1FFFC0
03FE00
ENDCHAR
STARTCHAR 01BB
ENCODING 443
SWIDTH 500 0
DWIDTH 25 0
BBX 23 35 1 0
BITMAP
00FE00
03FF80
07FFC0
0FFFE0
1FFFF0
1FFFF0
381FF8
700FF8
6007F8
4007F8
0003F8
0003F8
0003F8
0003F0
0003F0
0003E0
0007E0
00FFFC
00FFFC
000F00
000E00
001C00
003800
003000
006002
00C006
018006
03000C
07FFFC
0FFFFC
1FFFFC
1FFFFC
3FFFF8
7FFFF8
FFFFF8
ENDCHAR
STARTCHAR 01BC
ENCODING 444
SWIDTH 640 0
DWIDTH 32 0
BBX 27 35 3 -1
BITMAP
FFFFFFC0
7FFFFFC0
1FE00FC0
1FE003C0
1FE001C0
1FE000C0
1FE000C0
1FE000C0
1FE00040
1FE00040
1FE00000
1FE00000
1FE00000
1FE00000
1FFF8000
1FFFF000
000FFC00
0003FF00
0000FF80
0000FFC0
00007FC0
00003FC0
00003FE0
00003FE0
00003FE0
00003FE0
00003FE0
80007FC0
C0007FC0
E000FF80
7801FF80
3C03FF00
1FFFFC00
07FFF800
00FF8000
ENDCHAR
STARTCHAR 01BD
ENCODING 445
SWIDTH 520 0
DWIDTH 26 0
BBX 22 34 2 -11
BITMAP
07FFF8
07FFF8
07FFF8
0FFFF0
0FFFF0
0FFFF0
080000
180000
180000
180000
3F0000
3FF800
01FF00
007FC0
001FE0
000FF0
0007F8
0003F8
0003FC
0001FC
0001FC
0001FC
0001FC
0001FC
0001FC
0001FC
1001FC
7C03F8
FE03F8
FE03F0
FE07E0
7C0FC0
3FFF00
07FC00
ENDCHAR
STARTCHAR 01BE
ENCODING 446
SWIDTH 440 0
DWIDTH 22 0
BBX 18 31 2 0
BITMAP
018000
038000
038000
078000
0F8000
1F8000
3F8000
7F8000
FFF800
FFF800
3F8000
3F8000
3F8000
3F8000
3F8000
3FC000
3FF000
1FFC00
1FFE00
0FFF00
07FF80
01FF80
007FC0
201FC0
300FC0
3007C0
380780
380780
3C0F80
3F1F00
33FC00
ENDCHAR
STARTCHAR 01BF
ENCODING 447
SWIDTH 620 0
DWIDTH 31 0
BBX 28 33 1 -9
BITMAP
FFC0FF00
3FC3FF80
1FC7FFC0
1FCFFFE0
1FDFFFE0
1FDF7FE0
1FF80FF0
1FF007F0
1FE007F0
1FE003F0
1FC003F0
1FC003F0
1FC003E0
1FC003E0
1FC007E0
1FC007C0
1FC007C0
1FC00F80
1FC00F80
1FC01F00
1FC03E00
1FC0FC00
1FC1F800
1FC7E000
1FDF8000
1FFE0000
1FF00000
1FC00000
1FC00000
1FC00000
1FE00000
1FE00000
7FF80000
ENDCHAR
STARTCHAR 01C0
ENCODING 448
SWIDTH 220 0
DWIDTH 11 0
BBX 4 35 3 0
BITMAP
F0
F0
F0
F0
F0
F0
F0
F0
F0
F0
F0
F0
F0
F0
F0
F0
F0
F0
F0
F0
F0
F0
F0
F0
F0
F0
F0
F0
F0
F0
F0
F0
F0
F0
F0
ENDCHAR
STARTCHAR 01C1
ENCODING 449
SWIDTH 420 0
DWIDTH 21 0
BBX 14 35 3 0
BITMAP
F03C
F03C
F03C
F03C
F03C
F03C
F03C
F03C
F03C
F03C
F03C
F03C
F03C
F03C
F03C
F03C
F03C
F03C
F03C
F03C
F03C
F03C
F03C
F03C
F03C
F03C
F03C
F03C
F03C
F03C
F03C
F03C
F03C
F03C
F03C
ENDCHAR
STARTCHAR 01C2
ENCODING 450
SWIDTH 560 0
DWIDTH 28 0
BBX 24 34 2 0
BITMAP
003C00
003C00
003C00
003C00
003C00
003C00
003C00
003C00
003C00
003C00
FFFFFF
FFFFFF
FFFFFF
FFFFFF
003C00
003C00
003C00
003C00
003C00
003C00
FFFFFF
FFFFFF
FFFFFF
FFFFFF
003C00
003C00
003C00
003C00
003C00
003C00
003C00
003C00
003C00
003C00
ENDCHAR
STARTCHAR 01C3
ENCODING 451
SWIDTH 340 0
DWIDTH 17 0
BBX 9 35 4 0
BITMAP
3E00
7F00
FF00
FF80
FF80
FF80
FF80
FF00
7F00
7F00
7F00
3E00
3E00
3E00
3E00
1C00
1C00
1C00
1C00
1C00
0C00
0C00
0C00
0000
0000
0000
0000
1C00
7F00
FF00
FF80
FF80
FF80
7F00
3E00
ENDCHAR
STARTCHAR 01C4
ENCODING 452
SWIDTH 1340 0
DWIDTH 67 0
BBX 63 45 1 0
BITMAP
0000000000600380
0000000000780780
00000000003C0F00
00000000001E1E00
00000000001F3E00
00000000000FFC00
000000000007F800
000000000007F000
000000000003F000
0000000000000000
0000000000000000
FFFFF0000FFFFFFC
7FFFFF000FFFFFFC
1FF01FC00FC00FF8
0FF00FF01F001FF0
0FF007F81E001FF0
0FF003FC1C003FE0
0FF001FE1C007FE0
0FF001FE18007FC0
0FF000FF1800FF80
0FF000FF1000FF80
0FF000FF8001FF00
0FF000FF8003FF00
0FF0007F8003FE00
0FF0007F8007FC00
0FF0007FC007FC00
0FF0007FC00FF800
0FF0007FC01FF800
0FF0007FC01FF000
0FF0007FC03FE000
0FF0007FC07FE000
0FF0007F807FC000
0FF0007F80FFC000
0FF0007F80FF8002
0FF000FF81FF0002
0FF000FF03FF0006
0FF000FF03FE0006
0FF000FE07FE0006
0FF001FC07FC000E
0FF001F80FF8001E
0FF003F01FF8003E
0FF007E01FF0007E
1FF81FC03FF001FC
3FFFFF003FFFFFFC
FFFFF0007FFFFFFC
ENDCHAR
STARTCHAR 01C5
ENCODING 453
SWIDTH 1160 0
DWIDTH 58 0
BBX 56 34 1 0
BITMAP
FFFFF00003801C
7FFFFF0001E03C
1FF01FC000F078
0FF00FF000F8F0
0FF007F8007DE0
0FF003FC003FE0
0FF001FE001FC0
0FF001FE001F80
0FF000FF000F80
0FF000FF000000
0FF000FF800000
0FF000FF87FFFF
0FF0007F87FFFF
0FF0007F8781FE
0FF0007FC603FC
0FF0007FC603FC
0FF0007FC407F8
0FF0007FC407F8
0FF0007FC00FF0
0FF0007FC00FE0
0FF0007F801FE0
0FF0007F803FC0
0FF0007F803FC0
0FF000FF807F80
0FF000FF007F80
0FF000FF00FF00
0FF000FE01FE03
0FF001FC01FE03
0FF001F803FC03
0FF003F003FC06
0FF007E007F80E
1FF81FC007F81E
3FFFFF000FFFFE
FFFFF0000FFFFE
ENDCHAR
STARTCHAR 01C6
ENCODING 454
SWIDTH 1000 0
DWIDTH 50 0
BBX 47 34 1 0
BITMAP
0007FE03801C
0001FE01C038
0000FE01E0F0
0000FE00F1F0
0000FE007FE0
0000FE007FC0
0000FE003FC0
0000FE001F80
0000FE001F00
0000FE000000
0000FE000000
03F8FE07FFFE
0FFEFE07FFFE
1FE7FE0701FE
3F81FE0E03FC
3F80FE0C07F8
7F00FE0C07F8
7F00FE0C0FF0
7F00FE000FF0
FF00FE001FE0
FE00FE001FC0
FE00FE003FC0
FE00FE007F80
FE00FE007F80
FE00FE00FF00
FF00FE00FF00
FF00FE01FE02
7F00FE03FC02
7F00FE03FC06
7F01FE07F806
3F83FE07F80E
1FC7FF8FF03E
0FFEFFCFFFFE
07F8F81FFFFE
ENDCHAR
STARTCHAR 01C7
ENCODING 455
SWIDTH 1140 0
DWIDTH 57 0
BBX 55 39 1 -5
BITMAP
FFFF800003FFFE
3FFE000000FFF8
1FF80000003FE0
0FF00000001FE0
0FF00000001FE0
0FF00000001FE0
0FF00000001FE0
0FF00000001FE0
0FF00000001FE0
0FF00000001FE0
0FF00000001FE0
0FF00000001FE0
0FF00000001FE0
0FF00000001FE0
0FF00000001FE0
0FF00000001FE0
0FF00000001FE0
0FF00000001FE0
0FF00000001FE0
0FF00000001FE0
0FF00000001FE0
0FF00000001FE0
0FF00000001FE0
0FF00004001FE0
0FF0000C001FE0
0FF0000C001FE0
0FF0001C001FE0
0FF0001C001FE0
0FF0003C001FE0
0FF00078601FE0
0FF001F8F81FE0
1FF807F9F81FC0
7FFFFFF9FC1FC0
FFFFFFF9FC1FC0
00000001F81F80
00000001F83F80
00000000F83F00
000000003FFC00
000000000FF000
ENDCHAR
STARTCHAR 01C8
ENCODING 456
SWIDTH 980 0
DWIDTH 49 0
BBX 44 45 1 -10
BITMAP
0000000001C0
FFFF800007F0
3FFE000007F0
1FF800000FF0
0FF000000FF0
0FF0000007F0
0FF0000007E0
0FF0000001C0
0FF000000000
0FF000000000
0FF000000000
0FF000000000
0FF000003FF0
0FF000000FF0
0FF0000007F0
0FF0000007F0
0FF0000007F0
0FF0000007F0
0FF0000007F0
0FF0000007F0
0FF0000007F0
0FF0000007F0
0FF0000007F0
0FF0000007F0
0FF0000407F0
0FF0000C07F0
0FF0000C07F0
0FF0001C07F0
0FF0001C07F0
0FF0003C07F0
0FF0007807F0
0FF001F807F0
1FF807F807F0
7FFFFFF807F0
FFFFFFF807F0
0000000007F0
0000000007F0
0000000307F0
00000007C7F0
0000000FC7F0
0000000FC7E0
00000007C7E0
0000000787C0
00000003FF80
00000000FE00
ENDCHAR
STARTCHAR 01C9
ENCODING 457
SWIDTH 620 0
DWIDTH 31 0
BBX 25 45 2 -10
BITMAP
00001E00
FF807F00
7F807F00
3F80FF80
3F807F80
3F807F00
3F807F00
3F801C00
3F800000
3F800000
3F800000
3F800000
3F83FF80
3F80FF80
3F807F80
3F807F80
3F807F80
3F807F80
3F807F80
3F807F80
3F807F80
3F807F80
3F807F80
3F807F80
3F807F80
3F807F80
3F807F80
3F807F80
3F807F80
3F807F80
3F807F80
3F807F80
3F807F80
7FC07F80
FFE07F80
00007F00
00007F00
00107F00
007C7F00
007C7F00
00FC7E00
007C7E00
00787C00
003FF800
000FE000
ENDCHAR
STARTCHAR 01CA
ENCODING 458
SWIDTH 1200 0
DWIDTH 60 0
BBX 58 39 1 -5
BITMAP
FFE000FF807FFFC0
7FF0007F001FFF80
3FF0001E0007FE00
1FF8000C0003FC00
0FFC000C0003FC00
0FFE000C0003FC00
0FFF000C0003FC00
0FFF000C0003FC00
0DFF800C0003FC00
0CFFC00C0003FC00
0C7FE00C0003FC00
0C3FF00C0003FC00
0C3FF80C0003FC00
0C1FF80C0003FC00
0C0FFC0C0003FC00
0C07FE0C0003FC00
0C03FF0C0003FC00
0C01FF8C0003FC00
0C01FF8C0003FC00
0C00FFCC0003FC00
0C007FEC0003FC00
0C003FFC0003FC00
0C001FFC0003FC00
0C000FFC0003FC00
0C0007FC0003FC00
0C0007FC0003FC00
0C0003FC0003FC00
0C0001FC0003FC00
0C0000FC0003FC00
0C00007C0403FC00
0C00003C1F03FC00
1E00003C3F83FC00
7F80001C3F83F800
FFC0000C3F83F800
000000003F03F800
000000001F03F000
000000000F07E000
0000000007FFC000
0000000001FE0000
ENDCHAR
STARTCHAR 01CB
ENCODING 459
SWIDTH 1020 0
DWIDTH 51 0
BBX 46 45 1 -10
BITMAP
0000000000F0
FFE000FF81FC
7FF0007F03FC
3FF0001E03FC
1FF8000C03FC
0FFC000C01FC
0FFE000C01F8
0FFF000C0070
0FFF000C0000
0DFF800C0000
0CFFC00C0000
0C7FE00C0000
0C3FF00C0FFC
0C3FF80C03FC
0C1FF80C01FC
0C0FFC0C01FC
0C07FE0C01FC
0C03FF0C01FC
0C01FF8C01FC
0C01FF8C01FC
0C00FFCC01FC
0C007FEC01FC
0C003FFC01FC
0C001FFC01FC
0C000FFC01FC
0C0007FC01FC
0C0007FC01FC
0C0003FC01FC
0C0001FC01FC
0C0000FC01FC
0C00007C01FC
0C00003C01FC
1E00003C01FC
7F80001C01FC
FFC0000C01FC
0000000001FC
0000000001FC
00000000C1FC
00000001F1FC
00000003F1FC
00000003F1F8
00000003F1F8
00000001E3F0
00000000FFE0
000000003F80
ENDCHAR
STARTCHAR 01CC
ENCODING 460
SWIDTH 880 0
DWIDTH 44 0
BBX 39 45 2 -10
BITMAP
0000000078
00000001FC
00000001FC
00000003FE
00000003FE
00000001FC
00000001FC
0000000070
0000000000
0000000000
0000000000
0000000000
FF8FE00FFC
7F9FF003FC
3FBFF801FC
3FE3F801FC
3FC1FC01FC
3F81FC01FC
3F81FC01FC
3F81FC01FC
3F81FC01FC
3F81FC01FC
3F81FC01FC
3F81FC01FC
3F81FC01FC
3F81FC01FC
3F81FC01FC
3F81FC01FC
3F81FC01FC
3F81FC01FC
3F81FC01FC
3F81FC01FC
3F81FC01FC
7FC3FE01FC
FFE7FF01FC
00000001FC
00000001FC
00000041FC
000001F1FC
000001F1FC
000003F1F8
000001F1F8
000001E1F0
000000FFE0
0000003F80
ENDCHAR
STARTCHAR 01CD
ENCODING 461
SWIDTH 720 0
DWIDTH 36 0
BBX 34 44 1 0
BITMAP
00F0070000
00780F0000
003C1E0000
001E3C0000
001F7C0000
000FF80000
0007F00000
0007E00000
0003E00000
0000C00000
0001C00000
0001C00000
0001E00000
0003E00000
0003F00000
0007F00000
0007F80000
0007F80000
000FF80000
000FFC0000
001BFC0000
001BFE0000
0019FE0000
0031FE0000
0030FF0000
0060FF0000
0060FF8000
00607F8000
00C07FC000
00C03FC000
01C03FC000
01801FE000
01FFFFE000
03FFFFF000
03000FF000
07000FF000
060007F800
060007F800
0E0007FC00
0C0003FC00
1C0003FE00
3C0003FE00
7F000FFF80
FFC03FFFC0
ENDCHAR
STARTCHAR 01CE
ENCODING 462
SWIDTH 500 0
DWIDTH 25 0
BBX 24 34 1 0
BITMAP
0E0070
0701E0
0783C0
03C7C0
01FF80
01FF00
00FF00
007E00
007C00
000000
000000
07FF80
1F0FC0
3C07F0
3C03F0
7E03F8
7E03F8
7E03F8
7E03F8
3C03F8
000FF8
007FF8
03E3F8
0FC3F8
3F83F8
7F03F8
7F03F8
FE03F8
FE03F8
FF07F8
FF8FF8
FFFBFF
7FF1FE
3FC1FC
ENDCHAR
STARTCHAR 01CF
ENCODING 463
SWIDTH 400 0
DWIDTH 20 0
BBX 16 44 2 0
BITMAP
E00E
F01E
783C
3C78
3EF8
1FF0
0FE0
0FE0
07C0
0000
FFFF
7FFC
1FF8
0FF0
0FF0
0FF0
0FF0
0FF0
0FF0
0FF0
0FF0
0FF0
0FF0
0FF0
0FF0
0FF0
0FF0
0FF0
0FF0
0FF0
0FF0
0FF0
0FF0
0FF0
0FF0
0FF0
0FF0
0FF0
0FF0
0FF0
0FF0
1FF8
7FFC
FFFF
ENDCHAR
STARTCHAR 01D0
ENCODING 464
SWIDTH 300 0
DWIDTH 15 0
BBX 16 34 -1 0
BITMAP
E007
701E
783C
3C7C
1EF8
1FF0
0FF0
07E0
07C0
0000
0000
1FF0
0FF0
07F0
07F0
07F0
07F0
07F0
07F0
07F0
07F0
07F0
07F0
07F0
07F0
07F0
07F0
07F0
07F0
07F0
07F0
07F0
0FF8
1FFC
ENDCHAR
STARTCHAR 01D1
ENCODING 465
SWIDTH 780 0
DWIDTH 39 0
BBX 35 45 2 -1
BITMAP
0078038000
003C078000
001E0F0000
000F1E0000
000FBE0000
0007FC0000
0003F80000
0003F00000
0001F00000
0007FC0000
003FFF8000
00FC07E000
01F803F000
03F001F800
07E001FC00
0FE000FE00
1FC000FF00
3FC0007F80
3FC0007F80
7FC0007F80
7F80007FC0
7F80003FC0
FF80003FC0
FF80003FE0
FF80003FE0
FF80003FE0
FF80003FE0
FF80003FE0
FF80003FE0
FF80003FE0
FF80003FE0
FF80003FC0
7F80003FC0
7F80003FC0
7F80007FC0
3FC0007F80
3FC0007F80
1FC0007F00
0FE000FE00
07E000FC00
03F001F800
01F803F000
00FC07E000
003FFF8000
0007FC0000
ENDCHAR
STARTCHAR 01D2
ENCODING 466
SWIDTH 500 0
DWIDTH 25 0
BBX 22 34 1 0
BITMAP
0E00E0
0F01E0
0783C0
03C780
03EF80
01FF00
00FE00
00FE00
007C00
000000
000000
01FF00
07C7C0
0F83E0
1F03F0
3F03F0
7F01F8
7F01F8
7F01FC
FE01FC
FE01FC
FE01FC
FE01FC
FE01FC
FE01FC
FE01FC
7E01FC
7F01FC
7F01F8
3F03F0
1F03F0
0F83E0
07C7C0
03FF00
ENDCHAR
STARTCHAR 01D3
ENCODING 467
SWIDTH 720 0
DWIDTH 36 0
BBX 33 45 1 -1
BITMAP
0070038000
0038070000
003C1E0000
001E3E0000
000FFC0000
000FF80000
0007F80000
0003F00000
0001E00000
0000000000
FFFF00FF80
7FFC007F00
1FF8001E00
0FF0000C00
0FF0000C00
0FF0000C00
0FF0000C00
0FF0000C00
0FF0000C00
0FF0000C00
0FF0000C00
0FF0000C00
0FF0000C00
0FF0000C00
0FF0000C00
0FF0000C00
0FF0000C00
0FF0000C00
0FF0000C00
0FF0000C00
0FF0000C00
0FF0000C00
0FF0000C00
0FF0000C00
0FF0000C00
0FF0000C00
0FF0001C00
07F8001800
07F8001800
07F8003800
03FC007000
01FE00E000
00FFC7C000
003FFF8000
0007FC0000
ENDCHAR
STARTCHAR 01D4
ENCODING 468
SWIDTH 560 0
DWIDTH 28 0
BBX 25 34 2 0
BITMAP
0E007000
0701E000
0783C000
03C7C000
01EF8000
01FF0000
00FF0000
007E0000
007C0000
00000000
00000000
FF8FFC00
7F83FC00
3F81FC00
3F81FC00
3F81FC00
3F81FC00
3F81FC00
3F81FC00
3F81FC00
3F81FC00
3F81FC00
3F81FC00
3F81FC00
3F81FC00
3F81FC00
3F81FC00
3F81FC00
3F81FC00
3F81FC00
3FC7FC00
1FFFFE00
0FFDFF80
07F1F800
ENDCHAR
STARTCHAR 01D5
ENCODING 469
SWIDTH 720 0
DWIDTH 36 0
BBX 33 46 1 -1
BITMAP
003FFFC000
003FFFC000
003FFFC000
003FFFC000
0000000000
0000000000
0000000000
001E078000
003F0FC000
003F0FC000
003F0FC000
003E0F8000
001E078000
0000000000
0000000000
0000000000
FFFF00FF80
3FF8003F00
0FF0001E00
0FF0000C00
0FF0000C00
0FF0000C00
0FF0000C00
0FF0000C00
0FF0000C00
0FF0000C00
0FF0000C00
0FF0000C00
0FF0000C00
0FF0000C00
0FF0000C00
0FF0000C00
0FF0000C00
0FF0000C00
0FF0000C00
0FF0000C00
0FF0000C00
0FF0000C00
0FF0001C00
07F8001800
07F8001800
03FC003000
03FC007000
00FF83C000
007FFF8000
000FFC0000
ENDCHAR
STARTCHAR 01D6
ENCODING 470
SWIDTH 560 0
DWIDTH 28 0
BBX 25 38 2 0
BITMAP
1FFFE000
1FFFE000
1FFFE000
00000000
00000000
00000000
0E038000
1F07C000
1F87E000
1F87E000
1F07C000
0F03C000
00000000
00000000
00000000
FF8FFC00
7F83FC00
3F81FC00
3F81FC00
3F81FC00
3F81FC00
3F81FC00
3F81FC00
3F81FC00
3F81FC00
3F81FC00
3F81FC00
3F81FC00
3F81FC00
3F81FC00
3F81FC00
3F81FC00
3F81FC00
3F81FC00
3FC7FC00
1FFFFE00
0FFDFF80
07F1F800
ENDCHAR
STARTCHAR 01D7
ENCODING 471
SWIDTH 720 0
DWIDTH 36 0
BBX 33 46 1 -1
BITMAP
000001E000
000003F000
000007F000
000007F000
00000FC000
00001F8000
00003E0000
00007C0000
0000F00000
001E078000
003F0FC000
003F0FC000
003F0FC000
003E0F8000
001E078000
0000000000
FFFF00FF80
3FF8003F00
0FF0001E00
0FF0000C00
0FF0000C00
0FF0000C00
0FF0000C00
0FF0000C00
0FF0000C00
0FF0000C00
0FF0000C00
0FF0000C00
0FF0000C00
0FF0000C00
0FF0000C00
0FF0000C00
0FF0000C00
0FF0000C00
0FF0000C00
0FF0000C00
0FF0000C00
0FF0000C00
0FF0001C00
07F8001800
07F8001800
03FC003000
03FC007000
00FF83C000
007FFF8000
000FFC0000
ENDCHAR
STARTCHAR 01D8
ENCODING 472
SWIDTH 560 0
DWIDTH 28 0
BBX 25 44 2 0
BITMAP
00006000
0000F000
0001F000
0003F000
0007E000
000FC000
001F0000
003E0000
00780000
00E00000
00000000
00000000
0E038000
1F07C000
1F87E000
1F87E000
1F07C000
0F03C000
00000000
00000000
00000000
FF8FFC00
7F83FC00
3F81FC00
3F81FC00
3F81FC00
3F81FC00
3F81FC00
3F81FC00
3F81FC00
3F81FC00
3F81FC00
3F81FC00
3F81FC00
3F81FC00
3F81FC00
3F81FC00
3F81FC00
3F81FC00
3F81FC00
3FC7FC00
1FFFFE00
0FFDFF80
07F1F800
ENDCHAR
STARTCHAR 01D9
ENCODING 473
SWIDTH 720 0
DWIDTH 36 0
BBX 33 46 1 -1
BITMAP
0038018000
001C038000
000E0F0000
000F1F0000
0007BE0000
0007FC0000
0003FC0000
0001F80000
0001F00000
001E078000
003F0FC000
003F0FC000
003F0FC000
003E0F8000
001E078000
0000000000
FFFF00FF80
3FF8003F00
0FF0001E00
0FF0000C00
0FF0000C00
0FF0000C00
0FF0000C00
0FF0000C00
0FF0000C00
0FF0000C00
0FF0000C00
0FF0000C00
0FF0000C00
0FF0000C00
0FF0000C00
0FF0000C00
0FF0000C00
0FF0000C00
0FF0000C00
0FF0000C00
0FF0000C00
0FF0000C00
0FF0001C00
07F8001800
07F8001800
03FC003000
03FC007000
00FF83C000
007FFF8000
000FFC0000
ENDCHAR
STARTCHAR 01DA
ENCODING 474
SWIDTH 560 0
DWIDTH 28 0
BBX 25 43 2 0
BITMAP
0E00F000
0701E000
0783C000
03E7C000
01FF8000
01FF0000
00FE0000
007E0000
00000000
00000000
00000000
0E038000
1F07C000
1F87E000
1F87E000
1F07C000
0F03C000
00000000
00000000
00000000
FF8FFC00
7F83FC00
3F81FC00
3F81FC00
3F81FC00
3F81FC00
3F81FC00
3F81FC00
3F81FC00
3F81FC00
3F81FC00
3F81FC00
3F81FC00
3F81FC00
3F81FC00
3F81FC00
3F81FC00
3F81FC00
3F81FC00
3FC7FC00
1FFFFE00
0FFDFF80
07F1F800
ENDCHAR
STARTCHAR 01DB
ENCODING 475
SWIDTH 720 0
DWIDTH 36 0
BBX 33 46 1 -1
BITMAP
0070000000
00F8000000
00FC000000
00FE000000
007E000000
001F000000
000F800000
0003C00000
0001E00000
001E078000
003F0FC000
003F0FC000
003F0FC000
003E0F8000
001E078000
0000000000
FFFF00FF80
3FF8003F00
0FF0001E00
0FF0000C00
0FF0000C00
0FF0000C00
0FF0000C00
0FF0000C00
0FF0000C00
0FF0000C00
0FF0000C00
0FF0000C00
0FF0000C00
0FF0000C00
0FF0000C00
0FF0000C00
0FF0000C00
0FF0000C00
0FF0000C00
0FF0000C00
0FF0000C00
0FF0000C00
0FF0001C00
07F8001800
07F8001800
03FC003000
03FC007000
00FF83C000
007FFF8000
000FFC0000
ENDCHAR
STARTCHAR 01DC
ENCODING 476
SWIDTH 560 0
DWIDTH 28 0
BBX 25 44 2 0
BITMAP
18000000
3E000000
3F000000
3F800000
1FC00000
07C00000
03E00000
00F00000
00380000
00000000
00000000
00000000
0E038000
1F07C000
1F87E000
1F87E000
1F07C000
0F03C000
00000000
00000000
00000000
FF8FFC00
7F83FC00
3F81FC00
3F81FC00
3F81FC00
3F81FC00
3F81FC00
3F81FC00
3F81FC00
3F81FC00
3F81FC00
3F81FC00
3F81FC00
3F81FC00
3F81FC00
3F81FC00
3F81FC00
3F81FC00
3F81FC00
3FC7FC00
1FFFFE00
0FFDFF80
07F1F800
ENDCHAR
STARTCHAR 01DD
ENCODING 477
SWIDTH 440 0
DWIDTH 22 0
BBX 20 23 1 1
BITMAP
03FE00
0FFF00
1FFF80
387FC0
601FE0
C00FE0
000FF0
0007F0
0007F0
0007F0
0007F0
0007F0
7FFFF0
7FFFF0
7E07F0
7E07F0
7E07E0
3E07E0
3E07E0
1E07C0
1F0F80
0F9F00
03FC00
ENDCHAR
STARTCHAR 01DE
ENCODING 478
SWIDTH 720 0
DWIDTH 36 0
BBX 34 45 1 0
BITMAP
00FFFF0000
00FFFF0000
00FFFF0000
00FFFF0000
0020080000
00781E0000
00F83E0000
00FC3F0000
00FC3F0000
00F83E0000
0070DC0000
0001C00000
0001C00000
0001E00000
0003E00000
0003F00000
0007F00000
0007F80000
0007F80000
000FF80000
000FFC0000
001BFC0000
001BFE0000
0019FE0000
0031FE0000
0030FF0000
0060FF0000
0060FF8000
00607F8000
00C07FC000
00C03FC000
01C03FC000
01801FE000
01FFFFE000
03FFFFF000
03000FF000
07000FF000
060007F800
060007F800
0E0007FC00
0C0003FC00
1C0003FE00
3C0003FE00
7F000FFF80
FFC03FFFC0
ENDCHAR
STARTCHAR 01DF
ENCODING 479
SWIDTH 500 0
DWIDTH 25 0
BBX 24 39 1 0
BITMAP
1FFFF0
1FFFF0
1FFFF0
000000
000000
000000
000000
0F03C0
1F87E0
1F87E0
1F87E0
1F07C0
0F03C0
000000
000000
000000
07FF80
1F0FC0
3C07F0
3C03F0
7E03F8
7E03F8
7E03F8
7E03F8
3C03F8
000FF8
007FF8
03E3F8
0FC3F8
3F83F8
7F03F8
7F03F8
FE03F8
FE03F8
FF07F8
FF8FF8
FFFBFF
7FF1FE
3FC1FC
ENDCHAR
STARTCHAR 01E0
ENCODING 480
SWIDTH 720 0
DWIDTH 36 0
BBX 34 45 0 0
BITMAP
007FFFC000
007FFFC000
007FFFC000
007FFFC000
0000000000
0000000000
0000000000
0001E00000
0003F00000
0003F00000
0003F00000
0003E00000
0001E00000
0000000000
0000000000
0000000000
0000C00000
0001C00000
0001E00000
0003E00000
0003F00000
0007F00000
0007F80000
000FF80000
000FFC0000
001BFC0000
001BFE0000
0031FE0000
0031FF0000
0060FF0000
0060FF8000
00E07F8000
00C07FC000
00C03FC000
01803FE000
01FFFFE000
03FFFFF000
03001FF000
07000FF800
06000FF800
0E0007FC00
0C0007FC00
1C0007FE00
3E0007FF00
FFC03FFFC0
ENDCHAR
STARTCHAR 01E1
ENCODING 481
SWIDTH 500 0
DWIDTH 25 0
BBX 24 39 1 0
BITMAP
1FFFF0
1FFFF0
1FFFF0
000000
000000
000000
000000
003800
007C00
00FC00
00FC00
007C00
007800
000000
000000
000000
07FF80
1F0FC0
3C07F0
3C03F0
7E03F8
7E03F8
7E03F8
7E03F8
3C03F8
000FF8
007FF8
03E3F8
0FC3F8
3F83F8
7F03F8
7F03F8
FE03F8
FE03F8
FF07F8
FF8FF8
FFFBFF
7FF1FE
3FC1FC
ENDCHAR
STARTCHAR 01E2
ENCODING 482
SWIDTH 980 0
DWIDTH 49 0
BBX 47 42 1 0
BITMAP
00007FFFC000
00007FFFC000
00007FFFC000
00007FFFC000
000000000000
000000000000
000000000000
000000000000
0003FFFFFFF8
00007FFFFFF8
000037F801F8
000037F80078
000067F80038
000067F80018
0000C7F80018
0000C7F80018
000187F80408
000187F80408
000307F80C00
000307F80C00
000607F80C00
000407F81C00
000C07F81C00
000807F8FC00
001807FFFC00
001FFFFFFC00
003FFFF87C00
003007F81C00
007007F80C00
00E007F80C00
00E007F80C00
01C007F80400
018007F80402
038007F80406
030007F8000E
070007F8000C
060007F8001C
0E0007F8003C
0E0007F8007C
1E000FFC01FC
7F801FFFFFF8
FFE07FFFFFF8
ENDCHAR
STARTCHAR 01E3
ENCODING 483
SWIDTH 700 0
DWIDTH 35 0
BBX 33 31 1 0
BITMAP
007FFF8000
007FFF8000
007FFF8000
007FFF8000
0000000000
0000000000
0000000000
0000000000
07FE1FF000
1F1F3C7C00
3C0FF83E00
7C07F81E00
7E07F01F00
7E07F01F00
7E07F01F00
3C07F01F80
0007F01F80
0007FFFF80
003FFFFF80
01F7F00000
0FC7F00000
1F07F00000
7F07F00000
7E07F00000
FE07F80000
FE07F80180
FE07FC0300
FF0FFF0F00
FFFCFFFE00
7FF07FFC00
3FC03FF000
ENDCHAR
STARTCHAR 01E4
ENCODING 484
SWIDTH 780 0
DWIDTH 39 0
BBX 36 36 2 -1
BITMAP
0007F80200
003FFF0600
00FE03FE00
01F800FE00
03F0007E00
07E0003E00
0FE0001E00
1FC0001E00
1FC0000E00
3FC0000600
3FC0000600
7F80000200
7F80000000
7F80000000
FF80000000
FF80000000
FF80000000
FF80000000
FF80000000
FF80000000
FF80000000
FF801FFFF0
FF8001FFC0
7F8000FF80
7F8000FF00
7FC000FF00
3FC000FF00
3FC01FFFF0
1FE01FFFF0
1FE000FF00
0FF000FF00
07F000FF00
01F800FF00
00FE01FE00
003FFFF000
0007FF0000
ENDCHAR
STARTCHAR 01E5
ENCODING 485
SWIDTH 500 0
DWIDTH 25 0
BBX 23 33 1 -9
BITMAP
03FE00
0FCFFE
1F87FE
3F03FE
3F03F0
7F03F0
7F03F8
7F03F8
7F03F8
7F03F8
3F03F8
3F03F0
1F87E0
07CFC0
03FE00
030000
0E0000
1E0000
3E0000
7F0000
7FFFC0
7FFFF8
7FFFFC
3FFFFC
1FFFFE
0FFFFE
3C003E
78001E
FFFFFE
FFFFFE
7C0038
3F01E0
0FFF80
ENDCHAR
STARTCHAR 01E6
ENCODING 486
SWIDTH 780 0
DWIDTH 39 0
BBX 36 46 2 -1
BITMAP
007001C000
003803C000
001C078000
001F0F0000
000F9E0000
0007FE0000
0003FC0000
0003F80000
0001F80000
0000000000
0007F80200
003FFF8600
00FE03FE00
01F800FE00
03F0007E00
07E0003E00
0FE0001E00
1FC0000E00
1FC0000E00
3FC0000600
3FC0000600
7F80000200
7F80000000
7F80000000
FF80000000
FF80000000
FF80000000
FF80000000
FF80000000
FF80000000
FF80000000
FF801FFFF0
FF8003FFC0
7F8000FF80
7F8000FF00
7FC000FF00
3FC000FF00
3FC000FF00
1FE000FF00
0FE000FF00
0FF000FF00
07F000FF00
01F800FF00
00FE01FE00
003FFFF000
0007FF0000
ENDCHAR
STARTCHAR 01E7
ENCODING 487
SWIDTH 500 0
DWIDTH 25 0
BBX 22 44 2 -10
BITMAP
1C01E0
1E03C0
0F0780
078F00
07DF00
03FE00
01FC00
01FC00
00F800
000000
000000
07FC00
1F9FFC
3F0FFC
7E07FC
7E07E0
FE07E0
FE07F0
FE07F0
FE07F0
FE07F0
7E07F0
7E07E0
3F0FC0
0F9F80
03FE00
060000
1C0000
3C0000
7C0000
7E0000
FFFF80
FFFFF0
FFFFF8
7FFFF8
1FFFFC
0FFFFC
78007C
F8003C
F0003C
F80038
F80070
7E03E0
1FFF80
ENDCHAR
STARTCHAR 01E8
ENCODING 488
SWIDTH 780 0
DWIDTH 39 0
BBX 37 45 1 0
BITMAP
003800E000
001C01C000
001E038000
000F0F8000
00079F0000
0007FE0000
0003FC0000
0001FC0000
0001F80000
0000000000
0000000000
FFFF0FFFE0
3FFE03FF80
1FF8007C00
0FF0007800
0FF000E000
0FF001C000
0FF0038000
0FF0070000
0FF00E0000
0FF01C0000
0FF0380000
0FF0700000
0FF0E00000
0FF1F00000
0FF3F00000
0FF7F80000
0FFFFC0000
0FFFFE0000
0FFBFF0000
0FF1FF0000
0FF1FF8000
0FF0FFC000
0FF07FE000
0FF03FF000
0FF01FF000
0FF01FF800
0FF00FFC00
0FF007FE00
0FF003FF00
0FF001FF00
0FF001FF80
1FF800FFC0
7FFE03FFE0
FFFF0FFFF8
ENDCHAR
STARTCHAR 01E9
ENCODING 489
SWIDTH 560 0
DWIDTH 28 0
BBX 26 44 2 0
BITMAP
0E007000
0700E000
03C1E000
03E7C000
01FF8000
00FF8000
00FF0000
007E0000
003C0000
00000000
FF800000
7F800000
3F800000
3F800000
3F800000
3F800000
3F800000
3F800000
3F800000
3F800000
3F800000
3F87FF00
3F81FE00
3F80F000
3F80E000
3F81C000
3F838000
3F870000
3F8E0000
3F9E0000
3FBF0000
3FFF8000
3FFFC000
3FDFC000
3F9FE000
3F8FF000
3F87F000
3F87F800
3F83FC00
3F81FE00
3F81FE00
3F80FF00
7FC0FF80
FFE3FFC0
ENDCHAR
STARTCHAR 01EA
ENCODING 490
SWIDTH 780 0
DWIDTH 39 0
BBX 35 45 2 -10
BITMAP
0007FC0000
003FFF8000
00FE07E000
01F803F000
03F001F800
07E000FC00
0FE000FE00
1FE000FF00
3FC0007F80
3FC0007F80
7FC0007FC0
7F80003FC0
7F80003FC0
FF80003FC0
FF80003FE0
FF80003FE0
FF80003FE0
FF80003FE0
FF80003FE0
FF80003FE0
FF80003FE0
FF80003FE0
FF80003FC0
7F80003FC0
7F80003FC0
7FC0007F80
3FC0007F80
3FC0007F00
1FC000FF00
0FE000FE00
07E000FC00
03F001F800
01F803F000
007E0FE000
001FFF0000
0000F00000
0000C00000
0001C00000
0001C00000
0003C00000
0003E00000
0003F38000
0003FF0000
0001FE0000
00007C0000
ENDCHAR
STARTCHAR 01EB
ENCODING 491
SWIDTH 500 0
DWIDTH 25 0
BBX 22 33 1 -9
BITMAP
01FF00
07C7C0
0F83E0
1F03F0
3F03F0
7F01F8
7F01F8
7F01FC
FE01FC
FE01FC
FE01FC
FE01FC
FE01FC
FE01FC
FE01FC
7E01FC
7F01FC
7F01F8
3F01F8
1F03F0
1F83E0
0783C0
03FF80
007C00
003000
007000
007000
00F000
00F800
00FCE0
00FFC0
007F80
003E00
ENDCHAR
STARTCHAR 01EC
ENCODING 492
SWIDTH 780 0
DWIDTH 39 0
BBX 35 52 2 -10
BITMAP
007FFFC000
007FFFC000
007FFFC000
007FFFC000
0000000000
0000000000
0000000000
0007FC0000
003FFF8000
00FE07E000
01F803F000
03F001F800
07E000FC00
0FE000FE00
1FE000FF00
3FC0007F80
3FC0007F80
7FC0007FC0
7F80003FC0
7F80003FC0
FF80003FC0
FF80003FE0
FF80003FE0
FF80003FE0
FF80003FE0
FF80003FE0
FF80003FE0
FF80003FE0
FF80003FE0
FF80003FC0
7F80003FC0
7F80003FC0
7FC0007F80
3FC0007F80
3FC0007F00
1FC000FF00
0FE000FE00
07E000FC00
03F001F800
01F803F000
007E0FE000
001FFF0000
0000F00000
0000C00000
0001C00000
0001C00000
0003C00000
0003E00000
0003F38000
0003FF0000
0001FE0000
00007C0000
ENDCHAR
STARTCHAR 01ED
ENCODING 493
SWIDTH 500 0
DWIDTH 25 0
BBX 22 40 1 -10
BITMAP
1FFFF0
1FFFF0
1FFFF0
000000
000000
000000
000000
01FF00
07C7C0
0F83E0
1F03F0
3F03F0
7F01F8
7F01F8
7F01FC
FE01FC
FE01FC
FE01FC
FE01FC
FE01FC
FE01FC
FE01FC
7E01FC
7F01FC
7F01F8
3F01F8
1F03F0
1F83E0
0783C0
03FF80
007C00
003000
007000
007000
00F000
00F800
00FCE0
00FFC0
007F80
003E00
ENDCHAR
STARTCHAR 01EE
ENCODING 494
SWIDTH 600 0
DWIDTH 30 0
BBX 29 46 0 -1
BITMAP
01C00600
01E01E00
00F03C00
00787800
003CF800
003FF000
001FE000
000FE000
000FC000
00000000
00000000
3FFFFFE0
3FFFFFC0
3F007FC0
3E007F80
3C00FF80
3800FF00
3801FF00
3001FE00
3003FE00
2007FC00
0007F800
000FF800
000FF000
000FF000
000FFE00
0001FF00
00007FC0
00003FE0
00001FE0
00001FF0
00000FF0
00000FF8
00000FF8
00000FF8
00000FF8
00000FF8
40001FF0
E0001FF0
70003FF0
38003FE0
1E007FC0
0F00FF80
03FFFF00
01FFFC00
003FE000
ENDCHAR
STARTCHAR 01EF
ENCODING 495
SWIDTH 500 0
DWIDTH 25 0
BBX 23 45 1 -11
BITMAP
0E0070
0700E0
0783C0
03C7C0
01FF80
01FF00
00FF00
007E00
003C00
000000
000000
0FFFF8
1FFFF8
1FFFF0
1FFFE0
3FFFC0
3FFF80
7FFF00
600C00
401800
C03000
007FC0
00FFE0
03FFF0
07FFF8
020FFC
0003FC
0001FC
0000FE
0000FE
00007E
00007E
00007E
00007E
00007E
00007C
00007C
1000FC
7C00F8
FE00F8
FE01F0
FE03E0
7C07C0
3FFF00
07FC00
ENDCHAR
STARTCHAR 01F0
ENCODING 496
SWIDTH 400 0
DWIDTH 20 0
BBX 19 44 0 -10
BITMAP
1C00E0
0E01C0
0F0780
078F80
03FF00
03FE00
01FE00
00FC00
007800
000000
000000
03FF00
00FF00
007F00
007F00
007F00
007F00
007F00
007F00
007F00
007F00
007F00
007F00
007F00
007F00
007F00
007F00
007F00
007F00
007F00
007F00
007F00
007F00
007F00
007F00
007F00
307F00
787F00
FC7E00
FC7E00
F87C00
78FC00
3FF800
0FC000
ENDCHAR
STARTCHAR 01F1
ENCODING 497
SWIDTH 1340 0
DWIDTH 67 0
BBX 63 34 1 0
BITMAP
FFFFF0000FFFFFFC
7FFFFF000FFFFFFC
1FF01FC00FC00FF8
0FF00FF01F001FF0
0FF007F81E001FF0
0FF003FC1C003FE0
0FF001FE1C007FE0
0FF001FE18007FC0
0FF000FF1800FF80
0FF000FF1000FF80
0FF000FF8001FF00
0FF000FF8003FF00
0FF0007F8003FE00
0FF0007F8007FC00
0FF0007FC007FC00
0FF0007FC00FF800
0FF0007FC01FF800
0FF0007FC01FF000
0FF0007FC03FE000
0FF0007FC07FE000
0FF0007F807FC000
0FF0007F80FFC000
0FF0007F80FF8002
0FF000FF81FF0002
0FF000FF03FF0006
0FF000FF03FE0006
0FF000FE07FE0006
0FF001FC07FC000E
0FF001F80FF8001E
0FF003F01FF8003E
0FF007E01FF0007E
1FF81FC03FF001FC
3FFFFF003FFFFFFC
FFFFF0007FFFFFFC
ENDCHAR
STARTCHAR 01F2
ENCODING 498
SWIDTH 1160 0
DWIDTH 58 0
BBX 56 34 1 0
BITMAP
FFFFF000000000
7FFFFF00000000
1FF01FC0000000
0FF00FF0000000
0FF007F8000000
0FF003FC000000
0FF001FE000000
0FF001FE000000
0FF000FF000000
0FF000FF000000
0FF000FF800000
0FF000FF87FFFF
0FF0007F87FFFF
0FF0007F8781FE
0FF0007FC603FC
0FF0007FC603FC
0FF0007FC407F8
0FF0007FC407F8
0FF0007FC00FF0
0FF0007FC00FE0
0FF0007F801FE0
0FF0007F803FC0
0FF0007F803FC0
0FF000FF807F80
0FF000FF007F80
0FF000FF00FF00
0FF000FE01FE03
0FF001FC01FE03
0FF001F803FC03
0FF003F003FC06
0FF007E007F80E
1FF81FC007F81E
3FFFFF000FFFFE
FFFFF0000FFFFE
ENDCHAR
STARTCHAR 01F3
ENCODING 499
SWIDTH 1000 0
DWIDTH 50 0
BBX 47 34 1 0
BITMAP
0007FE000000
0001FE000000
0000FE000000
0000FE000000
0000FE000000
0000FE000000
0000FE000000
0000FE000000
0000FE000000
0000FE000000
0000FE000000
03F8FE07FFFE
0FFEFE07FFFE
1FE7FE0701FE
3F81FE0E03FC
3F80FE0C07F8
7F00FE0C07F8
7F00FE0C0FF0
7F00FE000FF0
FF00FE001FE0
FE00FE001FC0
FE00FE003FC0
FE00FE007F80
FE00FE007F80
FE00FE00FF00
FF00FE00FF00
FF00FE01FE02
7F00FE03FC02
7F00FE03FC06
7F01FE07F806
3F83FE07F80E
1FC7FF8FF03E
0FFEFFCFFFFE
07F8F81FFFFE
ENDCHAR
STARTCHAR 01F4
ENCODING 500
SWIDTH 780 0
DWIDTH 39 0
BBX 36 46 2 -1
BITMAP
0000040000
00001E0000
00003E0000
00007E0000
0000FE0000
0001F80000
0003E00000
0007C00000
0007000000
000E000000
0007F80200
003FFF8600
00FE03FE00
01F800FE00
03F0007E00
07E0003E00
0FE0001E00
1FC0000E00
1FC0000E00
3FC0000600
3FC0000600
7F80000200
7F80000000
7F80000000
FF80000000
FF80000000
FF80000000
FF80000000
FF80000000
FF80000000
FF80000000
FF801FFFF0
FF8003FFC0
7F8000FF80
7F8000FF00
7FC000FF00
3FC000FF00
3FC000FF00
1FE000FF00
0FE000FF00
0FF000FF00
07F000FF00
01F800FF00
00FE01FE00
003FFFF000
0007FF0000
ENDCHAR
STARTCHAR 01F5
ENCODING 501
SWIDTH 500 0
DWIDTH 25 0
BBX 22 44 2 -10
BITMAP
000E00
001F00
003F00
007F00
007E00
00F800
01F000
03C000
070000
000000
000000
07FC00
1F9FFC
3F0FFC
7E07FC
7E07E0
FE07E0
FE07F0
FE07F0
FE07F0
FE07F0
7E07F0
7E07E0
3F0FC0
0F9F80
03FE00
060000
1C0000
3C0000
7C0000
7E0000
FFFF80
FFFFF0
FFFFF8
7FFFF8
1FFFFC
0FFFFC
78007C
F8003C
F0003C
F80038
F80070
7E03E0
1FFF80
ENDCHAR
STARTCHAR 01F6
ENCODING 502
SWIDTH 1000 0
DWIDTH 50 0
BBX 47 34 1 0
BITMAP
FFFF0FFFF000
7FFE07FFE000
1FF801FF8000
0FF000FF0000
0FF000FF0000
0FF000FF0000
0FF000FF0000
0FF000FF0000
0FF000FF0000
0FF000FF0000
0FF000FF000E
0FF000FF007E
0FF000FF01FE
0FF000FF07FE
0FF000FF07FE
0FF000FF00FE
0FFFFFFF00FE
0FFFFFFF00FE
0FF000FF00FE
0FF000FF00FE
0FF000FF00FE
0FF000FF00FE
0FF000FF00FE
0FF000FF00FE
0FF000FF00FE
0FF000FF00FE
0FF0007F00FE
0FF0007F00FC
0FF0007F01FC
0FF0003F81FC
0FF0001F83F8
1FF8001FC7F0
7FFE000FFFE0
FFFF0003FF80
ENDCHAR
STARTCHAR 01F7
ENCODING 503
SWIDTH 600 0
DWIDTH 30 0
BBX 30 35 0 0
BITMAP
0038FF80
00F9FFE0
03FFFFF0
1FFF0FF8
7FFC07F8
CFF803FC
07F803FC
07F803FC
07F803FC
07F803FC
07F807FC
07F807F8
07F807F8
07F807F0
07F80FF0
07F80FE0
07F81FC0
07F81F80
07F83F00
07F87E00
07F87C00
07F8F800
07F9E000
07FBC000
07FB8000
07FE0000
07FC0000
07F80000
07F80000
07F80000
07F80000
07F80000
0FFC0000
3FFF0000
7FFF8000
ENDCHAR
STARTCHAR 01F8
ENCODING 504
SWIDTH 720 0
DWIDTH 36 0
BBX 33 45 1 0
BITMAP
0008000000
001E000000
001F000000
001F800000
000FC00000
0007E00000
0001F00000
0000F80000
0000380000
00001C0000
0000000000
FFE000FF80
7FF0007F00
3FF0001E00
1FF8000C00
0FFC000C00
0FFE000C00
0FFF000C00
0FFF000C00
0DFF800C00
0CFFC00C00
0C7FE00C00
0C3FF00C00
0C3FF80C00
0C1FF80C00
0C0FFC0C00
0C07FE0C00
0C03FF0C00
0C01FF8C00
0C01FF8C00
0C00FFCC00
0C007FEC00
0C003FFC00
0C001FFC00
0C000FFC00
0C0007FC00
0C0007FC00
0C0003FC00
0C0001FC00
0C0000FC00
0C00007C00
0C00003C00
1E00003C00
7F80001C00
FFC0000C00
ENDCHAR
STARTCHAR 01F9
ENCODING 505
SWIDTH 560 0
DWIDTH 28 0
BBX 24 34 2 0
BITMAP
03C000
03E000
03F000
03F800
00FC00
007E00
001F00
000700
000380
000000
000000
FF8FE0
7F9FF0
3FBFF8
3FE3F8
3FC1FC
3F81FC
3F81FC
3F81FC
3F81FC
3F81FC
3F81FC
3F81FC
3F81FC
3F81FC
3F81FC
3F81FC
3F81FC
3F81FC
3F81FC
3F81FC
3F81FC
7FC3FE
FFE7FF
ENDCHAR
STARTCHAR 01FA
ENCODING 506
SWIDTH 720 0
DWIDTH 36 0
BBX 34 45 0 0
BITMAP
00001E0000
00003E0000
00007E0000
0000FE0000
0001FC0000
0003F00000
0007C00000
0007800000
000E000000
0001F00000
0007F80000
00071C0000
000E0C0000
000C0C0000
000C0C0000
000E0C0000
00073C0000
0007F80000
0001E00000
0000C00000
0001C00000
0001E00000
0003E00000
0003F00000
0007F80000
0007F80000
000FFC0000
000BFC0000
0019FE0000
0011FE0000
0030FF0000
0060FF8000
00607F8000
00C03FC000
00C03FC000
01801FE000
01FFFFE000
03000FF000
03000FF800
060007F800
060007FC00
0C0003FC00
1C0003FE00
3E0003FF00
FFC03FFFC0
ENDCHAR
STARTCHAR 01FB
ENCODING 507
SWIDTH 500 0
DWIDTH 25 0
BBX 24 44 1 1
BITMAP
000780
000F80
001F80
003F80
007E00
00FC00
01F000
01C000
038000
00FC00
01FE00
03FF00
038700
038300
038300
038700
03FF00
01FE00
00FC00
000000
000000
07FF80
1F0FC0
3C07F0
3C03F0
7E03F8
7E03F8
7E03F8
7E03F8
3C03F8
000FF8
007FF8
03E3F8
0FC3F8
3F83F8
7F03F8
7F03F8
FE03F8
FE03F8
FF07F8
FF8FF8
FFFBFF
7FF1FE
3FC1FC
ENDCHAR
STARTCHAR 01FC
ENCODING 508
SWIDTH 980 0
DWIDTH 49 0
BBX 47 45 1 0
BITMAP
000000004000
00000001E000
00000003E000
00000007E000
0000000FE000
0000001F8000
0000003E0000
0000007C0000
000000700000
000000E00000
000000000000
0003FFFFFFF8
00007FFFFFF8
000037F801F8
000037F80078
000067F80038
000067F80018
0000C7F80018
0000C7F80018
000187F80408
000187F80408
000307F80C00
000307F80C00
000607F80C00
000407F81C00
000C07F81C00
000807F8FC00
001807FFFC00
001FFFFFFC00
003FFFF87C00
003007F81C00
007007F80C00
00E007F80C00
00E007F80C00
01C007F80400
018007F80402
038007F80406
030007F8000E
070007F8000C
060007F8001C
0E0007F8003C
0E0007F8007C
1E000FFC01FC
7F801FFFFFF8
FFE07FFFFFF8
ENDCHAR
STARTCHAR 01FD
ENCODING 509
SWIDTH 700 0
DWIDTH 35 0
BBX 33 34 1 0
BITMAP
00001C0000
00003E0000
00007E0000
0000FE0000
0001F80000
0003F00000
0007C00000
000F800000
000E000000
0010000000
0000000000
07FE1FF000
1F1F3C7C00
3C0FF83E00
7C07F81E00
7E07F01F00
7E07F01F00
7E07F01F00
3C07F01F80
0007F01F80
0007FFFF80
003FFFFF80
01F7F00000
0FC7F00000
1F07F00000
7F07F00000
7E07F00000
FE07F80000
FE07F80180
FE07FC0300
FF0FFF0F00
FFFCFFFE00
7FF07FFC00
3FC03FF000
ENDCHAR
STARTCHAR 01FE
ENCODING 510
SWIDTH 780 0
DWIDTH 39 0
BBX 35 48 2 -3
BITMAP
00003E0000
00007E0000
00007E0000
0000FC0000
0001F80000
0003E00000
0007C00000
000F000600
001C000E00
0007FC0C00
003FFF1800
00FC07F800
01F803F000
03F001F800
07E001FC00
0FE000FE00
1FC001FF00
3FC003FF80
3FC0037F80
7FC0067FC0
7F800E7FC0
7F800C3FC0
FF80183FC0
FF80383FE0
FF80303FE0
FF80703FE0
FF80E03FE0
FF80C03FE0
FF81C03FE0
FF83803FE0
FF83003FE0
7F87003FC0
7F8E003FC0
7F8C003FC0
7FDC007FC0
3FD8007F80
3FF0007F80
1FF0007F00
0FE000FE00
07E000FC00
03F001F800
01F803F000
03FC07E000
073FFF8000
0607FC0000
0C00000000
1C00000000
3800000000
ENDCHAR
STARTCHAR 01FF
ENCODING 511
SWIDTH 500 0
DWIDTH 25 0
BBX 22 42 1 -4
BITMAP
000780
000F80
001F80
003F80
007E00
00FC00
01F000
01C000
038000
000000
000000
000018
000038
000030
000060
03FF60
07C7C0
0F83E0
1F03E0
3F03F0
7F03F8
7F07F8
7F0FFC
FE0DFC
FE19FC
FE19FC
FE31FC
FE71FC
FE61FC
FEC1FC
7EC1FC
7F81FC
7F81F8
3F03F0
1F03F0
0F83E0
0FC7C0
1DFF00
180000
380000
300000
600000
ENDCHAR
STARTCHAR 0200
ENCODING 512
SWIDTH 720 0
DWIDTH 36 0
BBX 34 45 1 0
BITMAP
0383C00000
07C3C00000
07E3E00000
07E3E00000
03F1F00000
01F0F00000
0078F00000
003C780000
001C380000
0000000000
0000C00000
0001C00000
0001C00000
0001E00000
0003E00000
0003F00000
0007F00000
0007F80000
0007F80000
000FF80000
000FFC0000
001BFC0000
001BFE0000
0019FE0000
0031FE0000
0030FF0000
0060FF0000
0060FF8000
00607F8000
00C07FC000
00C03FC000
01C03FC000
01801FE000
01FFFFE000
03FFFFF000
03000FF000
07000FF000
060007F800
060007F800
0E0007FC00
0C0003FC00
1C0003FE00
3C0003FE00
7F000FFF80
FFC03FFFC0
ENDCHAR
STARTCHAR 0201
ENCODING 513
SWIDTH 500 0
DWIDTH 25 0
BBX 24 35 1 0
BITMAP
707800
F87800
FC7C00
FC7C00
7E3E00
3E1E00
0F1E00
078F00
038700
000000
000000
000000
07FF80
1F0FC0
3C07F0
3C03F0
7E03F8
7E03F8
7E03F8
7E03F8
3C03F8
000FF8
007FF8
03E3F8
0FC3F8
3F83F8
7F03F8
7F03F8
FE03F8
FE03F8
FF07F8
FF8FF8
FFFBFF
7FF1FE
3FC1FC
ENDCHAR
STARTCHAR 0202
ENCODING 514
SWIDTH 720 0
DWIDTH 36 0
BBX 34 44 1 0
BITMAP
0003C00000
000FF00000
001FF80000
003FFC0000
00781E0000
00700E0000
0060060000
0060060000
00E0060000
0000C00000
0001C00000
0001C00000
0001E00000
0003E00000
0003F00000
0007F00000
0007F80000
0007F80000
000FF80000
000FFC0000
001BFC0000
001BFE0000
0019FE0000
0031FE0000
0030FF0000
0060FF0000
0060FF8000
00607F8000
00C07FC000
00C03FC000
01C03FC000
01801FE000
01FFFFE000
03FFFFF000
03000FF000
07000FF000
060007F800
060007F800
0E0007FC00
0C0003FC00
1C0003FE00
3C0003FE00
7F000FFF80
FFC03FFFC0
ENDCHAR
STARTCHAR 0203
ENCODING 515
SWIDTH 500 0
DWIDTH 25 0
BBX 24 35 1 0
BITMAP
001000
01FE00
03FF00
07FF80
078780
0E01C0
0E01C0
0C00C0
1C00C0
000000
000000
000000
07FF80
1F0FC0
3C07F0
3C03F0
7E03F8
7E03F8
7E03F8
7E03F8
3C03F8
000FF8
007FF8
03E3F8
0FC3F8
3F83F8
7F03F8
7F03F8
FE03F8
FE03F8
FF07F8
FF8FF8
FFFBFF
7FF1FE
3FC1FC
ENDCHAR
STARTCHAR 0204
ENCODING 516
SWIDTH 680 0
DWIDTH 34 0
BBX 31 45 1 0
BITMAP
01C1E000
03E1E000
03F1F000
03F1F000
01F8F800
00F87800
003C7800
001E3C00
000E1C00
00000000
00000000
FFFFFFF8
3FFFFFF8
1FF001F8
0FF00078
0FF00038
0FF00018
0FF00018
0FF00018
0FF00408
0FF00408
0FF00C00
0FF00C00
0FF00C00
0FF01C00
0FF07C00
0FFFFC00
0FFFFC00
0FF0FC00
0FF03C00
0FF01C00
0FF00C00
0FF00C00
0FF00400
0FF00402
0FF00006
0FF00006
0FF0000E
0FF0001C
0FF0001C
0FF0003C
0FF000FC
1FF803FC
7FFFFFFC
FFFFFFF8
ENDCHAR
STARTCHAR 0205
ENCODING 517
SWIDTH 440 0
DWIDTH 22 0
BBX 20 35 1 0
BITMAP
707800
F87800
FC7C00
FC7C00
7E3E00
3E1E00
0F1E00
078F00
038700
000000
000000
000000
03FE00
0F8F00
1F0780
3E07C0
3E07C0
7E07E0
7E07E0
FE07E0
FE07E0
FFFFE0
FFFFF0
FE0000
FE0000
FE0000
FE0000
FF0000
7F0000
7F8030
3F8060
3FE1C0
1FFF80
0FFF00
03FE00
ENDCHAR
STARTCHAR 0206
ENCODING 518
SWIDTH 680 0
DWIDTH 34 0
BBX 31 44 1 0
BITMAP
0007E000
001FF000
003FF800
003FFC00
00781E00
00700E00
00600600
00600600
00E00600
00000000
FFFFFFF8
3FFFFFF8
1FF001F8
0FF00078
0FF00038
0FF00018
0FF00018
0FF00018
0FF00408
0FF00408
0FF00C00
0FF00C00
0FF00C00
0FF01C00
0FF07C00
0FFFFC00
0FFFFC00
0FF0FC00
0FF03C00
0FF01C00
0FF00C00
0FF00C00
0FF00400
0FF00402
0FF00006
0FF00006
0FF0000E
0FF0001C
0FF0001C
0FF0003C
0FF000FC
1FF803FC
7FFFFFFC
FFFFFFF8
ENDCHAR
STARTCHAR 0207
ENCODING 519
SWIDTH 440 0
DWIDTH 22 0
BBX 20 34 1 1
BITMAP
01FE00
03FF00
07FF80
078780
0E01C0
0E01C0
0C00C0
1C00C0
1C00E0
000000
000000
03FE00
0F8F00
1F0780
3E07C0
3E07C0
7E07E0
7E07E0
FE07E0
FE07E0
FFFFE0
FFFFF0
FE0000
FE0000
FE0000
FE0000
FF0000
7F0000
7F8030
3F8060
3FE1C0
1FFF80
0FFF00
03FE00
ENDCHAR
STARTCHAR 0208
ENCODING 520
SWIDTH 400 0
DWIDTH 20 0
BBX 18 45 0 0
BITMAP
707800
F87800
FC7C00
FC7C00
7E3E00
3E1E00
0F1E00
078F00
038700
000000
000000
3FFFC0
1FFF00
07FE00
03FC00
03FC00
03FC00
03FC00
03FC00
03FC00
03FC00
03FC00
03FC00
03FC00
03FC00
03FC00
03FC00
03FC00
03FC00
03FC00
03FC00
03FC00
03FC00
03FC00
03FC00
03FC00
03FC00
03FC00
03FC00
03FC00
03FC00
03FC00
07FE00
1FFF00
3FFFC0
ENDCHAR
STARTCHAR 0209
ENCODING 521
SWIDTH 300 0
DWIDTH 15 0
BBX 16 35 -3 0
BITMAP
7078
F878
FC7C
FC7C
7E3E
3E1E
0F1E
078F
0387
0000
0000
0000
07FC
03FC
01FC
01FC
01FC
01FC
01FC
01FC
01FC
01FC
01FC
01FC
01FC
01FC
01FC
01FC
01FC
01FC
01FC
01FC
01FC
03FE
07FF
ENDCHAR
STARTCHAR 020A
ENCODING 522
SWIDTH 400 0
DWIDTH 20 0
BBX 16 44 2 0
BITMAP
07C0
1FF0
3FF8
7FFC
701C
E00C
E00E
C00E
C006
0000
FFFF
7FFC
1FF8
0FF0
0FF0
0FF0
0FF0
0FF0
0FF0
0FF0
0FF0
0FF0
0FF0
0FF0
0FF0
0FF0
0FF0
0FF0
0FF0
0FF0
0FF0
0FF0
0FF0
0FF0
0FF0
0FF0
0FF0
0FF0
0FF0
0FF0
0FF0
1FF8
7FFC
FFFF
ENDCHAR
STARTCHAR 020B
ENCODING 523
SWIDTH 300 0
DWIDTH 15 0
BBX 15 34 -1 1
BITMAP
0FF0
3FF8
3FFC
7C3C
701E
600E
E006
E006
C006
0000
0000
1FF0
0FF0
07F0
07F0
07F0
07F0
07F0
07F0
07F0
07F0
07F0
07F0
07F0
07F0
07F0
07F0
07F0
07F0
07F0
07F0
07F0
0FF8
1FFC
ENDCHAR
STARTCHAR 020C
ENCODING 524
SWIDTH 780 0
DWIDTH 39 0
BBX 35 46 2 -1
BITMAP
00E0F00000
01F0F00000
01F8F80000
01F8F80000
00FC7C0000
007C3C0000
001E3C0000
000F1E0000
00070E0000
0000000000
0007FC0000
003FFF8000
00FC07E000
01F803F000
03F001F800
07E001FC00
0FE000FE00
1FC000FF00
3FC0007F80
3FC0007F80
7FC0007F80
7F80007FC0
7F80003FC0
FF80003FC0
FF80003FE0
FF80003FE0
FF80003FE0
FF80003FE0
FF80003FE0
FF80003FE0
FF80003FE0
FF80003FE0
FF80003FC0
7F80003FC0
7F80003FC0
7F80007FC0
3FC0007F80
3FC0007F80
1FC0007F00
0FE000FE00
07E000FC00
03F001F800
01F803F000
00FC07E000
003FFF8000
0007FC0000
ENDCHAR
STARTCHAR 020D
ENCODING 525
SWIDTH 500 0
DWIDTH 25 0
BBX 22 35 1 0
BITMAP
383C00
7C3C00
7E3E00
7E3E00
3F1F00
1F0F00
078F00
03C780
01C380
000000
000000
000000
01FF00
07C7C0
0F83E0
1F03F0
3F03F0
7F01F8
7F01F8
7F01FC
FE01FC
FE01FC
FE01FC
FE01FC
FE01FC
FE01FC
FE01FC
7E01FC
7F01FC
7F01F8
3F03F0
1F03F0
0F83E0
07C7C0
03FF00
ENDCHAR
STARTCHAR 020E
ENCODING 526
SWIDTH 780 0
DWIDTH 39 0
BBX 35 45 2 -1
BITMAP
0001E00000
0007FC0000
000FFE0000
001FFF0000
001E0F0000
001C070000
0038038000
0038038000
0030018000
0007FC0000
003FFF8000
00FC07E000
01F803F000
03F001F800
07E001FC00
0FE000FE00
1FC000FF00
3FC0007F80
3FC0007F80
7FC0007F80
7F80007FC0
7F80003FC0
FF80003FC0
FF80003FE0
FF80003FE0
FF80003FE0
FF80003FE0
FF80003FE0
FF80003FE0
FF80003FE0
FF80003FE0
FF80003FC0
7F80003FC0
7F80003FC0
7F80007FC0
3FC0007F80
3FC0007F80
1FC0007F00
0FE000FE00
07E000FC00
03F001F800
01F803F000
00FC07E000
003FFF8000
0007FC0000
ENDCHAR
STARTCHAR 020F
ENCODING 527
SWIDTH 500 0
DWIDTH 25 0
BBX 22 35 1 0
BITMAP
001000
01FE00
03FF80
07FF80
0783C0
0701C0
0E00E0
0E00E0
0C0060
000000
000000
000000
01FF00
07C7C0
0F83E0
1F03F0
3F03F0
7F01F8
7F01F8
7F01FC
FE01FC
FE01FC
FE01FC
FE01FC
FE01FC
FE01FC
FE01FC
7E01FC
7F01FC
7F01F8
3F03F0
1F03F0
0F83E0
07C7C0
03FF00
ENDCHAR
STARTCHAR 0210
ENCODING 528
SWIDTH 720 0
DWIDTH 36 0
BBX 35 45 1 0
BITMAP
0707800000
0F87800000
0FC7C00000
0FC7C00000
07E3E00000
03E1E00000
00F1E00000
0078F00000
0038700000
0000000000
0000000000
FFFFFC0000
7FFFFF8000
1FF81FE000
0FF00FF000
0FF007F800
0FF007FC00
0FF003FC00
0FF003FE00
0FF003FE00
0FF003FE00
0FF003FE00
0FF003FC00
0FF003FC00
0FF007FC00
0FF007F800
0FF00FF000
0FF07FC000
0FFFFF0000
0FFFFE0000
0FF3FF0000
0FF1FF8000
0FF0FF8000
0FF0FFC000
0FF07FE000
0FF03FF000
0FF03FF000
0FF01FF800
0FF00FFC00
0FF007FC00
0FF007FE00
0FF003FF00
1FF801FF80
7FFE00FFC0
FFFF00FFE0
ENDCHAR
STARTCHAR 0211
ENCODING 529
SWIDTH 420 0
DWIDTH 21 0
BBX 21 35 1 0
BITMAP
707800
F87800
FC7C00
FC7C00
7E3E00
3E1E00
0F1E00
078F00
038700
000000
000000
000000
7FC7E0
3FCFF0
1FDFF8
1FFFF8
1FE3F0
1FE0E0
1FC000
1FC000
1FC000
1FC000
1FC000
1FC000
1FC000
1FC000
1FC000
1FC000
1FC000
1FC000
1FC000
1FC000
1FC000
3FE000
7FF800
ENDCHAR
STARTCHAR 0212
ENCODING 530
SWIDTH 720 0
DWIDTH 36 0
BBX 35 44 1 0
BITMAP
0007F00000
001FF80000
001FFC0000
003FFE0000
00380E0000
00700E0000
0070070000
0060070000
0060030000
0000000000
FFFFFC0000
7FFFFF8000
1FF81FE000
0FF00FF000
0FF007F800
0FF007FC00
0FF003FC00
0FF003FE00
0FF003FE00
0FF003FE00
0FF003FE00
0FF003FC00
0FF003FC00
0FF007FC00
0FF007F800
0FF00FF000
0FF07FC000
0FFFFF0000
0FFFFE0000
0FF3FF0000
0FF1FF8000
0FF0FF8000
0FF0FFC000
0FF07FE000
0FF03FF000
0FF03FF000
0FF01FF800
0FF00FFC00
0FF007FC00
0FF007FE00
0FF003FF00
1FF801FF80
7FFE00FFC0
FFFF00FFE0
ENDCHAR
STARTCHAR 0213
ENCODING 531
SWIDTH 420 0
DWIDTH 21 0
BBX 20 34 2 1
BITMAP
03FC00
07FE00
0FFF00
1F0F00
1C0780
180380
380180
380180
300180
000000
000000
FF8FC0
7F9FE0
3FBFF0
3FFFF0
3FC7E0
3FC1C0
3F8000
3F8000
3F8000
3F8000
3F8000
3F8000
3F8000
3F8000
3F8000
3F8000
3F8000
3F8000
3F8000
3F8000
3F8000
7FC000
FFF000
ENDCHAR
STARTCHAR 0214
ENCODING 532
SWIDTH 720 0
DWIDTH 36 0
BBX 33 46 1 -1
BITMAP
00383C0000
007C3C0000
007E3E0000
007E3E0000
003F1F0000
001F0F0000
00078F0000
0003C78000
0001C38000
0000000000
0000000000
FFFF00FF80
7FFC007F00
1FF8001E00
0FF0000C00
0FF0000C00
0FF0000C00
0FF0000C00
0FF0000C00
0FF0000C00
0FF0000C00
0FF0000C00
0FF0000C00
0FF0000C00
0FF0000C00
0FF0000C00
0FF0000C00
0FF0000C00
0FF0000C00
0FF0000C00
0FF0000C00
0FF0000C00
0FF0000C00
0FF0000C00
0FF0000C00
0FF0000C00
0FF0000C00
0FF0001C00
07F8001800
07F8001800
07F8003800
03FC007000
01FE00E000
00FFC7C000
003FFF8000
0007FC0000
ENDCHAR
STARTCHAR 0215
ENCODING 533
SWIDTH 560 0
DWIDTH 28 0
BBX 25 35 2 0
BITMAP
70780000
F8780000
FC7C0000
FC7C0000
7E3E0000
3E1E0000
0F1E0000
078F0000
03870000
00000000
00000000
00000000
FF8FFC00
7F83FC00
3F81FC00
3F81FC00
3F81FC00
3F81FC00
3F81FC00
3F81FC00
3F81FC00
3F81FC00
3F81FC00
3F81FC00
3F81FC00
3F81FC00
3F81FC00
3F81FC00
3F81FC00
3F81FC00
3F81FC00
3FC7FC00
1FFFFE00
0FFDFF80
07F1F800
ENDCHAR
STARTCHAR 0216
ENCODING 534
SWIDTH 720 0
DWIDTH 36 0
BBX 33 45 1 -1
BITMAP
0000F00000
0003FE0000
0007FF0000
000FFF0000
000F078000
001C038000
001C018000
001801C000
001801C000
0000000000
FFFF00FF80
7FFC007F00
1FF8001E00
0FF0000C00
0FF0000C00
0FF0000C00
0FF0000C00
0FF0000C00
0FF0000C00
0FF0000C00
0FF0000C00
0FF0000C00
0FF0000C00
0FF0000C00
0FF0000C00
0FF0000C00
0FF0000C00
0FF0000C00
0FF0000C00
0FF0000C00
0FF0000C00
0FF0000C00
0FF0000C00
0FF0000C00
0FF0000C00
0FF0000C00
0FF0001C00
07F8001800
07F8001800
07F8003800
03FC007000
01FE00E000
00FFC7C000
003FFF8000
0007FC0000
ENDCHAR
STARTCHAR 0217
ENCODING 535
SWIDTH 560 0
DWIDTH 28 0
BBX 25 35 2 0
BITMAP
00200000
01FE0000
03FF0000
07FF8000
0F878000
0E01C000
0C01C000
1C00C000
1C00C000
00000000
00000000
00000000
FF8FFC00
7F83FC00
3F81FC00
3F81FC00
3F81FC00
3F81FC00
3F81FC00
3F81FC00
3F81FC00
3F81FC00
3F81FC00
3F81FC00
3F81FC00
3F81FC00
3F81FC00
3F81FC00
3F81FC00
3F81FC00
3F81FC00
3FC7FC00
1FFFFE00
0FFDFF80
07F1F800
ENDCHAR
STARTCHAR 0218
ENCODING 536
SWIDTH 560 0
DWIDTH 28 0
BBX 23 50 3 -15
BITMAP
01FC08
07FF98
1F03F8
3E00F8
7C0078
7C0038
7C0038
FC0018
FC0018
FE0008
FF0008
FF8000
FFE000
7FF800
7FFC00
3FFF00
1FFFC0
0FFFE0
07FFF0
03FFF8
00FFFC
003FFC
000FFC
0003FE
8001FE
C000FE
C0007E
C0007E
E0007C
E0007C
F0007C
F800F8
FC00F0
FE03E0
EFFFC0
C1FE00
000000
000000
00F800
01FC00
01FE00
01FE00
01FE00
00FE00
000E00
000C00
001800
003000
00E000
008000
ENDCHAR
STARTCHAR 0219
ENCODING 537
SWIDTH 400 0
DWIDTH 20 0
BBX 17 38 2 -14
BITMAP
0FFB00
3E3F00
780F00
780700
F80300
F80300
FC0100
FF0000
FFC000
7FF000
7FFC00
3FFE00
1FFF00
07FF00
01FF80
807F80
C01F80
C00F80
C00F00
E00F00
F01E00
FC3E00
CFF800
000000
000000
000000
0F8000
1FC000
1FE000
1FE000
1FE000
0FE000
00E000
00C000
018000
030000
0E0000
080000
ENDCHAR
STARTCHAR 021A
ENCODING 538
SWIDTH 640 0
DWIDTH 32 0
BBX 30 49 1 -15
BITMAP
FFFFFFFC
FFFFFFFC
FC1FE0FC
F01FE03C
E01FE01C
E01FE00C
C01FE00C
C01FE00C
C01FE004
801FE004
001FE000
001FE000
001FE000
001FE000
001FE000
001FE000
001FE000
001FE000
001FE000
001FE000
001FE000
001FE000
001FE000
001FE000
001FE000
001FE000
001FE000
001FE000
001FE000
001FE000
001FE000
003FF000
00FFFC00
01FFFE00
00000000
00000000
00000000
000F8000
001FC000
001FE000
001FE000
001FE000
000FE000
0000E000
0000C000
00018000
00030000
000E0000
00080000
ENDCHAR
STARTCHAR 021B
ENCODING 539
SWIDTH 340 0
DWIDTH 17 0
BBX 15 46 2 -15
BITMAP
0180
0180
0380
0780
0F80
1F80
1F80
3F80
FFF8
FFF8
3F80
3F80
3F80
3F80
3F80
3F80
3F80
3F80
3F80
3F80
3F80
3F80
3F80
3F80
3F80
3F80
3F86
3FCC
3FF8
1FF8
0FE0
0000
0000
0000
0F80
1FC0
1FE0
1FE0
1FE0
0FE0
00E0
00C0
0180
0300
0E00
0800
ENDCHAR
STARTCHAR 021C
ENCODING 540
SWIDTH 460 0
DWIDTH 23 0
BBX 19 37 2 -3
BITMAP
8FF800
FFFE00
F87F00
F03F80
E01F80
E01FC0
C01FC0
C01FC0
C01FC0
C01FC0
001FC0
001F80
003F80
003F00
007E00
00FC00
01FF00
07FF80
7FDFC0
7F1FC0
780FE0
000FE0
000FE0
000FE0
000FE0
000FE0
000FC0
001FC0
001F80
003F80
007F00
01FE00
03F800
1FE000
FF8000
7E0000
600000
ENDCHAR
STARTCHAR 021D
ENCODING 541
SWIDTH 460 0
DWIDTH 23 0
BBX 20 34 1 -12
BITMAP
C1E000
CFFE00
DFFF00
FC3F80
F03FC0
E01FC0
E01FC0
C01FC0
401FC0
001FC0
001F80
003F80
003F00
007F00
00FE00
01FF80
07FFC0
1FEFE0
3FCFF0
3E07F0
0007F0
0007F0
0007F0
0007E0
000FE0
000FE0
001FC0
003F80
00FF00
01FC00
0FF800
7FC000
3F0000
300000
ENDCHAR
STARTCHAR 021E
ENCODING 542
SWIDTH 780 0
DWIDTH 39 0
BBX 36 44 1 0
BITMAP
003801C000
001E038000
000F078000
000F8F0000
0007FE0000
0003FE0000
0003FC0000
0001F80000
0000F80000
0000000000
FFFF0FFFF0
7FFE07FFE0
1FF801FF80
0FF000FF00
0FF000FF00
0FF000FF00
0FF000FF00
0FF000FF00
0FF000FF00
0FF000FF00
0FF000FF00
0FF000FF00
0FF000FF00
0FF000FF00
0FF000FF00
0FF000FF00
0FFFFFFF00
0FFFFFFF00
0FF000FF00
0FF000FF00
0FF000FF00
0FF000FF00
0FF000FF00
0FF000FF00
0FF000FF00
0FF000FF00
0FF000FF00
0FF000FF00
0FF000FF00
0FF000FF00
0FF000FF00
1FF801FF80
7FFE07FFE0
FFFF0FFFF0
ENDCHAR
STARTCHAR 021F
ENCODING 543
SWIDTH 560 0
DWIDTH 28 0
BBX 24 44 2 0
BITMAP
0E00F0
0F01E0
0783C0
03C7C0
01EF80
01FF00
00FE00
007E00
007C00
000000
FF8000
7F8000
3F8000
3F8000
3F8000
3F8000
3F8000
3F8000
3F8000
3F8000
3F8000
3F8FE0
3F9FF0
3FBFF8
3FE3F8
3FC1FC
3F81FC
3F81FC
3F81FC
3F81FC
3F81FC
3F81FC
3F81FC
3F81FC
3F81FC
3F81FC
3F81FC
3F81FC
3F81FC
3F81FC
3F81FC
3F81FC
7FC3FE
FFE7FF
ENDCHAR
STARTCHAR 0220
ENCODING 544
SWIDTH 740 0
DWIDTH 37 0
BBX 37 45 -1 -10
BITMAP
00000FE000
FFF87FF800
3FF8FFFC00
0FFBF9FE00
07FFC0FE00
07FF00FF00
07FE007F00
07F8007F80
07F8007F80
07F8007F80
07F8007F80
07F8007F80
07F8007F80
07F8007F80
07F8007F80
07F8007F80
07F8007F80
07F8007F80
07F8007F80
07F8007F80
07F8007F80
07F8007F80
07F8007F80
07F8007F80
07F8007F80
07F8007F80
07F8007F80
07F8007F80
07F8007F80
07F8007F80
07F8007F80
07F8007F80
07F8007F80
0FFC007F80
7FFF807F80
7FFF807F80
0000007F80
0000007F80
0000007F80
0000007F80
0000007F80
0000007F80
000000FFC0
000003FFF0
000007FFF8
ENDCHAR
STARTCHAR 0221
ENCODING 545
SWIDTH 640 0
DWIDTH 32 0
BBX 31 47 1 -13
BITMAP
0007FE00
0001FE00
0000FE00
0000FE00
0000FE00
0000FE00
0000FE00
0000FE00
0000FE00
0000FE00
0000FE00
03F8FE00
0FFEFE00
1FE7FE00
3F81FE00
3F80FE00
7F00FE00
7F00FE00
7F00FE00
FF00FE00
FE00FE00
FE00FE00
FE00FE00
FE00FE00
FE00FE00
FF00FE00
FF00FE00
7F00FE00
7F00FE00
7F01FE00
3F83FE00
1FC7FE00
0FFEFE00
07F8FFE0
0001FFF0
0007FFF8
001FFE3C
003EFE1E
00F8FE1E
01F07E1E
03E07E1E
03C07E1E
07803F3C
03003F3C
00001FF8
00000FF0
000007E0
ENDCHAR
STARTCHAR 0222
ENCODING 546
SWIDTH 560 0
DWIDTH 28 0
BBX 24 36 2 -1
BITMAP
03C000
0E03FC
3C00FE
7C007E
7C003F
FC003F
FC003F
FE003E
FE007E
FF007C
FF80F8
FFE1F0
7FFBC0
7FFF00
3FFF00
1FFFC0
07FFE0
03FFF8
0FFFFC
1E3FFC
3C0FFE
7803FE
7801FF
F800FF
F8007F
F8007F
F8003F
F8003F
F8003E
7C003E
7C003C
3E007C
3F0078
0F80F0
07FFE0
00FF00
ENDCHAR
STARTCHAR 0223
ENCODING 547
SWIDTH 500 0
DWIDTH 25 0
BBX 22 37 2 0
BITMAP
0000C0
0003F0
0807F8
181FF8
3010FC
70007C
F0003C
F0003C
F00038
F80038
F80030
FC0070
FF00E0
7F81C0
7FE300
3FFE00
1FFE00
0FFF00
03FFC0
07FFE0
0E3FE0
1C0FF0
3807F0
7803F8
7801F8
F001F8
F000F8
F000F8
F000F8
F000F0
F800F0
F800F0
7801E0
7C01E0
3E03C0
0F8F80
03FE00
ENDCHAR
STARTCHAR 0224
ENCODING 548
SWIDTH 660 0
DWIDTH 33 0
BBX 30 45 2 -11
BITMAP
3FFFFFF8
3FFFFFF0
3F003FF0
7C007FE0
78007FE0
7000FFC0
7000FF80
6001FF80
6003FF00
4003FF00
0007FE00
0007FC00
000FFC00
001FF800
001FF800
003FF000
003FE000
007FE000
007FC000
00FFC000
01FF8000
01FF0000
03FF0004
03FE0004
07FE000C
0FFC000C
0FF8000C
1FF8001C
1FF0003C
3FF0007C
3FE000FC
7FC003FC
FFFFFFFC
FFFFFFFC
0000000C
0000200C
0000F80C
0001FC0C
0001FC0C
0001FC0C
0001F80C
0000F81C
00007838
00003FF0
00000FE0
ENDCHAR
STARTCHAR 0225
ENCODING 549
SWIDTH 440 0
DWIDTH 22 0
BBX 19 34 2 -11
BITMAP
FFFFE0
FFFFE0
F03FC0
E07FC0
C07F80
C0FF80
80FF00
01FE00
01FE00
03FC00
03F800
07F800
07F000
0FF000
0FE000
1FC020
1FC020
3F8060
3F80E0
7F00E0
7E03E0
FFFFE0
FFFFE0
000060
010060
07C060
0FE060
0FE060
0FE060
0FC060
07C0E0
03C1C0
01FF80
007F00
ENDCHAR
STARTCHAR 0226
ENCODING 550
SWIDTH 720 0
DWIDTH 36 0
BBX 34 42 1 0
BITMAP
0003C00000
0007E00000
0007E00000
0007E00000
0007E00000
0003C00000
0000000000
0000C00000
0001C00000
0001C00000
0001E00000
0003E00000
0003F00000
0007F00000
0007F80000
0007F80000
000FF80000
000FFC0000
001BFC0000
001BFE0000
0019FE0000
0031FE0000
0030FF0000
0060FF0000
0060FF8000
00607F8000
00C07FC000
00C03FC000
01C03FC000
01801FE000
01FFFFE000
03FFFFF000
03000FF000
07000FF000
060007F800
060007F800
0E0007FC00
0C0003FC00
1C0003FE00
3C0003FE00
7F000FFF80
FFC03FFFC0
ENDCHAR
STARTCHAR 0227
ENCODING 551
SWIDTH 500 0
DWIDTH 25 0
BBX 24 32 1 0
BITMAP
003800
007C00
00FC00
00FC00
007C00
007800
000000
000000
000000
07FF80
1F0FC0
3C07F0
3C03F0
7E03F8
7E03F8
7E03F8
7E03F8
3C03F8
000FF8
007FF8
03E3F8
0FC3F8
3F83F8
7F03F8
7F03F8
FE03F8
FE03F8
FF07F8
FF8FF8
FFFBFF
7FF1FE
3FC1FC
ENDCHAR
STARTCHAR 0228
ENCODING 552
SWIDTH 660 0
DWIDTH 33 0
BBX 31 45 1 -11
BITMAP
FFFFFFF0
3FFFFFF0
1FF003F0
0FF000F0
0FF00070
0FF00030
0FF00030
0FF00030
0FF00810
0FF00810
0FF00800
0FF01800
0FF01800
0FF03800
0FF07800
0FFFF800
0FFFF800
0FF0F800
0FF03800
0FF01800
0FF01800
0FF01800
0FF00800
0FF00806
0FF00004
0FF0000C
0FF0001C
0FF0001C
0FF0003C
0FF00078
0FF000F8
1FF803F8
7FFFFFF8
FFFFFFF8
00030000
00060000
00060000
000FE000
000FF000
0000F800
0000F800
0000F800
0031F000
003FE000
001F8000
ENDCHAR
STARTCHAR 0229
ENCODING 553
SWIDTH 440 0
DWIDTH 22 0
BBX 20 34 1 -10
BITMAP
03FE00
0F8F00
1F0780
3E07C0
3E07C0
7E07E0
7E07E0
FE07E0
FE07E0
FFFFE0
FFFFF0
FE0000
FE0000
FE0000
FE0000
FF0000
7F0000
7F0030
3F8060
3FE1C0
1FFF80
0FFF00
03FE00
006000
00C000
00C000
01F800
01FE00
003E00
001F00
001F00
047E00
07FC00
03F000
ENDCHAR
STARTCHAR 022A
ENCODING 554
SWIDTH 780 0
DWIDTH 39 0
BBX 35 46 2 -1
BITMAP
007FFF8000
007FFF8000
007FFF8000
007FFF8000
0000000000
0000000000
0000000000
003C078000
007E0FC000
007E0FC000
007E0FC000
007C0F8000
003C078000
0000000000
0000000000
0000000000
001FFF0000
00FE0FC000
01F803F000
07F001F800
0FE000FE00
1FE000FE00
3FC0007F00
3FC0007F80
7FC0007FC0
7F80007FC0
7F80003FC0
FF80003FE0
FF80003FE0
FF80003FE0
FF80003FE0
FF80003FE0
FF80003FE0
FF80003FE0
FF80003FC0
7F80003FC0
7F80003FC0
7F80007F80
3FC0007F80
1FC0007F00
1FC000FE00
0FE000FC00
03F001F800
01F803F000
007F3FC000
000FFC0000
ENDCHAR
STARTCHAR 022B
ENCODING 555
SWIDTH 500 0
DWIDTH 25 0
BBX 22 39 1 0
BITMAP
1FFFF0
1FFFF0
1FFFF0
000000
000000
000000
000000
0F03C0
0F83E0
1F87E0
1F87E0
1F87E0
0F03C0
000000
000000
000000
01FF00
07C7C0
0F83E0
1F03F0
3F03F0
7F01F8
7F01F8
7F01FC
FE01FC
FE01FC
FE01FC
FE01FC
FE01FC
FE01FC
FE01FC
7E01FC
7F01FC
7F01F8
3F03F0
1F03F0
0F83E0
07C7C0
03FF00
ENDCHAR
STARTCHAR 022C
ENCODING 556
SWIDTH 780 0
DWIDTH 39 0
BBX 35 46 2 -1
BITMAP
003FFF8000
003FFF8000
003FFF8000
003FFF8000
0000000000
0000000000
0000000000
000FC0C000
001FF1C000
003FFF8000
003FFF8000
0070FF0000
00601C0000
0000000000
0000000000
0000000000
001FFF0000
007E0FC000
01F803F000
07F001FC00
0FE000FE00
1FE000FF00
1FC0007F00
3FC0007F80
7FC0007FC0
7F80007FC0
7F80003FC0
FF80003FE0
FF80003FE0
FF80003FE0
FF80003FE0
FF80003FE0
FF80003FE0
FF80003FE0
FF80003FC0
7F80003FC0
7F80003FC0
3FC0007F80
3FC0007F80
1FC0007F00
0FE000FE00
07E000FC00
03F001F800
00FC03E000
003F9FC000
0007FC0000
ENDCHAR
STARTCHAR 022D
ENCODING 557
SWIDTH 500 0
DWIDTH 25 0
BBX 22 39 1 0
BITMAP
1FFFF0
1FFFF0
1FFFF0
000000
000000
000000
000030
07F030
0FFFF0
1FFFE0
18FFC0
301F80
000000
000000
000000
000000
01FF00
07C7C0
0F83E0
1F03F0
3F03F0
7F01F8
7F01F8
7F01FC
FE01FC
FE01FC
FE01FC
FE01FC
FE01FC
FE01FC
FE01FC
7E01FC
7F01FC
7F01F8
3F03F0
1F03F0
0F83E0
07C7C0
03FF00
ENDCHAR
STARTCHAR 022E
ENCODING 558
SWIDTH 780 0
DWIDTH 39 0
BBX 35 43 2 -1
BITMAP
0001E00000
0003F00000
0003F00000
0003F00000
0003F00000
0001E00000
0000000000
0007FC0000
003FFF8000
00FC07E000
01F803F000
03F001F800
07E001FC00
0FE000FE00
1FC000FF00
3FC0007F80
3FC0007F80
7FC0007F80
7F80007FC0
7F80003FC0
FF80003FC0
FF80003FE0
FF80003FE0
FF80003FE0
FF80003FE0
FF80003FE0
FF80003FE0
FF80003FE0
FF80003FE0
FF80003FC0
7F80003FC0
7F80003FC0
7F80007FC0
3FC0007F80
3FC0007F80
1FC0007F00
0FE000FE00
07E000FC00
03F001F800
01F803F000
00FC07E000
003FFF8000
0007FC0000
ENDCHAR
STARTCHAR 022F
ENCODING 559
SWIDTH 500 0
DWIDTH 25 0
BBX 22 32 1 0
BITMAP
003800
007C00
00FC00
00FC00
00FC00
007800
000000
000000
000000
01FF00
07C7C0
0F83E0
1F03F0
3F03F0
7F01F8
7F01F8
7F01FC
FE01FC
FE01FC
FE01FC
FE01FC
FE01FC
FE01FC
FE01FC
7E01FC
7F01FC
7F01F8
3F03F0
1F03F0
0F83E0
07C7C0
03FF00
ENDCHAR
STARTCHAR 0230
ENCODING 560
SWIDTH 780 0
DWIDTH 39 0
BBX 35 46 2 -1
BITMAP
007FFF8000
007FFF8000
007FFF8000
007FFF8000
0000000000
0000000000
0000000000
0001E00000
0003F00000
0003F00000
0003F00000
0003E00000
0001E00000
0000000000
0000000000
0000000000
001FFF0000
00FC0FC000
01F803F000
07F001F800
0FE001FC00
1FE000FE00
3FC0007F00
3FC0007F80
7FC0007F80
7F80007FC0
7F80003FC0
FF80003FE0
FF80003FE0
FF80003FE0
FF80003FE0
FF80003FE0
FF80003FE0
FF80003FE0
FF80003FC0
7F80003FC0
7F80007FC0
3FC0007F80
3FC0007F80
1FC000FF00
0FE000FE00
07E001FC00
03F003F800
01F807E000
007F3F8000
0007FC0000
ENDCHAR
STARTCHAR 0231
ENCODING 561
SWIDTH 500 0
DWIDTH 25 0
BBX 22 37 1 0
BITMAP
1FFFF0
1FFFF0
1FFFF0
1FFFF0
000000
003800
007C00
00FC00
00FC00
00FC00
007800
000000
000000
000000
01FF00
07C7C0
0F83E0
1F03F0
3F03F0
7F01F8
7F01F8
7F01FC
FE01FC
FE01FC
FE01FC
FE01FC
FE01FC
FE01FC
FE01FC
7E01FC
7F01FC
7F01F8
3F03F0
1F03F0
0F83E0
07C7C0
03FF00
ENDCHAR
ENDFONT
